<svg width="734" height="940" fill="none" xmlns="http://www.w3.org/2000/svg"><path d="M327.056 194.281c-61.553 8.387-118.646 35.903-162.721 78.421-44.076 42.519-72.76 97.751-81.753 157.417-8.993 59.667 2.188 120.554 31.87 173.535 29.681 52.982 76.262 95.205 132.762 120.339v83.096c-78.805-26.41-145.995-78.061-190.512-146.452-44.517-68.39-63.707-149.446-54.414-229.828 9.293-80.381 46.517-155.298 105.546-212.422 59.028-57.124 136.343-93.05 219.222-101.866V34.704L406.882.524V266.28c37.511 6.987 72.438 23.513 101.21 47.887L456.703 372.9c-21.687-18.788-49.056-30.268-78.02-32.726-28.965-2.457-57.972 4.24-82.691 19.091s-43.824 37.06-54.462 63.311c-10.638 26.251-12.24 55.136-4.565 82.343 7.675 27.206 24.214 51.275 47.149 68.613 22.934 17.337 51.034 27.014 80.103 27.584 29.069.571 57.549-7.995 81.188-24.419 23.638-16.423 41.167-39.823 49.97-66.707H321.15l66.875-77.199h193.48c2.956 44.329-1.912 125.359-63.006 184.674-30.4 29.548-69.282 49.511-111.563 57.279v71.902c61.55-8.399 118.637-35.924 162.705-78.448 44.068-42.524 72.744-97.758 81.731-157.425 8.987-59.666-2.2-120.551-31.884-173.53-29.683-52.979-76.266-95.199-132.765-120.332V133.83c78.818 26.396 146.023 78.041 190.553 146.432 44.529 68.391 63.729 149.453 54.438 229.841-9.291 80.389-46.518 155.313-105.554 212.439-59.035 57.126-136.361 93.049-219.247 101.856V939.79l-79.826-34.18V674.706c-49.028-9.029-93.271-34.374-125.097-71.664-31.827-37.289-49.242-84.184-49.242-132.598 0-48.413 17.415-95.308 49.242-132.598 31.826-37.289 76.069-62.634 125.097-71.664v-71.901h-.031z" fill="#77A15D" fill-opacity=".07"/></svg>