<svg width="24" height="24" fill="none" xmlns="http://www.w3.org/2000/svg"><path d="M23.42 5.751a7.112 7.112 0 00-1.581-2.265 7.355 7.355 0 00-2.334-1.519 7.47 7.47 0 00-2.845-.555 7.51 7.51 0 00-3.867 1.067c-.278.167-.542.35-.792.55-.25-.2-.514-.383-.791-.55a7.505 7.505 0 00-3.867-1.067 7.47 7.47 0 00-2.845.555 7.34 7.34 0 00-2.334 1.519A7.07 7.07 0 00.584 5.75 6.926 6.926 0 000 8.54c0 .91.189 1.86.564 2.826.314.807.764 1.645 1.339 2.49.911 1.338 2.164 2.734 3.72 4.148 2.578 2.345 5.131 3.965 5.24 4.03l.658.417a.904.904 0 00.958 0l.659-.416a42.043 42.043 0 005.24-4.03c1.555-1.415 2.808-2.81 3.719-4.149.575-.845 1.028-1.683 1.339-2.49.375-.966.564-1.915.564-2.826a6.875 6.875 0 00-.58-2.789zM12 20.286S2.11 14.045 2.11 8.54c0-2.789 2.342-5.049 5.232-5.049 2.03 0 3.792 1.117 4.658 2.747.867-1.63 2.629-2.747 4.66-2.747 2.888 0 5.23 2.26 5.23 5.049 0 5.505-9.89 11.746-9.89 11.746z" fill="#77A15D"/></svg>