<svg width="178" height="70" fill="none" xmlns="http://www.w3.org/2000/svg"><path d="M5.693 37.489v27.869H0v-27.87c0-2.55 2.618-4.641 5.693-4.641h11.104v4.642H5.693zM18.8 65.358V32.847h11.104c3.075 0 5.693 2.091 5.693 4.642v11.613c0 1.995-2.618 3.627-5.693 3.627h-5.412v12.638H18.8v-.009zm5.692-27.87v11.614h5.412V37.49h-5.412zm25.345-4.641c3.136 0 5.692 2.18 5.692 4.642v23.227c0 2.55-2.618 4.642-5.692 4.642h-5.412c-3.075 0-5.693-2.092-5.693-4.642V37.49c0-2.462 2.566-4.642 5.693-4.642h5.412zm0 27.87V37.488h-5.412v23.227h5.412zm15.101-.001h5.982v-7.854h5.693v7.854c0 2.506-2.565 4.642-5.693 4.642h-5.982c-3.137 0-5.693-2.18-5.693-4.642V37.49c0-2.462 2.565-4.642 5.693-4.642h5.982c3.136 0 5.693 2.135 5.693 4.642v7.854H70.92V37.49h-5.982v23.227zm21.075 0h5.983v-7.854h5.692v7.854c0 2.506-2.565 4.642-5.692 4.642h-5.983c-3.136 0-5.693-2.18-5.693-4.642V37.49c0-2.462 2.566-4.642 5.693-4.642h5.983c3.136 0 5.692 2.135 5.692 4.642v7.854h-5.692V37.49h-5.983v23.227zm35.316-23.227v-4.642h5.692v4.642h5.412c3.075 0 5.693 2.091 5.693 4.642v14.958c0 1.95-2.566 3.627-5.693 3.627h-5.412v4.642h-5.692v-4.642h-5.412c-3.136 0-5.692-1.668-5.692-3.627V42.131c0-2.55 2.618-4.642 5.692-4.642h5.412zm0 19.6V42.131h-5.412v14.958h5.412zm11.104-14.958h-5.412v14.958h5.412V42.131zm25.063-9.284v32.511c0 2.462-2.565 4.642-5.693 4.642h-11.104v-4.642h11.104v-4.642h-5.411c-3.075 0-5.693-2.136-5.693-4.695V32.847h5.693V56.02h5.411V32.847h5.693zm20.504 0v32.511c0 2.462-2.565 4.642-5.693 4.642h-11.104v-4.642h11.104v-4.642h-5.411c-3.075 0-5.693-2.136-5.693-4.695V37.49c0-2.462 2.565-4.642 5.693-4.642H178zm-5.693 23.174V37.49h-5.411v18.53h5.411zM90.845 4.977c-.158 1.474-.061 2.93.228 4.377.044.239.159.318.37.362.404.089.808.142 1.23.142 1-.01 2.002 0 3.004 0 1.115 0 2.222-.071 3.338-.062.237 0 .352-.062.378-.31.07-.652.15-1.296.237-1.95a.776.776 0 00-.114-.502c-.58-1.042-1.151-2.1-1.792-3.107A12.118 12.118 0 0096.3 2.136a1.332 1.332 0 00-1.106-.442c-.932.062-1.872.106-2.812.142-.22.008-.333.07-.43.282-.299.688-.624 1.359-.879 2.065-.096.274-.202.53-.228.794zm-24.22.689c.29-.01.571 0 .86 0 1.257.017 2.513-.027 3.76.167 1.872.292 3.752.433 5.632.618.536.053 1.08.08 1.616.124.141.009.246 0 .255-.177a13.9 13.9 0 00.018-2.18c-.167-.061-.29-.008-.413 0-.554.053-1.107.124-1.66.045-.958-.133-1.81-.486-2.381-1.324-.255-.37-.519-.724-.747-1.112-.15-.247-.307-.362-.606-.344-.73.044-1.458.035-2.188.088-.94.07-1.853.256-2.705.688-.422.212-.79.477-.975.936-.194.485-.387.98-.554 1.474-.079.238-.088.503-.123.75-.026.194.053.247.211.247zm45.568 1.438c-.088-.194-.238-.335-.387-.476-1.098-1.086-2.187-2.18-3.285-3.266-.246-.247-.466-.52-.589-.856-.062-.159-.035-.273.167-.3.316-.053.615-.141.905-.273.219-.097.421-.22.536-.45.21-.406.228-.856.254-1.306.009-.16-.105-.177-.219-.177-.132 0-.211.044-.202.194.008.141.026.283.026.433.018.68-.079.803-.764.864-.062.01-.123-.008-.194-.008-.114-.353.062-.742-.202-1.112-.518.512-.975 1.067-1.695 1.27-.703.203-1.414.31-2.196.406.79 1.227 1.115 2.507 1.045 3.883-.009.221 0 .45.009.671.035 1.165.483 2.056 1.581 2.568.141.07.246.097.387.035.395-.176.79-.326 1.186-.503.395-.185.782-.194 1.203-.07.483.15.984.265 1.467.397.141.035.273.062.413-.026.527-.353.817-1.342.554-1.898zm-27.269 7.263c-.176-.335-.22-.688-.21-1.068.008-.414.131-.811.184-1.28-.404.098-.756-.079-1.134-.087a64.373 64.373 0 00-4.524.123c-.536.027-1.08.044-1.616.15-.272.053-.501.159-.685.38a7.571 7.571 0 01-1.915 1.553c-.967.556-1.88 1.191-2.803 1.809a1.507 1.507 0 00-.22.177c-.044.044-.035.123-.008.185.035.062.088.07.158.044.817-.3 1.66-.22 2.495-.15.254.018.51.026.764.035.255.009.448-.088.606-.309.264-.361.5-.732.615-1.182a2.31 2.31 0 01.193-.538c.167-.345.352-.406.694-.248 1.582.76 3.26 1.236 4.946 1.695.808.22 1.634.406 2.46.547.132.026.281.044.264-.15-.07-.565.008-1.156-.264-1.686z" fill="#060606"/><path d="M66.765 7.387c1.098.511 1.933 1.323 2.504 2.4.149.282.316.556.474.83.369.644.668 1.306.694 2.064.009.239.132.327.351.354.747.088 1.494.053 2.24.026.185-.009.247-.097.238-.274-.018-.3-.027-.609-.035-.909-.027-.847-.053-1.685.131-2.524a2.897 2.897 0 000-1.288c-.114-.512-.263-1.015-.386-1.527-.044-.167-.114-.256-.308-.29-1.309-.204-2.609-.354-3.935-.372H67.16c-.773 0-.746 0-.808.777-.053.397.08.582.413.733zm29.377 8.003c.73-.388 1.423-.847 1.73-1.738.29-.856.748-1.659 1.117-2.488.158-.345.298-.707.342-1.148h-.518c-2.003.027-4.006.044-6.009.08a5.75 5.75 0 01-1.23-.115c-.105-.018-.21-.097-.325 0 .14.635.351 1.244.58 1.862.184.512.097.459.624.459 1.783.009 3.557.009 5.34.018.133 0 .361-.08.37.079 0 .23-.246.124-.378.124a110.44 110.44 0 01-5.148-.01h-.553c.307.76.588 1.475.878 2.18.062.15.123.292.193.433.15.309.396.476.73.556a3.32 3.32 0 002.257-.291zM82.85 5.463c-.008 1.103 0 2.206 0 3.3 0 .512-.07.503.475.494 1.037-.008 2.064-.008 3.1-.035.282-.009.633.124.818-.088.167-.186.053-.52.053-.786.017-.944.017-1.888-.115-2.815a10.66 10.66 0 01-.105-2.241l.026-.53c.018-.52.097-.512-.51-.485-.526.017-1.045.044-1.572.062-.79.035-1.58.07-2.415.114.017.177.017.3.043.424.167.865.211 1.72.203 2.586z" fill="#060606"/><path d="M73.89 12.955c.993-.203 1.968-.494 2.943-.776.106-.027.22-.053.29-.15.536-.671 1.107-1.324 1.274-2.207.15-.785.22-1.58.29-2.373.061-.733.123-.61-.545-.671a335.27 335.27 0 00-4.313-.388c-.211-.018-.43-.08-.677-.01.097.371.194.724.29 1.077.202.698.255 1.404.114 2.127-.228 1.121-.052 2.25-.079 3.371.167.053.29.027.413 0zm17.613-.468c-.808-.026-1.616-.088-2.424-.141-1.169-.07-2.328-.326-3.505-.362-.413-.009-.413-.026-.492.362-.036.168-.062.344-.097.512-.106.512-.097 1.006.184 1.474.088.15.115.326.141.503.035.361.105.732.08 1.094-.019.265.096.318.333.309.764-.018 1.51-.141 2.266-.247.914-.133 1.819-.31 2.741-.291a11.93 11.93 0 002.355-.177c-.448-.918-.782-1.827-1.142-2.727-.088-.22-.203-.3-.44-.309zm10.138-.257c0-.008 0-.008 0 0h-.008.008z" fill="#060606"/><path d="M106.579 9.17c-.73-.363-1.107-.98-1.292-1.74a4.597 4.597 0 01-.132-1.094c0-.45.027-.9-.008-1.341a5.45 5.45 0 00-.914-2.683c-.097-.15-.202-.265-.413-.256a32.7 32.7 0 01-2.46.009c-.052.15.009.247.044.353.158.432.308.874.457 1.306.562 1.694.729 3.433.413 5.19-.176.952-.404 1.905-.606 2.85-.035.15-.097.3-.027.459a18.143 18.143 0 012.293-2.127c.536-.415 1.142-.61 1.81-.645.255-.017.51-.008.764-.026.097-.009.229.044.264-.115-.009-.017-.018-.035-.027-.044a1.015 1.015 0 00-.166-.097zm-19.072-.362c.009.397.009.405.378.405.984-.008 1.968-.052 2.987.389-.035-.22-.044-.327-.062-.433-.237-1.147-.299-2.303-.263-3.477.017-.565.105-1.112.325-1.632.237-.574.483-1.139.729-1.712.061-.142.167-.274.14-.468-.193.018-.377.026-.562.044-1.186.088-2.363.309-3.558.335-.263.01-.316.124-.316.353 0 .971-.08 1.942.079 2.913.193 1.076.105 2.188.123 3.283z" fill="#060606"/><path d="M102.195 7.784c.141-1.968-.413-3.786-1.107-5.586-.035-.089-.061-.195-.176-.212-.325-.053-.606-.239-.975-.327.141.344.229.653.246.97.044.751.044 1.501-.035 2.251-.14 1.377-.334 2.754-.448 4.14a8.314 8.314 0 01-.913 3.14c-.238.469-.457.954-.668 1.43-.044.098-.132.186-.08.3.089.027.308-.202.37-.255.562-.53 1.212-.918 1.906-1.245.36-.167.782-.282 1.037-.556.272-.29.228-.776.316-1.182.211-.953.457-1.898.527-2.868zM75.339 13.67c.5-.3.931-.688 1.38-1.218-.545.15-.993.274-1.433.397-1.432.415-2.89.591-4.383.424-.677-.08-1.344-.212-1.81-.777 0-.009-.009-.009-.009-.009-.14-.053-.184-.255-.378-.273.106.547.08 1.085.088 1.624.01.432-.088.803-.369 1.147-.342.432-.641.9-.984 1.394.932.22 1.81.415 2.706.53.193.026.378 0 .571-.035.176-.036.325-.098.43-.265.247-.38.59-.645.976-.892 1.072-.68 2.126-1.394 3.215-2.047zm9.33-1.933c.413 0 .825.018 1.238.044 1.239.07 2.451.327 3.69.389.694.035 1.38.07 2.135.105-.273-.794-.545-1.526-.72-2.276-.036-.15-.15-.203-.273-.239-.615-.167-1.221-.344-1.863-.326-.966.026-1.932.017-2.898.026-.413 0-.826.018-1.24.018-.228 0-.35.044-.342.318.018.556.009 1.112 0 1.676-.009.186.062.256.273.265zm12.176 10.599c-.316-.424-.474-.891-.571-1.403-.132-.706-.15-1.43-.114-2.145.008-.106.061-.23-.027-.317-.132-.142-.966-.256-1.142-.133-.43.3-.87.37-1.344.07-.21 1.475-.088 2.86.22 4.246.202.909.175.918 1.054 1.12.14.036.281.036.422.036h2.046c.115 0 .246.026.352-.027-.009-.203-.123-.326-.21-.459-.23-.335-.449-.662-.686-.988zM82.376 5.684c-.36.017-.738-.01-1.09.044-.737.106-1.466.264-2.266.026a48.035 48.035 0 01-.307 3.53c.053.027.079.053.105.053l3.567-.053c.184 0 .246-.08.246-.256a182.763 182.763 0 010-3.106c0-.194-.08-.247-.255-.238zm1.538 3.829c-.43.009-.86 0-1.283.009l-3.566.053c-.378.009-.387.009-.475.415-.105.494-.351.918-.632 1.323-.14.204-.29.406-.457.653a55.599 55.599 0 014.946-.247c.492 0 .984-.008 1.476 0 .175 0 .263-.053.254-.247a56.733 56.733 0 010-1.72c-.008-.195-.087-.239-.263-.239zm-7.951 9.514c-.026-.089-.088-.124-.176-.115-.281.026-.58-.035-.843.106-.501.282-1.028.273-1.573.194-.114-.018-.237-.097-.36-.018-.017.142.07.248.114.362.404.962 1.046 1.783 1.608 2.648.246.38.51.635.993.556a.37.37 0 01.272.044c.009.335-.176.635-.14.997.887.088 1.73-.132 2.582-.3-.017-.08-.017-.124-.044-.168-.852-1.42-1.941-2.691-2.433-4.306zM79.02 5.321c-.017.186.115.248.264.274.316.044.624.088.949.053.711-.08 1.414-.238 2.134-.194.211.009.264-.08.273-.283.026-.82-.115-1.623-.229-2.426-.035-.239-.149-.31-.377-.3-.65.026-1.31.026-1.942-.124-.474-.115-.949-.256-1.44-.388-.018.053-.036.07-.036.079.229 1.094.483 2.18.404 3.31zm-9.171 14.5c-.062-.203-.194-.132-.308-.097-.606.168-1.195.106-1.792-.044-.097-.027-.193-.124-.325-.009.017.688.009 1.386.123 2.083.105.617.386.918 1.01 1.023.097.018.193 0 .281.071.053.203 0 .406 0 .609-.009.362.009.424.343.388.72-.07 1.44-.185 2.187-.282-.017-.097-.017-.115-.026-.124-.5-1.2-1.125-2.356-1.493-3.618z" fill="#060606"/><path d="M99.683 6.804c.193-1.341.36-2.674.29-4.015-.009-.177-.044-.344-.07-.521-.106-.574-.387-.785-.958-.75-.378.026-.764.035-1.142.062-.536.026-1.063.061-1.696.097 1.634 1.474 2.487 3.38 3.576 5.127zM76.455 4.007c.711.15 1.423.026 2.126-.045.202-.017.149-.176.131-.29-.087-.468-.21-.936-.28-1.404-.053-.38-.247-.538-.616-.582-1.37-.168-2.74-.203-4.199-.195.237.46.5.795.73 1.157.5.776 1.238 1.173 2.108 1.359zm-7.08 8.481c.246.202.5.361.852.405-.009-.511-.097-.962-.29-1.376-.43-.927-.94-1.81-1.555-2.621-.518-.689-1.283-1.05-2.047-1.483a1.95 1.95 0 00-.026.256c.044 1.5-.167 3.01.237 4.483.009-.009.035-.026.044-.053.088-.247.105-.547.474-.565.123-.009.08-.15.08-.238 0-.45-.01-.891-.01-1.341v-.75c.115-.062.132.008.15.035.659 1.015 1.019 2.197 1.88 3.089.026 0 .158.114.21.159zm5.227 6.432c.307-.14.623-.238.966-.229.22.009.334-.07.264-.309-.123-.467-.036-.918.07-1.367.052-.248.123-.486.202-.795-.334.256-.668.247-.993.23a19.006 19.006 0 01-.949-.07 5.802 5.802 0 00-1.66.079c-.395.07-.474.211-.343.59a50 50 0 00.58 1.572c.044.114.07.264.22.282.545.08 1.098.265 1.643.018zm19.511-.564a.741.741 0 00.633-.141c.263-.212.553-.203.86-.142.141.027.282.053.413.115.22.106.3.009.378-.194.29-.706.554-1.43.922-2.091.211-.38.229-.724.176-1.227-1.115 1.094-2.39 1.482-3.892 1.174.036.661.044 1.28.027 1.897-.018.388.105.547.483.609zm-26.531 1.042c.685.22 1.362.273 2.064.079.097-.026.167-.08.185-.185.061-.742.465-1.342.826-1.96.035-.061.096-.123.044-.22-1.125.062-2.188-.318-3.295-.494v2.488c0 .133.027.247.176.292z" fill="#060606"/><path d="M67.047 11.773c-.115-.018-.15.088-.167.185l-.08.37c-.026.115-.087.256-.193.239-.36-.044-.272.194-.272.388v.477c-.009.273-.07.617-.158.909-.044.079-.229.476-.281.556-.115.167-.29.344-.202.59l.044.045a.43.43 0 00.088-.212c0-.026.017-.053.035-.07l-.018.026c.009-.018.018-.027.026-.044.01-.018.01-.027.018-.044.009-.018.009-.027.017-.044-.008-.071.088-.31.176-.512.088-.088.281-.283.43-.256.15.018.3.115.493.053.149-.812.158-1.633.166-2.462-.017-.089-.035-.186-.122-.194z" fill="#060606"/><path d="M66.669 14.64c-.176-.043-.334-.087-.43.142-.053.133-.045.37-.168.424-.035.062-.07.132-.114.194v.018-.01c-.044.08-.088.15-.14.213 0 0 .008 0 .008.008-.061.16-.272.203-.28.424-.027.891-.097 1.783-.018 2.674.026.3.167.388.448.318.272-.071.395-.203.439-.495.053-.397.097-.794.15-1.182.114-.803.219-1.606.35-2.41.036-.229-.087-.273-.245-.317zm34.357-2.355c-.887.432-1.783.83-2.504 1.526-.061.053-.325.283-.395.327-.43.291-.43.706-.378 1.147.018.15.07.212.246.203a1.47 1.47 0 00.914-.344 26.304 26.304 0 001.757-1.677c.211-.22.369-.476.527-.732.097-.168.158-.345.114-.565-.105.044-.193.07-.281.115z" fill="#060606"/></svg>