<svg width="420" height="165" fill="none" xmlns="http://www.w3.org/2000/svg"><path d="M214.58 11.623c-.37 3.441-.144 6.842.536 10.221.103.557.37.742.865.845.947.206 1.894.33 2.882.33 2.348-.02 4.695 0 7.042 0 2.616 0 5.21-.165 7.825-.144.556 0 .824-.145.885-.722.165-1.525.351-3.029.556-4.554.062-.433-.061-.804-.267-1.175-1.359-2.431-2.698-4.904-4.201-7.254-.968-1.504-2.1-2.885-3.336-4.183-.7-.742-1.544-1.092-2.594-1.03-2.183.144-4.386.247-6.589.33-.515.02-.783.164-1.009.659-.7 1.607-1.462 3.173-2.059 4.822-.227.639-.474 1.237-.536 1.855zm-56.768 1.607c.679-.02 1.338 0 2.017 0 2.945.041 5.889-.062 8.813.392 4.386.68 8.793 1.01 13.199 1.442 1.256.124 2.533.186 3.789.289.329.02.576 0 .597-.412.144-1.71.165-3.4.041-5.09-.391-.145-.679-.021-.968 0-1.297.123-2.594.288-3.891.103-2.245-.31-4.242-1.134-5.58-3.092-.597-.865-1.215-1.69-1.751-2.596-.35-.577-.72-.845-1.42-.804-1.709.103-3.418.083-5.128.206-2.203.165-4.344.598-6.342 1.608-.988.494-1.853 1.112-2.285 2.184a69.064 69.064 0 00-1.297 3.442c-.186.556-.206 1.174-.289 1.751-.061.454.124.577.495.577zm106.803 3.36c-.206-.454-.556-.784-.906-1.114-2.574-2.534-5.127-5.09-7.701-7.624-.576-.577-1.091-1.216-1.379-2-.144-.37-.083-.638.391-.7a8.417 8.417 0 002.121-.639c.515-.227.988-.515 1.256-1.05.494-.949.535-2 .597-3.05.021-.372-.247-.413-.515-.413-.309 0-.494.103-.473.453.02.33.061.66.061 1.01.042 1.587-.185 1.875-1.791 2.02-.144.02-.288-.02-.453-.02-.268-.825.144-1.732-.474-2.597-1.215 1.195-2.285 2.493-3.974 2.967-1.647.474-3.315.721-5.147.948 1.853 2.865 2.615 5.853 2.45 9.068-.021.515 0 1.05.02 1.566.083 2.72 1.133 4.801 3.707 5.997.329.165.576.226.906.082.926-.412 1.853-.762 2.78-1.175.926-.432 1.832-.453 2.821-.165 1.132.35 2.306.619 3.438.928.33.082.639.144.968-.062 1.236-.824 1.915-3.132 1.297-4.43zm-63.913 16.96c-.412-.783-.515-1.608-.494-2.494.021-.968.309-1.896.432-2.988-.947.227-1.77-.186-2.656-.206-3.541-.041-7.083.082-10.604.288-1.256.062-2.533.103-3.789.35-.638.124-1.174.372-1.606.887a17.713 17.713 0 01-4.489 3.627c-2.265 1.298-4.406 2.782-6.568 4.224a3.427 3.427 0 00-.515.413c-.103.103-.082.288-.021.432.083.145.206.165.371.104 1.915-.701 3.892-.516 5.848-.35.597.04 1.194.06 1.791.082.597.02 1.05-.206 1.421-.722.618-.845 1.174-1.71 1.441-2.761a5.39 5.39 0 01.453-1.257c.392-.804.824-.948 1.627-.577 3.706 1.772 7.639 2.885 11.593 3.956a61.06 61.06 0 005.765 1.278c.309.062.659.103.618-.35-.165-1.32.02-2.7-.618-3.936z" fill="#fff"/><path d="M158.144 17.249c2.573 1.195 4.53 3.09 5.868 5.605.35.66.741 1.298 1.112 1.937.865 1.504 1.565 3.05 1.627 4.822.02.557.308.763.823.825 1.75.206 3.501.123 5.251.061.432-.02.576-.226.556-.638-.041-.701-.062-1.422-.083-2.123-.061-1.978-.123-3.936.309-5.894a6.731 6.731 0 000-3.009c-.267-1.195-.617-2.37-.906-3.565-.103-.391-.267-.597-.72-.68-3.068-.474-6.116-.824-9.225-.865h-3.686c-1.812 0-1.75 0-1.894 1.813-.124.927.185 1.36.968 1.71zm68.854 18.691c1.709-.907 3.335-1.978 4.056-4.06.679-1.999 1.75-3.874 2.615-5.811.371-.804.7-1.649.803-2.68h-1.215c-4.695.063-9.389.104-14.084.186-.968.02-1.936-.082-2.883-.268-.247-.04-.494-.226-.762 0 .33 1.484.824 2.906 1.359 4.349.433 1.195.227 1.071 1.462 1.071 4.18.02 8.34.02 12.52.041.308 0 .844-.185.864.186 0 .536-.576.288-.885.288-4.015.103-8.051.062-12.066-.02h-1.298c.721 1.772 1.38 3.441 2.06 5.09.144.35.288.68.453 1.01.35.721.926 1.112 1.709 1.298 1.832.392 3.665.165 5.292-.68zm-31.155-23.183c-.02 2.575 0 5.152 0 7.707 0 1.195-.165 1.175 1.112 1.154 2.43-.02 4.839-.02 7.269-.083.659-.02 1.482.289 1.915-.206.391-.432.123-1.216.123-1.834.041-2.205.041-4.41-.267-6.574a24.769 24.769 0 01-.248-5.234l.062-1.237c.041-1.215.227-1.195-1.194-1.133-1.236.041-2.45.103-3.686.144-1.853.083-3.706.165-5.662.268.041.412.041.7.103.99.391 2.019.494 4.018.473 6.038z" fill="#fff"/><path d="M174.84 30.252c2.327-.474 4.612-1.154 6.898-1.813.247-.062.515-.124.679-.35 1.257-1.567 2.595-3.092 2.986-5.152.35-1.835.515-3.69.68-5.544.144-1.71.288-1.422-1.277-1.566-3.356-.33-6.733-.618-10.11-.907-.494-.041-1.009-.185-1.586-.02.227.865.453 1.69.68 2.514.473 1.628.597 3.276.268 4.966-.536 2.617-.124 5.255-.186 7.872.391.124.68.062.968 0zm41.288-1.092c-1.894-.062-3.789-.206-5.683-.33-2.739-.164-5.457-.762-8.216-.844-.968-.021-.968-.062-1.153.845-.082.391-.144.803-.226 1.195-.247 1.195-.227 2.349.432 3.441.206.35.268.763.33 1.175.082.845.247 1.71.185 2.555-.041.618.226.742.782.722 1.792-.042 3.542-.33 5.313-.577 2.141-.31 4.262-.722 6.424-.68a27.892 27.892 0 005.519-.413c-1.051-2.143-1.833-4.266-2.677-6.368-.206-.515-.474-.7-1.03-.72zm23.758-.6c0-.018 0-.018 0 0h-.018.018zm11.574-7.148c-1.709-.845-2.595-2.288-3.027-4.06a10.709 10.709 0 01-.309-2.555c0-1.051.062-2.102-.021-3.133-.164-2.267-.864-4.369-2.141-6.264-.227-.35-.474-.619-.968-.598a76.894 76.894 0 01-5.765.02c-.124.35.02.578.103.825.37 1.01.72 2.04 1.07 3.05 1.318 3.957 1.709 8.016.968 12.117-.412 2.226-.947 4.451-1.421 6.657-.082.35-.226.7-.061 1.071a42.252 42.252 0 015.374-4.966c1.256-.969 2.677-1.422 4.242-1.505.597-.04 1.194-.02 1.791-.062.226-.02.535.104.618-.267-.021-.042-.041-.083-.062-.104-.124-.082-.247-.164-.391-.226zm-44.705-.845c.021.927.021.948.886.948 2.306-.02 4.612-.124 7.001.907-.083-.516-.103-.763-.145-1.01-.555-2.68-.7-5.379-.617-8.12.041-1.319.247-2.596.762-3.812.556-1.34 1.132-2.659 1.709-3.998.144-.33.391-.639.329-1.092-.453.04-.885.061-1.318.103-2.779.206-5.539.721-8.339.783-.618.02-.741.288-.741.824 0 2.267-.186 4.534.185 6.8.453 2.515.247 5.112.288 7.667z" fill="#fff"/><path d="M241.185 18.176c.329-4.596-.968-8.84-2.594-13.045-.083-.206-.145-.453-.412-.494-.762-.124-1.421-.557-2.286-.763.33.804.535 1.525.577 2.267.103 1.752.103 3.503-.083 5.255-.329 3.215-.782 6.43-1.05 9.665-.226 2.617-.947 5.028-2.141 7.336a69.856 69.856 0 00-1.565 3.339c-.103.227-.309.433-.185.7.205.062.72-.473.864-.597 1.318-1.236 2.842-2.143 4.469-2.906.844-.391 1.832-.66 2.429-1.298.639-.68.536-1.814.742-2.762.494-2.225 1.07-4.43 1.235-6.697zm-62.946 13.746c1.174-.7 2.182-1.608 3.233-2.844-1.277.35-2.327.639-3.357.927-3.356.969-6.774 1.381-10.275.99-1.585-.186-3.15-.495-4.241-1.814 0-.02-.021-.02-.021-.02-.329-.124-.432-.598-.885-.64.247 1.278.185 2.535.206 3.792.02 1.01-.206 1.876-.865 2.68-.803 1.01-1.503 2.101-2.306 3.255 2.182.516 4.241.969 6.342 1.237.453.062.885 0 1.338-.082.412-.083.762-.227 1.009-.619.576-.886 1.38-1.504 2.286-2.081 2.512-1.587 4.983-3.256 7.536-4.781zm21.871-4.514c.968 0 1.935.042 2.903.103 2.903.165 5.745.763 8.648.907 1.627.083 3.233.165 5.004.247-.638-1.854-1.277-3.565-1.689-5.316-.082-.35-.35-.474-.638-.557-1.441-.391-2.862-.804-4.365-.762-2.265.061-4.53.04-6.795.061-.968 0-1.936.042-2.904.042-.535 0-.823.103-.803.742.042 1.298.021 2.596 0 3.915-.02.433.145.598.639.618zm28.535 24.75c-.741-.989-1.112-2.081-1.339-3.276-.308-1.649-.35-3.339-.267-5.008.02-.247.144-.536-.062-.742-.309-.33-2.265-.597-2.677-.309-1.009.7-2.038.865-3.15.165-.494 3.441-.206 6.677.515 9.912.473 2.123.411 2.144 2.47 2.617.33.083.659.083.989.083h4.798c.267 0 .576.062.823-.062-.02-.474-.288-.762-.494-1.072-.535-.783-1.05-1.545-1.606-2.308zm-33.913-38.886c-.844.04-1.73-.02-2.553.103-1.73.247-3.439.618-5.313.062-.165 2.885-.37 5.584-.72 8.243.123.061.185.123.247.123l8.36-.123c.432 0 .576-.186.576-.598a417.631 417.631 0 010-7.254c0-.453-.185-.577-.597-.556zm3.605 8.943c-1.009.02-2.018 0-3.006.02l-8.36.125c-.886.02-.906.02-1.112.968-.247 1.154-.824 2.143-1.483 3.091-.329.474-.679.948-1.07 1.525 3.953-.37 7.762-.556 11.592-.577 1.154 0 2.307-.02 3.46 0 .412 0 .617-.123.597-.577-.021-1.34-.021-2.679 0-4.018-.021-.454-.206-.557-.618-.557zM179.702 44.43c-.061-.205-.206-.288-.412-.267-.658.062-1.359-.083-1.976.247-1.174.66-2.409.639-3.686.453-.268-.04-.556-.226-.844-.04-.041.329.164.576.267.844.948 2.246 2.451 4.163 3.769 6.182.576.887 1.194 1.484 2.326 1.299.206-.041.453-.02.639.103.02.783-.412 1.484-.33 2.329 2.08.206 4.057-.31 6.054-.701-.041-.186-.041-.289-.103-.392-1.997-3.318-4.551-6.285-5.704-10.056zm7.164-32.003c-.041.432.268.577.618.639.741.102 1.462.205 2.224.123 1.668-.185 3.315-.556 5.003-.453.494.02.618-.186.639-.66.061-1.916-.268-3.792-.536-5.667-.082-.556-.35-.721-.885-.7-1.524.061-3.068.061-4.551-.29-1.112-.267-2.224-.597-3.377-.906-.041.124-.082.165-.082.186.535 2.555 1.132 5.09.947 7.728zm-21.494 33.858c-.145-.474-.453-.309-.721-.226-1.421.391-2.8.247-4.201-.103-.226-.062-.453-.289-.762-.021.042 1.607.021 3.235.289 4.863.247 1.443.906 2.144 2.368 2.39.226.042.453 0 .659.166.123.474 0 .948 0 1.422-.021.845.02.989.803.906 1.688-.164 3.377-.432 5.127-.659-.041-.227-.041-.268-.062-.289-1.174-2.802-2.636-5.502-3.5-8.449z" fill="#fff"/><path d="M235.296 15.889c.453-3.132.844-6.244.679-9.377-.02-.412-.103-.803-.165-1.215-.247-1.34-.906-1.835-2.244-1.752-.885.062-1.791.082-2.677.144-1.256.062-2.491.144-3.974.227 3.83 3.441 5.827 7.893 8.381 11.973zm-54.441-6.533c1.668.35 3.336.061 4.983-.103.474-.042.35-.413.309-.68-.206-1.093-.494-2.185-.659-3.277-.124-.886-.577-1.257-1.441-1.36-3.213-.392-6.425-.474-9.843-.454.556 1.072 1.174 1.855 1.709 2.7 1.174 1.814 2.903 2.74 4.942 3.174zM164.258 29.16c.576.474 1.173.845 1.997.948-.021-1.195-.227-2.246-.68-3.215-1.009-2.164-2.203-4.224-3.644-6.12-1.215-1.608-3.007-2.453-4.798-3.462-.041.309-.062.453-.062.597.103 3.503-.391 7.027.556 10.469.021-.02.083-.062.103-.124.206-.577.247-1.277 1.112-1.319.288-.02.185-.35.185-.556 0-1.051-.02-2.081-.02-3.132v-1.752c.268-.144.309.02.35.082 1.544 2.37 2.388 5.132 4.406 7.213.062 0 .371.268.495.371zm12.25 15.023c.72-.33 1.462-.556 2.265-.536.515.02.782-.165.618-.721-.289-1.092-.083-2.143.164-3.194.124-.577.289-1.134.474-1.855-.783.598-1.565.577-2.327.536a40.626 40.626 0 01-2.224-.165c-1.318-.144-2.615-.041-3.891.185-.927.165-1.112.495-.803 1.381.432 1.237.885 2.452 1.359 3.668.102.268.164.618.514.66 1.277.185 2.574.618 3.851.041zm45.734-1.319c.535.104 1.05.021 1.483-.33.617-.494 1.297-.473 2.018-.329.329.062.658.124.967.268.515.247.7.02.886-.453.679-1.65 1.297-3.339 2.162-4.885.494-.886.535-1.69.412-2.864-2.615 2.555-5.601 3.462-9.122 2.74.082 1.546.103 2.989.062 4.431-.042.907.247 1.278 1.132 1.422zm-62.185 2.432c1.606.515 3.192.639 4.839.186.227-.062.391-.186.433-.433.144-1.731 1.091-3.133 1.935-4.575.083-.144.227-.289.103-.515-2.635.144-5.127-.742-7.721-1.154v5.811c0 .31.061.577.411.68z" fill="#fff"/><path d="M158.802 27.49c-.268-.04-.35.207-.391.434l-.186.865c-.061.268-.206.598-.453.557-.844-.104-.638.453-.638.906v1.113c-.021.639-.165 1.443-.371 2.123-.103.185-.535 1.113-.659 1.298-.267.392-.679.804-.473 1.38l.103.104c.144-.144.226-.515.206-.495 0-.062.041-.123.082-.165l-.041.062c.021-.041.041-.062.062-.103.02-.041.02-.062.041-.103.02-.041.02-.062.041-.103-.021-.165.206-.721.412-1.195.206-.206.659-.66 1.009-.598.35.041.7.268 1.153.124.35-1.896.371-3.813.391-5.75-.041-.206-.082-.432-.288-.453z" fill="#fff"/><path d="M157.916 34.188c-.412-.103-.783-.206-1.009.33-.124.31-.103.866-.392.99-.082.144-.164.308-.267.453v.041-.02a2.93 2.93 0 01-.33.494s.021 0 .021.02c-.144.371-.638.474-.659.99-.062 2.081-.227 4.163-.041 6.244.062.7.391.907 1.05.742.638-.165.926-.474 1.029-1.154.124-.928.227-1.855.35-2.762.268-1.875.515-3.75.824-5.626.083-.535-.206-.639-.576-.742zm80.532-5.502c-2.08 1.01-4.18 1.937-5.868 3.565-.144.124-.762.66-.927.763-1.009.68-1.009 1.648-.885 2.679.041.35.164.494.576.474.803-.042 1.503-.268 2.142-.804 1.441-1.237 2.8-2.556 4.118-3.916.494-.515.865-1.113 1.235-1.71.227-.392.371-.804.268-1.319-.247.103-.453.165-.659.268zM14.736 87.543v65.079H1.394v-65.08c0-5.955 6.136-10.84 13.342-10.84h26.027v10.84H14.738zm30.724 65.079v-75.92h26.027c7.207 0 13.343 4.885 13.343 10.84v27.12c0 4.658-6.136 8.47-13.343 8.47H58.803v29.511H45.46v-.021zm13.343-65.08v27.12h12.684v-27.12H58.803zm59.403-10.839c7.351 0 13.343 5.09 13.343 10.84v54.239c0 5.956-6.136 10.84-13.343 10.84h-12.684c-7.207 0-13.343-4.884-13.343-10.84v-54.24c0-5.75 6.012-10.84 13.343-10.84h12.684zm0 65.079v-54.24h-12.684v54.24h12.684zm35.398 0h14.022v-18.341h13.343v18.341c0 5.853-6.012 10.84-13.343 10.84h-14.022c-7.351 0-13.343-5.09-13.343-10.84v-54.24c0-5.75 6.012-10.84 13.343-10.84h14.022c7.351 0 13.343 4.988 13.343 10.84v18.342h-13.343V87.543h-14.022v54.239zm49.394 0h14.023v-18.341h13.343v18.341c0 5.853-6.013 10.84-13.343 10.84h-14.023c-7.351 0-13.343-5.09-13.343-10.84v-54.24c0-5.75 6.013-10.84 13.343-10.84h14.023c7.351 0 13.343 4.988 13.343 10.84v18.342h-13.343V87.543h-14.023v54.239zm82.778-54.239v-10.84h13.343v10.84h12.684c7.207 0 13.343 4.884 13.343 10.84v34.93c0 4.554-6.013 8.47-13.343 8.47h-12.684v10.839h-13.343v-10.839h-12.684c-7.351 0-13.343-3.895-13.343-8.47v-34.93c0-5.956 6.136-10.84 13.343-10.84h12.684zm0 45.77v-34.93h-12.684v34.93h12.684zm26.027-34.93h-12.684v34.93h12.684v-34.93zm58.746-21.68v75.919c0 5.75-6.013 10.84-13.343 10.84h-26.027v-10.84h26.027v-10.84h-12.684c-7.207 0-13.343-4.987-13.343-10.963V76.703h13.343v54.116h12.684V76.703h13.343zm48.058 0v75.919c0 5.75-6.012 10.84-13.343 10.84h-26.027v-10.84h26.027v-10.839H392.58c-7.207 0-13.343-4.988-13.343-10.964V87.543c0-5.75 6.013-10.84 13.343-10.84h26.027zm-13.343 54.116V87.543H392.58v43.276h12.684z" fill="#fff"/></svg>