<svg width="698" height="487" fill="none" xmlns="http://www.w3.org/2000/svg"><mask id="a" style="mask-type:alpha" maskUnits="userSpaceOnUse" x="-232" y="0" width="930" height="487"><path transform="rotate(169.895 697.149 331.258)" fill="#D7E3CF" d="M697.149 331.258h883.891v336.097H697.149z"/></mask><g mask="url(#a)"><mask id="b" style="mask-type:alpha" maskUnits="userSpaceOnUse" x="281" y="65" width="443" height="335"><rect x="281.967" y="65.848" width="441.946" height="333.915" rx="8" fill="#D9D9D9"/></mask><g mask="url(#b)"><path d="M186.348 314.217a309.473 309.473 0 00194.782-18.613 309.854 309.854 0 00144.781-131.747A309.955 309.955 0 00562.861-28.4a309.644 309.644 0 00-85.639-175.974l33.037-86.179a395.291 395.291 0 01133.32 225.315 395.743 395.743 0 01-36.664 259.327 395.63 395.63 0 01-190.572 179.623 395.137 395.137 0 01-260.91 21.15l-32.529 84.852-93.847 4.681 105.657-275.617a232.211 232.211 0 01-82.72-88.672l75.018-41.105a145.048 145.048 0 0065.432 64.011 145.016 145.016 0 0090.729 12.073 145.18 145.18 0 0079.929-44.669 145.302 145.302 0 0037.327-83.638 145.21 145.21 0 00-20.126-89.33 145.04 145.04 0 00-69.571-59.483 145.03 145.03 0 00-91.337-5.967 145.204 145.204 0 00-76.762 49.921l175.17 67.152-97.93 54.288-194.53-74.573c14.652-47.113 51.762-129.273 136.77-167.241a230.218 230.218 0 01134.94-16.405l28.587-74.569a309.497 309.497 0 00-194.777 18.647A309.874 309.874 0 00-13.899-139.019 309.982 309.982 0 00-50.833 53.238 309.665 309.665 0 0034.81 229.207L1.781 315.37A395.275 395.275 0 01-131.588 90.06a395.721 395.721 0 0136.645-259.35A395.614 395.614 0 0195.643-348.926a395.112 395.112 0 01260.932-21.131l45.877-119.672 66.67 66.215-32.288 84.224-30.927 80.677-28.586 74.569a230.727 230.727 0 0197.284 122.54 231.022 231.022 0 01-3.208 156.496A231.025 231.025 0 01369.17 213.53a230.736 230.736 0 01-154.267 26.106l-28.587 74.569.032.012z" fill="#BEBEBE" fill-opacity=".17"/></g></g></svg>