<svg width="891" height="338" fill="none" xmlns="http://www.w3.org/2000/svg"><mask id="a" style="mask-type:alpha" maskUnits="userSpaceOnUse" x="0" y="0" width="891" height="338"><path fill="#D9D9D9" d="M.285 0h890v338h-890z"/></mask><g mask="url(#a)"><path d="M525.304 116.459a319.23 319.23 0 00-201.171-16.349 319.617 319.617 0 00-170.869 107.587 319.73 319.73 0 00-72.317 188.55 319.404 319.404 0 0055.12 194.201l-49.145 81.536C27.577 600.885-5.79 511.68-7.688 419.049a408.208 408.208 0 0184.164-256.712A408.095 408.095 0 01302.51 14.419a407.58 407.58 0 01268.783 25.74l48.389-80.28 96.149 12.23-157.175 260.768a239.523 239.523 0 0167.955 105.018l-83.62 28.165a149.593 149.593 0 00-144.813-105.525 149.762 149.762 0 00-89.252 30.896 149.881 149.881 0 00-53.042 78.179 149.789 149.789 0 004.271 94.358 149.61 149.61 0 0059.885 72.995 149.6 149.6 0 0091.672 22.59A149.78 149.78 0 00498.7 522.75l-165.734-99.895 109.274-37.406 184.049 110.934c-23.405 45.193-75.959 121.91-169.156 145.082a237.474 237.474 0 01-140.002-7.762l-42.524 70.551a319.242 319.242 0 00201.17 16.315A319.63 319.63 0 00646.63 612.961a319.747 319.747 0 0072.301-188.553 319.426 319.426 0 00-55.126-194.196l49.136-81.521c59.365 71.092 92.75 160.3 94.661 252.939a408.197 408.197 0 01-84.15 256.739 408.078 408.078 0 01-226.051 147.929 407.565 407.565 0 01-268.802-25.764l-68.245 113.224-55.72-79.307 48.03-79.687 46.008-76.329 42.524-70.552a238.003 238.003 0 01-76.615-142.045 238.296 238.296 0 0131.58-158.342 238.3 238.3 0 01125.264-101.875 237.996 237.996 0 01161.383 1.408l42.525-70.552-.029-.018z" fill="#76AB55" fill-opacity=".2"/></g></svg>