<svg width="40" height="25" fill="none" xmlns="http://www.w3.org/2000/svg"><path d="M27.902 12.025v5.4h3.077v-3.2h3.487c1.467-.01 2.713-.925 3.185-2.2h-9.749z" fill="#37A72E"/><path d="M27.492 7.575c.18 2.205 2.323 3.95 4.939 3.95h5.348c.041-.2.062-.41.062-.625 0-1.83-1.513-3.31-3.385-3.325h-6.964z" fill="url(#paint0_linear_152_1239)"/><path d="M22.938 11.47v-.005.005a.185.185 0 01.165-.095c.102 0 .179.08.184.175v5.825h3.077v-9.8h-3.077c-.39.015-.83.29-.995.635l-2.446 5.12a.304.304 0 01-.026.06.208.208 0 01-.169.085.203.203 0 01-.205-.2v-5.7H16.37v9.8h3.077c.385-.02.815-.295.98-.635l2.512-5.255c-.005-.005 0-.01 0-.015zm-11.487.17l-1.8 5.735H7.436l-1.795-5.74a.199.199 0 00-.2-.16c-.113 0-.2.09-.2.195v5.7H2.164v-9.8H5.59c.564 0 1.159.43 1.323.955L8.41 13.3c.077.24.195.235.272 0l1.497-4.775c.165-.53.76-.955 1.323-.955h3.426v9.8h-3.077v-5.705a.198.198 0 00-.2-.195.207.207 0 00-.2.17z" fill="#37A72E"/><defs><linearGradient id="paint0_linear_152_1239" x1="27.493" y1="9.55" x2="37.84" y2="9.55" gradientUnits="userSpaceOnUse"><stop stop-color="#00A0E5"/><stop offset="1" stop-color="#0077C3"/></linearGradient></defs></svg>