<svg width="40" height="25" fill="none" xmlns="http://www.w3.org/2000/svg"><path d="M15.036 17.14l1.71-9.804h2.737L17.77 17.14h-2.735zm12.62-9.593a7.218 7.218 0 00-2.451-.411c-2.704 0-4.609 1.33-4.625 3.235-.015 1.409 1.36 2.195 2.398 2.664 1.065.48 1.423.787 1.417 1.216-.006.657-.85.957-1.637.957-1.095 0-1.677-.149-2.575-.514l-.353-.156-.384 2.194c.64.274 1.821.511 3.048.523 2.877 0 4.744-1.314 4.765-3.35.01-1.114-.719-1.963-2.297-2.663-.957-.453-1.543-.756-1.536-1.215 0-.408.496-.843 1.567-.843a5.154 5.154 0 012.048.375l.245.113.37-2.125zm7.042-.211h-2.114c-.655 0-1.145.175-1.433.813l-4.064 8.984h2.874s.47-1.208.576-1.473l3.504.004c.082.344.333 1.47.333 1.47h2.54l-2.216-9.798zm-3.354 6.33c.226-.564 1.09-2.74 1.09-2.74-.016.026.225-.568.363-.936l.185.846.633 2.83h-2.271zm-18.631-6.33l-2.679 6.686-.285-1.359c-.5-1.566-2.053-3.263-3.79-4.112l2.45 8.573 2.895-.003 4.308-9.785h-2.9" fill="#0E4595"/><path d="M7.534 7.335H3.122l-.035.204c3.433.812 5.704 2.773 6.647 5.13l-.96-4.506c-.165-.62-.645-.806-1.24-.827" fill="#F2AE14"/></svg>