<svg width="40" height="25" fill="none" xmlns="http://www.w3.org/2000/svg"><path d="M36.733 12.5c0 5.4-4.482 9.778-10.011 9.778-5.529 0-10.011-4.377-10.011-9.777 0-5.4 4.482-9.778 10.011-9.778 5.53 0 10.011 4.377 10.011 9.778z" fill="#D9222A"/><path d="M18.988 18.709a9.716 9.716 0 01-.762-1.035h3.548c.213-.334.406-.68.577-1.036h-4.702a9.571 9.571 0 01-.424-1.035h5.549a9.615 9.615 0 00.29-5.173h-6.128c.078-.35.174-.696.29-1.036h5.547a9.748 9.748 0 00-.423-1.035h-4.7c.171-.356.364-.702.577-1.035h3.546a9.887 9.887 0 00-.763-1.035h-2.02A9.98 9.98 0 0120 5.254a10.11 10.11 0 00-6.722-2.532C7.748 2.722 3.267 7.1 3.267 12.5s4.482 9.778 10.011 9.778a10.11 10.11 0 006.723-2.532 9.94 9.94 0 001.011-1.037H18.99" fill="#0097D0"/><path d="M35.398 17.95a.32.32 0 01.324-.316.32.32 0 01.323.315.32.32 0 01-.323.316.32.32 0 01-.324-.316zm.324.24a.243.243 0 00.245-.24c0-.133-.11-.24-.245-.24a.243.243 0 00-.246.239c0 .133.11.24.246.24zm-.044-.102h-.066v-.277h.12c.025 0 .05 0 .072.014a.083.083 0 01.036.069c0 .032-.019.06-.049.072l.052.122h-.073l-.043-.11h-.049v.11zm0-.157h.037c.013 0 .028.001.04-.006a.039.039 0 00.017-.032.035.035 0 00-.016-.028c-.012-.006-.03-.005-.043-.005h-.035v.071zm-15.821-2.79a4.917 4.917 0 01-1.279.165c-1.395-.001-2.122-.622-2.122-1.809 0-1.386.925-2.406 2.18-2.406 1.028 0 1.684.572 1.684 1.468 0 .297-.044.586-.153.996h-2.482c-.088.58.346.834 1.083.834.442 0 .842-.078 1.284-.252l-.195 1.005zm-.667-2.404c0-.088.138-.71-.58-.724-.397 0-.681.258-.796.724h1.376zm1.508-.272c0 .512.295.866.966 1.13.513.205.594.264.594.447 0 .255-.227.371-.73.368a4.246 4.246 0 01-1.13-.158l-.18.935c.361.082.87.109 1.319.119 1.34 0 1.958-.429 1.958-1.355 0-.556-.258-.884-.894-1.128-.532-.207-.594-.253-.594-.44 0-.22.21-.333.621-.333.25 0 .59.023.914.06l.182-.938c-.33-.045-.83-.081-1.12-.081-1.42 0-1.91.624-1.906 1.374zm-4.922 2.774h-1.041l.024-.426c-.317.336-.74.492-1.314.492-.679 0-1.144-.453-1.144-1.105 0-.991.809-1.563 2.2-1.563.142 0 .324.01.51.03a.859.859 0 00.05-.261c0-.272-.219-.371-.804-.371a4.91 4.91 0 00-1.327.18l.177-.91c.625-.155 1.034-.214 1.497-.214 1.076 0 1.645.412 1.645 1.187.01.207-.065.622-.101.803-.043.264-.341 1.796-.372 2.158zm-.914-1.808a2.43 2.43 0 00-.28-.017c-.71 0-1.07.206-1.07.614 0 .255.176.415.45.415.51 0 .878-.416.9-1.012zm10.827 1.744a3.303 3.303 0 01-.896.13c-.637 0-.985-.317-.985-.884-.02-.156.135-.875.17-1.075.036-.201.588-3.132.588-3.132h1.24l-.188.97h.635l-.172.99h-.639s-.35 1.717-.35 1.848c0 .208.13.298.426.298.142 0 .251-.012.336-.037l-.165.892zm5.536-4.084c-.908 0-1.618.365-2.03.974l.358-.904c-.66-.236-1.084.101-1.468.58 0 0-.065.08-.129.153v-.711h-1.163c-.158 1.254-.436 2.526-.654 3.783l-.053.273h1.252c.118-.637.216-1.155.313-1.568.266-1.132.713-1.478 1.385-1.325-.155.325-.24.702-.24 1.12 0 1.011.563 1.84 1.96 1.84 1.41 0 2.432-.736 2.432-2.414 0-1.012-.68-1.801-1.963-1.801zm-.364 3.23c-.442.007-.71-.355-.71-.897 0-.642.39-1.367 1.02-1.367.506 0 .68.392.68.81 0 .914-.384 1.455-.99 1.455zm-19.143.918h-1.246l.74-3.81-1.704 3.81H8.372l-.208-3.788-.743 3.788H6.29l.963-4.956h1.948l.162 2.763 1.234-2.763H12.7l-.983 4.956z" fill="#000"/><path d="M33.284 14.618a.32.32 0 01.323-.316.32.32 0 01.324.316.32.32 0 01-.318.321.32.32 0 01-.329-.321zm.323.24a.243.243 0 00.246-.24c0-.133-.11-.24-.246-.24a.243.243 0 00-.246.24c0 .132.11.24.246.24zm-.044-.102h-.066v-.277h.12c.025 0 .05 0 .073.014a.083.083 0 01.036.07c0 .03-.019.06-.05.071l.053.122h-.074l-.043-.11h-.048v.11zm0-.157h.037c.014 0 .028.001.04-.005a.038.038 0 00.017-.032.034.034 0 00-.016-.028c-.011-.007-.03-.005-.042-.005h-.035v.07zm-13.392.237a4.961 4.961 0 01-1.28.164c-1.394-.001-2.121-.622-2.121-1.809 0-1.386.925-2.406 2.18-2.406 1.028 0 1.684.572 1.684 1.467 0 .298-.045.587-.153.997h-2.482c-.088.58.345.834 1.083.834.442 0 .841-.077 1.284-.251l-.195 1.004zm-.668-2.405c0-.087.138-.71-.58-.723-.396 0-.68.258-.796.723h1.376zm1.508-.272c0 .513.295.866.967 1.13.513.206.594.265.594.448 0 .254-.227.37-.73.367a4.239 4.239 0 01-1.13-.157l-.181.934c.362.082.87.11 1.32.12 1.34 0 1.958-.43 1.958-1.355 0-.557-.258-.885-.895-1.129-.532-.207-.594-.252-.594-.44 0-.22.211-.332.622-.332.25 0 .59.023.914.06l.181-.939c-.33-.045-.83-.08-1.119-.08-1.42 0-1.911.623-1.907 1.373zm-4.921 2.774h-1.042l.025-.425c-.317.335-.74.492-1.314.492-.679 0-1.144-.454-1.144-1.106 0-.991.808-1.563 2.199-1.563.143 0 .324.01.511.031a.852.852 0 00.05-.262c0-.271-.22-.371-.804-.371a4.918 4.918 0 00-1.328.18l.178-.909c.625-.155 1.034-.215 1.496-.215 1.077 0 1.646.412 1.646 1.187.009.207-.065.622-.102.804-.042.264-.34 1.796-.371 2.157zm-.915-1.808a2.398 2.398 0 00-.28-.017c-.709 0-1.069.206-1.069.614 0 .256.176.416.45.416.51 0 .878-.417.9-1.013zm10.828 1.744a3.316 3.316 0 01-.896.131c-.638 0-.986-.318-.986-.885-.02-.155.136-.875.171-1.075.036-.201.588-3.132.588-3.132h1.239l-.187.97h.635l-.173.99h-.638s-.35 1.717-.35 1.848c0 .208.13.298.426.298.141 0 .251-.012.336-.037l-.165.892zm6.161-2.308c0 .914-.383 1.455-.99 1.455-.442.006-.71-.355-.71-.897 0-.643.391-1.368 1.02-1.368.506 0 .68.393.68.81zm1.338.026c0-1.012-.681-1.802-1.963-1.802-1.476 0-2.43.96-2.43 2.375 0 1.012.563 1.84 1.961 1.84 1.41 0 2.432-.736 2.432-2.413zm-6.396-1.71c-.157 1.255-.436 2.526-.654 3.783l-.052.274h1.251c.451-2.427.602-3.119 1.547-2.875l.455-1.149c-.659-.236-1.083.101-1.467.58.034-.215.1-.423.084-.613h-1.164zm-15.074 4.057h-1.246l.74-3.81-1.705 3.81H8.685l-.208-3.789-.743 3.789h-1.13l.962-4.957h1.948l.103 3.069 1.371-3.069h2.026l-.982 4.957z" fill="#fff"/></svg>