<svg width="40" height="25" fill="none" xmlns="http://www.w3.org/2000/svg"><path d="M23.331 12.704c0 5.265-4.37 9.532-9.762 9.532-5.391 0-9.761-4.267-9.761-9.532s4.37-9.533 9.761-9.533c5.391 0 9.762 4.268 9.762 9.533z" fill="#D9222A"/><path d="M26.675 3.17a9.856 9.856 0 00-7.539 3.477h1.973c.27.321.518.658.744 1.01h-3.46a9.438 9.438 0 00-.563 1.01h4.585c.157.328.295.665.413 1.009h-5.412a9.25 9.25 0 00-.283 1.01h5.979a9.365 9.365 0 01-.284 5.046h-5.412c.118.344.256.681.413 1.01h4.586a9.465 9.465 0 01-.563 1.01h-3.46c.226.35.474.688.744 1.008h1.972a9.62 9.62 0 01-.986 1.01 9.858 9.858 0 006.553 2.467c5.392 0 9.762-4.268 9.762-9.533 0-5.264-4.37-9.533-9.762-9.533" fill="#EE9F2D"/><path d="M34.736 14.893c0-.17.14-.308.315-.308.174 0 .315.138.315.308 0 .17-.14.308-.315.308a.312.312 0 01-.315-.308zm.315.234c.132 0 .24-.105.24-.234a.237.237 0 00-.24-.234.237.237 0 00-.24.233c0 .13.108.235.24.235zm-.043-.099h-.064v-.27h.117c.024 0 .05 0 .07.013a.081.081 0 01.036.068c0 .03-.019.059-.048.07l.05.119h-.07l-.043-.107h-.047v.107zm0-.153h.036c.014 0 .028 0 .04-.006a.037.037 0 00.016-.03.034.034 0 00-.016-.028c-.011-.007-.029-.006-.041-.006h-.035v.07zM11.29 13.748a1.793 1.793 0 00-.236-.016c-.601 0-.905.2-.905.598 0 .245.148.4.38.4.431 0 .742-.4.761-.982zm.77 1.752h-.877l.02-.408c-.268.322-.625.476-1.111.476-.574 0-.968-.438-.968-1.075 0-.957.685-1.516 1.86-1.516.12 0 .275.011.432.03a.944.944 0 00.042-.254c0-.26-.185-.358-.68-.358a3.588 3.588 0 00-1.121.177l.146-.885c.528-.15.877-.208 1.269-.208.91 0 1.392.4 1.39 1.153.003.203-.032.452-.085.78-.092.57-.29 1.79-.316 2.088zm-3.38 0H7.62l.608-3.717L6.872 15.5H6.15l-.09-3.696-.637 3.696H4.43l.828-4.836h1.524l.093 2.707.93-2.707H9.5L8.68 15.5zm19.304-1.752a1.786 1.786 0 00-.236-.016c-.6 0-.904.2-.904.598 0 .245.148.4.38.4.431 0 .742-.4.76-.982zm.772 1.752h-.878l.02-.408c-.268.322-.626.476-1.111.476-.575 0-.968-.438-.968-1.075 0-.957.685-1.516 1.86-1.516.12 0 .274.011.432.03a.948.948 0 00.042-.254c0-.26-.185-.358-.68-.358a3.594 3.594 0 00-1.122.177l.148-.885c.528-.15.876-.208 1.267-.208.91 0 1.393.4 1.392 1.153.002.203-.033.452-.086.78-.092.57-.29 1.79-.316 2.088zm-11.986-.06c-.29.09-.516.128-.76.128-.543 0-.838-.304-.838-.864-.008-.174.078-.631.145-1.049.061-.367.46-2.683.46-2.683h1.053l-.123.595h.636l-.144.945h-.638c-.123.748-.297 1.68-.299 1.803 0 .203.111.292.363.292a.86.86 0 00.286-.038l-.14.871zm3.23-.032c-.361.108-.71.16-1.08.16-1.18-.001-1.795-.603-1.795-1.755 0-1.344.782-2.334 1.844-2.334.868 0 1.423.555 1.423 1.424 0 .288-.038.57-.13.967h-2.098c-.07.57.303.808.916.808.377 0 .717-.076 1.096-.248l-.176.978zm-.592-2.331c.006-.082.112-.702-.49-.702-.335 0-.575.25-.673.702h1.163zm-6.712-.267c0 .498.247.841.808 1.099.429.197.495.255.495.433 0 .246-.19.356-.609.356-.316 0-.61-.048-.949-.155l-.146.908c.241.052.456.1 1.103.117 1.118 0 1.635-.416 1.635-1.315 0-.54-.216-.857-.747-1.095-.445-.2-.495-.244-.495-.428 0-.212.175-.32.518-.32.208 0 .492.02.761.058l.151-.912a7.35 7.35 0 00-.932-.076c-1.186 0-1.596.604-1.593 1.33zm12.459-1.227c.294 0 .569.075.947.261l.173-1.05c-.155-.059-.702-.408-1.165-.408-.709 0-1.308.343-1.73.91-.615-.198-.868.204-1.178.604l-.275.063c.02-.132.04-.263.033-.396h-.973c-.133 1.217-.369 2.45-.553 3.669l-.048.264h1.06c.177-1.123.274-1.842.333-2.328l.399-.217c.06-.217.246-.29.62-.281-.05.266-.075.536-.074.806 0 1.287.71 2.088 1.851 2.088.294 0 .547-.038.937-.141l.186-1.103c-.35.17-.639.248-.9.248-.616 0-.989-.444-.989-1.178 0-1.065.554-1.811 1.346-1.811z" fill="#000"/><path d="M8.986 15.213h-1.06l.608-3.717-1.356 3.716h-.722l-.09-3.695-.638 3.696h-.992l.829-4.836h1.524l.043 2.994 1.028-2.994h1.646l-.82 4.835z" fill="#fff"/><path d="M34.127 10.665l-.235 1.397c-.29-.373-.601-.642-1.012-.642-.535 0-1.022.396-1.34.978-.444-.09-.903-.242-.903-.242v.003c.036-.325.05-.524.047-.591h-.974c-.132 1.217-.368 2.45-.552 3.668l-.049.264h1.06c.144-.908.253-1.662.334-2.26.362-.319.543-.598.91-.58a3.301 3.301 0 00-.258 1.276c0 .983.51 1.632 1.28 1.632.389 0 .686-.13.977-.434l-.05.366h1.003l.807-4.835h-1.045zM32.8 14.59c-.36 0-.542-.26-.542-.775 0-.773.34-1.32.822-1.32.364 0 .56.27.56.77 0 .78-.346 1.325-.84 1.325z" fill="#000"/><path d="M11.142 13.397a1.812 1.812 0 00-.236-.016c-.602 0-.907.201-.907.6 0 .244.149.4.38.4.433 0 .745-.401.763-.984zm.773 1.755h-.88l.02-.408c-.268.322-.626.476-1.112.476-.576 0-.97-.439-.97-1.076 0-.96.686-1.518 1.864-1.518.12 0 .274.01.432.03a.947.947 0 00.042-.256c0-.261-.185-.358-.681-.358a3.606 3.606 0 00-1.124.177l.147-.885c.53-.152.878-.21 1.27-.21.912 0 1.395.4 1.395 1.155a4.96 4.96 0 01-.087.781c-.092.57-.29 1.794-.316 2.092zm14.238-4.713l-.173 1.051c-.38-.186-.654-.261-.949-.261-.792 0-1.348.747-1.348 1.814 0 .735.373 1.18.99 1.18.262 0 .55-.08.902-.249l-.186 1.104c-.391.104-.644.142-.938.142-1.143 0-1.855-.802-1.855-2.091 0-1.732.983-2.942 2.39-2.942.464 0 1.012.192 1.167.252zm1.713 2.958a1.81 1.81 0 00-.237-.016c-.601 0-.906.201-.906.6 0 .244.149.4.38.4.433 0 .745-.401.763-.984zm.773 1.755h-.88l.02-.408c-.268.322-.627.476-1.113.476-.575 0-.97-.439-.97-1.076 0-.96.687-1.518 1.864-1.518.12 0 .275.01.433.03a.952.952 0 00.042-.256c0-.261-.185-.358-.681-.358a3.606 3.606 0 00-1.124.177l.147-.885c.53-.152.878-.21 1.27-.21.912 0 1.395.4 1.394 1.155.002.204-.032.453-.086.781-.091.57-.29 1.794-.316 2.092zm-12.006-.06c-.291.09-.518.128-.763.128-.543 0-.839-.305-.839-.865-.007-.175.079-.632.146-1.05.061-.369.46-2.689.46-2.689h1.055l-.123.597h.541l-.144.946h-.543c-.123.75-.298 1.682-.3 1.806 0 .204.112.292.364.292a.878.878 0 00.286-.037l-.14.872zm3.235-.032a3.68 3.68 0 01-1.083.16c-1.181-.001-1.797-.604-1.797-1.757 0-1.347.784-2.338 1.847-2.338.87 0 1.425.555 1.425 1.425 0 .29-.038.571-.13.97h-2.1c-.072.57.303.809.916.809a2.54 2.54 0 001.098-.249l-.176.98zm-.593-2.336c.006-.081.112-.703-.491-.703-.336 0-.576.251-.674.703h1.165zm-6.723-.266c0 .498.247.842.808 1.1.43.197.496.256.496.435 0 .245-.19.356-.61.356-.316 0-.61-.048-.95-.155l-.146.91c.24.05.456.098 1.104.116 1.12 0 1.638-.416 1.638-1.316 0-.542-.216-.86-.748-1.098-.445-.2-.497-.244-.497-.428 0-.213.177-.323.52-.323.208 0 .493.023.763.06l.15-.914a7.37 7.37 0 00-.933-.076c-1.188 0-1.599.605-1.595 1.333zm21.705 2.694h-1.004l.05-.367c-.292.304-.59.435-.98.435-.77 0-1.28-.65-1.28-1.635 0-1.31.79-2.414 1.726-2.414.412 0 .724.164 1.014.537l.236-1.4h1.047l-.809 4.844zm-1.566-.91c.494 0 .842-.548.842-1.328 0-.5-.198-.772-.563-.772-.481 0-.823.549-.823 1.323 0 .516.183.776.544.776zm-3.096-3.03c-.133 1.22-.37 2.455-.554 3.675l-.049.265h1.062c.38-2.409.472-2.88 1.067-2.82.095-.493.272-.925.403-1.143-.444-.09-.693.155-1.018.621.026-.201.073-.397.064-.597h-.975zm-8.74 0c-.133 1.22-.369 2.455-.553 3.675l-.049.265h1.063c.38-2.409.47-2.88 1.066-2.82.095-.493.272-.925.403-1.143-.444-.09-.693.155-1.018.621.026-.201.073-.397.064-.597h-.975zm13.869 3.631c0-.17.14-.308.315-.308.174 0 .316.137.316.307v.001c0 .17-.141.309-.316.309a.312.312 0 01-.316-.309zm.315.235c.133 0 .24-.105.24-.234a.237.237 0 00-.24-.235.238.238 0 00-.24.234c0 .13.108.235.24.235zm-.042-.1h-.065v-.27h.117c.024 0 .05 0 .07.013a.08.08 0 01.036.068c0 .03-.018.06-.048.07l.051.119h-.072l-.042-.107h-.047v.107zm0-.153h.035c.014 0 .028 0 .04-.005a.037.037 0 00.016-.032.035.035 0 00-.016-.028c-.01-.006-.03-.004-.041-.004h-.035v.069z" fill="#fff"/></svg>