<svg width="22" height="20" fill="none" xmlns="http://www.w3.org/2000/svg"><path d="M21.04 3.167L18.112.507A1.991 1.991 0 0016.77 0c-.506 0-.985.18-1.342.507L12.273 3.37a1.65 1.65 0 00-.558 1.222c0 .462.198.895.558 1.222l2.464 2.242a10.148 10.148 0 01-2.376 3.183 11.28 11.28 0 01-3.498 2.164L6.4 11.161a1.991 1.991 0 00-1.342-.507 2.034 2.034 0 00-.727.13c-.23.087-.44.216-.615.377L.558 14.023A1.65 1.65 0 000 15.246c0 .462.198.894.558 1.222l2.926 2.66c.61.555 1.452.872 2.316.872.179 0 .352-.012.528-.04 3.64-.545 7.254-2.307 10.172-4.957 2.915-2.655 4.851-5.94 5.456-9.251.173-.94-.173-1.907-.916-2.585zm-1.034 2.287c-.536 2.947-2.28 5.887-4.906 8.274-2.626 2.388-5.857 3.972-9.1 4.46a1.377 1.377 0 01-1.121-.33l-2.874-2.612 3.047-2.773 3.294 3 .025.023.594-.2a13.46 13.46 0 004.793-2.787 11.96 11.96 0 003.064-4.358l.22-.54-3.322-3.017 3.047-2.772 2.874 2.612c.297.27.434.65.365 1.02z" fill="#464646"/></svg>