<svg width="90" height="90" fill="none" xmlns="http://www.w3.org/2000/svg"><path d="M77.944 44.38V18.44a7.61 7.61 0 00-7.61-7.61h-57.11a7.62 7.62 0 00-7.61 7.61v38a7.62 7.62 0 007.61 7.61h31.66a20.06 20.06 0 1033.06-19.67zm-33.58 16.67h-31.14a4.62 4.62 0 01-4.61-4.61v-38a4.62 4.62 0 014.61-4.61h57.11a4.61 4.61 0 014.61 4.61v23.64a19.86 19.86 0 00-10.62-3.06 20.08 20.08 0 00-20.06 20.05 18.47 18.47 0 00.1 1.98zm20 15.08a17.09 17.09 0 01-16.35-12.08 15.01 15.01 0 01-.38-1.5c-.11-.494-.19-.995-.24-1.5a16.187 16.187 0 01-.12-2A17.07 17.07 0 0164.334 42a16.9 16.9 0 0110.61 3.75c.53.412 1.031.86 1.5 1.34a15.595 15.595 0 011.5 1.74 17 17 0 01-13.62 27.3h.04z" fill="#fff"/><path d="M73.484 56.58l-4.47 4.47-1.51 1.5-1.52 1.5-3.23 3.2a1.51 1.51 0 01-2.11 0l-5.78-5.78a1.269 1.269 0 01-.29-.42 1.47 1.47 0 01.29-1.7 1.49 1.49 0 012.12 0l4.72 4.72 1.52-1.5 1.51-1.5 6.67-6.6a1.5 1.5 0 012.11 2.13l-.03-.02zm-42.26-15.36a1.5 1.5 0 01-1.5 1.5h-14.66a1.5 1.5 0 110-3h14.66a1.5 1.5 0 011.5 1.5zm8.67 9a1.5 1.5 0 01-1.5 1.5h-23.67a1.5 1.5 0 110-3h23.67a1.5 1.5 0 011.5 1.5z" fill="#fff"/></svg>