<svg width="90" height="90" fill="none" xmlns="http://www.w3.org/2000/svg"><path d="M46.03 13.838a22.48 22.48 0 00-18.39 35.44c.31.45.64.88 1 1.3.36.42.68.81 1.05 1.19a22.36 22.36 0 0011.17 6.43c.51.13 1 .23 1.55.31.536.097 1.077.164 1.62.2.644.068 1.292.101 1.94.1h.06c.55 0 1.09 0 1.63-.07.54-.07 1.09-.09 1.62-.17a22.32 22.32 0 0011.74-5.49c.38-.35.76-.71 1.11-1.08.35-.37.73-.77 1.06-1.17a22.48 22.48 0 00-17.16-37v.01zm15.56 34.23c-.32.43-.66.84-1 1.24-.343.392-.707.766-1.09 1.12a19.4 19.4 0 01-11.83 5.34c-.53 0-1.07.07-1.62.07h-.35a15.112 15.112 0 01-1.51-.08h-.17c-.54-.06-1.07-.14-1.59-.24a19.37 19.37 0 01-11.13-6.48c-.356-.406-.69-.83-1-1.27a14.159 14.159 0 01-.93-1.4 19.5 19.5 0 1132.27 1.7h-.05z" fill="#fff"/><path d="M75.68 72.608l-8.94-15.57a29.23 29.23 0 10-42.77-1.36l-9.67 16.93a1.5 1.5 0 001.79 2.16l9.51-3.29 2.34 10.14a1.51 1.51 0 001.24 1.14h.23a1.52 1.52 0 001.3-.75l9.59-16.81a28.32 28.32 0 005.64.56c1.268.003 2.534-.08 3.79-.25l9.57 16.52a1.52 1.52 0 001.3.75h.22a1.491 1.491 0 001.24-1.14l2.34-10.14 9.51 3.29a1.5 1.5 0 001.79-2.16l-.02-.02zm-45.72 4.59l-1.86-8a1.51 1.51 0 00-.74-1 1.421 1.421 0 00-.73-.19 1.664 1.664 0 00-.49.08l-7.29 2.53 7.3-12.7a29.19 29.19 0 0011.15 6.49l-7.34 12.79zm19.81-14.78c-.54.09-1.084.15-1.63.18-.71.07-1.43.1-2.16.1a27.117 27.117 0 01-4.06-.31c-.52-.09-1.05-.18-1.56-.3s-1-.23-1.5-.38a26.1 26.1 0 01-11.18-6.48 19.2 19.2 0 01-1.09-1.12c-.35-.39-.71-.8-1-1.22a26.22 26.22 0 1139.62 1.42c-.35.38-.71.75-1.09 1.1-.38.35-.75.71-1.14 1a26.159 26.159 0 01-11.68 5.79c-.5.093-1.01.173-1.53.24v-.02zm14 5.66a1.49 1.49 0 00-1.22.11 1.47 1.47 0 00-.73 1l-1.86 8-7.09-12.33a29 29 0 0011.57-5.78l6.62 11.52-7.29-2.52z" fill="#fff"/><path d="M61.19 31.438a1.5 1.5 0 00-1.43-1h-9.19l-2.84-8.74a1.5 1.5 0 00-2.85 0l-2.84 8.74h-9.19a1.49 1.49 0 00-.88 2.71l7.43 5.4-2.84 8.74a.74.74 0 00-.05.25 1.46 1.46 0 00.6 1.43 1.48 1.48 0 001.76 0h.06l7.37-5.43 7.44 5.4.1.06a1.5 1.5 0 002.28-1.31 1.29 1.29 0 00-.07-.43l-.34-1.06-2.5-7.68 7.43-5.4a1.5 1.5 0 00.55-1.68zm-10.63 5.3a1.5 1.5 0 00-.54 1.67l1.75 5.39-4.58-3.33a1.52 1.52 0 00-1.77 0l-4.58 3.33 1.75-5.39a1.5 1.5 0 00-.54-1.67l-4.59-3.33h5.67a1.49 1.49 0 001.42-1l1.75-5.43 1.75 5.39a1.51 1.51 0 001.43 1h5.67l-4.59 3.37z" fill="#fff"/></svg>