<svg width="90" height="90" fill="none" xmlns="http://www.w3.org/2000/svg"><path d="M50.74 37.19a4.21 4.21 0 00-.94-1.3 4.591 4.591 0 00-1.34-.92 3.68 3.68 0 00-1.44-.3 3.46 3.46 0 00-1.4.3 3.93 3.93 0 00-1.25.9l-.61.62a4.22 4.22 0 00-.86 1.29 3.4 3.4 0 00-.26 1.41c.016.492.131.975.34 1.42a4.5 4.5 0 001 1.31c.382.384.833.693 1.33.91a3.6 3.6 0 002.83 0 4.13 4.13 0 001.27-.89l.6-.63a3.84 3.84 0 00.86-1.29 3.62 3.62 0 00.25-1.41 3.4 3.4 0 00-.38-1.42zm-2.18 2.75l-.61.62a2 2 0 01-1.4.7 2.27 2.27 0 01-2-2 2 2 0 01.66-1.42l.61-.63a1.939 1.939 0 011.39-.69 2 2 0 011.37.62 1.93 1.93 0 01.66 1.35 2 2 0 01-.68 1.45zm4.49 10.7a4.33 4.33 0 00-.94-1.3 4.42 4.42 0 00-1.34-.91 3.41 3.41 0 00-2.84 0 4.05 4.05 0 00-1.25.89l-.61.63a4.18 4.18 0 00-.86 1.28 3.46 3.46 0 00.09 2.84c.232.492.554.936.95 1.31.385.378.835.683 1.33.9a3.501 3.501 0 002.84 0 4.001 4.001 0 001.26-.89l.61-.62c.36-.373.648-.81.85-1.29.175-.452.26-.935.25-1.42a3.483 3.483 0 00-.34-1.42zm-2.18 2.75l-.61.63a2 2 0 01-1.4.69 1.93 1.93 0 01-1.37-3.38l.61-.63a2 2 0 011.39-.69 2.22 2.22 0 012 2 2 2 0 01-.62 1.38zm5.3-11.07L38.31 47.4l1.58 1.54 17.87-5.08-1.59-1.54zm-5.43-5.13a4.21 4.21 0 00-.94-1.3 4.591 4.591 0 00-1.34-.92 3.68 3.68 0 00-1.44-.3 3.46 3.46 0 00-1.4.3 3.93 3.93 0 00-1.25.9l-.61.62a4.22 4.22 0 00-.86 1.29 3.4 3.4 0 00-.26 1.41c.016.492.131.975.34 1.42a4.5 4.5 0 001 1.31c.382.384.833.693 1.33.91a3.6 3.6 0 002.83 0 4.13 4.13 0 001.27-.89l.6-.63a3.84 3.84 0 00.86-1.29 3.62 3.62 0 00.25-1.41 3.4 3.4 0 00-.38-1.42zm-2.18 2.75l-.61.62a2 2 0 01-1.4.7 2.27 2.27 0 01-2-2 2 2 0 01.66-1.42l.61-.63a1.939 1.939 0 011.39-.69 2 2 0 011.37.62 1.93 1.93 0 01.66 1.35 2 2 0 01-.68 1.45zm4.49 10.7a4.33 4.33 0 00-.94-1.3 4.42 4.42 0 00-1.34-.91 3.41 3.41 0 00-2.84 0 4.05 4.05 0 00-1.25.89l-.61.63a4.18 4.18 0 00-.86 1.28 3.46 3.46 0 00.09 2.84c.232.492.554.936.95 1.31.385.378.835.683 1.33.9a3.501 3.501 0 002.84 0 4.001 4.001 0 001.26-.89l.61-.62c.36-.373.648-.81.85-1.29.175-.452.26-.935.25-1.42a3.483 3.483 0 00-.34-1.42zm-2.18 2.75l-.61.63a2 2 0 01-1.4.69 1.93 1.93 0 01-1.37-3.38l.61-.63a2 2 0 011.39-.69 2.22 2.22 0 012 2 2 2 0 01-.62 1.38zm5.3-11.07L38.31 47.4l1.58 1.54 17.87-5.08-1.59-1.54zm-5.43-5.13a4.21 4.21 0 00-.94-1.3 4.591 4.591 0 00-1.34-.92 3.68 3.68 0 00-1.44-.3 3.46 3.46 0 00-1.4.3 3.93 3.93 0 00-1.25.9l-.61.62a4.22 4.22 0 00-.86 1.29 3.4 3.4 0 00-.26 1.41c.016.492.131.975.34 1.42a4.5 4.5 0 001 1.31c.382.384.833.693 1.33.91a3.6 3.6 0 002.83 0 4.13 4.13 0 001.27-.89l.6-.63a3.84 3.84 0 00.86-1.29 3.62 3.62 0 00.25-1.41 3.4 3.4 0 00-.38-1.42zm-2.18 2.75l-.61.62a2 2 0 01-1.4.7 2.27 2.27 0 01-2-2 2 2 0 01.66-1.42l.61-.63a1.939 1.939 0 011.39-.69 2 2 0 011.37.62 1.93 1.93 0 01.66 1.35 2 2 0 01-.68 1.45zm4.49 10.7a4.33 4.33 0 00-.94-1.3 4.42 4.42 0 00-1.34-.91 3.41 3.41 0 00-2.84 0 4.05 4.05 0 00-1.25.89l-.61.63a4.18 4.18 0 00-.86 1.28 3.46 3.46 0 00.09 2.84c.232.492.554.936.95 1.31.385.378.835.683 1.33.9a3.501 3.501 0 002.84 0 4.001 4.001 0 001.26-.89l.61-.62c.36-.373.648-.81.85-1.29.175-.452.26-.935.25-1.42a3.483 3.483 0 00-.34-1.42zm-2.18 2.75l-.61.63a2 2 0 01-1.4.69 1.93 1.93 0 01-1.37-3.38l.61-.63a2 2 0 011.39-.69 2.22 2.22 0 012 2 2 2 0 01-.62 1.38zm5.3-11.07L38.31 47.4l1.58 1.54 17.87-5.08-1.59-1.54z" fill="#fff"/><path d="M83.309 17.49a7.63 7.63 0 00-7.69-7.49l-22.45.24a7.66 7.66 0 00-5.38 2.31L12.15 49.26a7.61 7.61 0 00.16 10.76l22.77 22.11a7.55 7.55 0 005.29 2.15h.12a7.57 7.57 0 005.35-2.31l35.65-36.73a7.51 7.51 0 002.15-5.41l-.33-22.34zm-4 25.66l-35.66 36.73a4.568 4.568 0 01-3.23 1.4h-.07a4.58 4.58 0 01-3.21-1.3l-22.77-22.11a4.61 4.61 0 01-.1-6.52l35.65-36.71a4.592 4.592 0 013.25-1.4l22.46-.24h.05a4.62 4.62 0 014.6 4.54l.33 22.34a4.539 4.539 0 01-1.25 3.27h-.05z" fill="#fff"/><path d="M50.74 37.19a4.21 4.21 0 00-.94-1.3 4.591 4.591 0 00-1.34-.92 3.68 3.68 0 00-1.44-.3 3.46 3.46 0 00-1.4.3 3.93 3.93 0 00-1.25.9l-.61.62a4.22 4.22 0 00-.86 1.29 3.4 3.4 0 00-.26 1.41c.016.492.131.975.34 1.42a4.5 4.5 0 001 1.31c.382.384.833.693 1.33.91a3.6 3.6 0 002.83 0 4.13 4.13 0 001.27-.89l.6-.63a3.84 3.84 0 00.86-1.29 3.62 3.62 0 00.25-1.41 3.4 3.4 0 00-.38-1.42zm-2.18 2.75l-.61.62a2 2 0 01-1.4.7 2.27 2.27 0 01-2-2 2 2 0 01.66-1.42l.61-.63a1.939 1.939 0 011.39-.69 2 2 0 011.37.62 1.93 1.93 0 01.66 1.35 2 2 0 01-.68 1.45zm4.49 10.7a4.33 4.33 0 00-.94-1.3 4.42 4.42 0 00-1.34-.91 3.41 3.41 0 00-2.84 0 4.05 4.05 0 00-1.25.89l-.61.63a4.18 4.18 0 00-.86 1.28 3.46 3.46 0 00.09 2.84c.232.492.554.936.95 1.31.385.378.835.683 1.33.9a3.501 3.501 0 002.84 0 4.001 4.001 0 001.26-.89l.61-.62c.36-.373.648-.81.85-1.29.175-.452.26-.935.25-1.42a3.483 3.483 0 00-.34-1.42zm-2.18 2.75l-.61.63a2 2 0 01-1.4.69 1.93 1.93 0 01-1.37-3.38l.61-.63a2 2 0 011.39-.69 2.22 2.22 0 012 2 2 2 0 01-.62 1.38zm6.88-9.53l-17.87 5.08-1.58-1.54 17.87-5.08 1.58 1.54z" fill="#fff"/><path d="M74.17 38.09l-19-18.42a1.49 1.49 0 00-2.12 0L21.31 52.41a1.51 1.51 0 000 2.12l19 18.43c.283.27.658.42 1.05.42a1.488 1.488 0 001.08-.46L74.2 40.21a1.51 1.51 0 000-2.12h-.03zM41.31 69.76l-16.8-16.33 29.67-30.57L71 39.2 41.31 69.76zm34.48-52.98a4.79 4.79 0 10-6.68 6.868 4.79 4.79 0 006.68-6.868zm-1.55 3.45A1.79 1.79 0 0172.48 22a1.78 1.78 0 01-1.28-3 1.75 1.75 0 011.28-.54 1.79 1.79 0 011.78 1.76l-.02.01z" fill="#fff"/><path d="M56.17 42.32L38.31 47.4l1.58 1.54 17.87-5.08-1.59-1.54zm-5.43-5.13a4.21 4.21 0 00-.94-1.3 4.591 4.591 0 00-1.34-.92 3.68 3.68 0 00-1.44-.3 3.46 3.46 0 00-1.4.3 3.93 3.93 0 00-1.25.9l-.61.62a4.22 4.22 0 00-.86 1.29 3.4 3.4 0 00-.26 1.41c.016.492.131.975.34 1.42a4.5 4.5 0 001 1.31c.382.384.833.693 1.33.91a3.6 3.6 0 002.83 0 4.13 4.13 0 001.27-.89l.6-.63a3.84 3.84 0 00.86-1.29 3.62 3.62 0 00.25-1.41 3.4 3.4 0 00-.38-1.42zm-2.18 2.75l-.61.62a2 2 0 01-1.4.7 2.27 2.27 0 01-2-2 2 2 0 01.66-1.42l.61-.63a1.939 1.939 0 011.39-.69 2 2 0 011.37.62 1.93 1.93 0 01.66 1.35 2 2 0 01-.68 1.45zm4.49 10.7a4.33 4.33 0 00-.94-1.3 4.42 4.42 0 00-1.34-.91 3.41 3.41 0 00-2.84 0 4.05 4.05 0 00-1.25.89l-.61.63a4.18 4.18 0 00-.86 1.28 3.46 3.46 0 00.09 2.84c.232.492.554.936.95 1.31.385.378.835.683 1.33.9a3.501 3.501 0 002.84 0 4.001 4.001 0 001.26-.89l.61-.62c.36-.373.648-.81.85-1.29.175-.452.26-.935.25-1.42a3.483 3.483 0 00-.34-1.42zm-2.18 2.75l-.61.63a2 2 0 01-1.4.69 1.93 1.93 0 01-1.37-3.38l.61-.63a2 2 0 011.39-.69 2.22 2.22 0 012 2 2 2 0 01-.62 1.38z" fill="#fff"/></svg>