<svg width="90" height="90" fill="none" xmlns="http://www.w3.org/2000/svg"><path d="M88.692 47.59h-7.428c-1.08-2.419-4.04-8.968-5.72-11.845a7.303 7.303 0 00-2.59-2.82 7.219 7.219 0 00-3.65-1.11H58.409v-10.13a6.44 6.44 0 00-1.881-4.5 6.328 6.328 0 00-4.476-1.858H6.366a6.328 6.328 0 00-4.476 1.859 6.44 6.44 0 00-1.88 4.498V66.57c0 .364.143.714.398.972.256.257.602.402.963.402h5.866a9.317 9.317 0 003.324 4.848 9.182 9.182 0 005.544 1.865c2 0 3.944-.654 5.543-1.865a9.317 9.317 0 003.324-4.848h40.864a9.319 9.319 0 003.322 4.86 9.183 9.183 0 005.55 1.869 9.18 9.18 0 005.55-1.87 9.319 9.319 0 003.322-4.859h5.049c.361 0 .707-.145.963-.403a1.38 1.38 0 00.399-.971V48.964a1.38 1.38 0 00-.376-.95 1.357 1.357 0 00-.923-.424zM22.54 66.57a6.455 6.455 0 01-.409 1.374 6.546 6.546 0 01-2.397 2.89 6.461 6.461 0 01-7.156 0 6.545 6.545 0 01-2.397-2.89 6.71 6.71 0 01-.536-2.592.84.84 0 010-.156 6.585 6.585 0 011.986-4.479 6.472 6.472 0 014.511-1.835c1.683 0 3.3.658 4.511 1.835a6.585 6.585 0 011.986 4.479.844.844 0 010 .156c.009.408-.025.816-.1 1.218zm33.117-1.374H25.381a9.354 9.354 0 00-2.804-6.398 9.193 9.193 0 00-6.427-2.626 9.195 9.195 0 00-6.427 2.626 9.354 9.354 0 00-2.803 6.398H2.779V50.439h52.877v14.757zm0-17.505H2.78V21.683a3.68 3.68 0 011.083-2.555 3.616 3.616 0 012.55-1.054H52.07c.954 0 1.87.378 2.55 1.054a3.68 3.68 0 011.083 2.555l-.046 26.006zm11.152-13.1h2.588l.672.083a4.313 4.313 0 011.47.65 5.717 5.717 0 011.653 1.832c.545.916 1.263 2.327 1.998 3.838l1.335 2.748c.7 1.484 1.253 2.748 1.744 3.848h-11.46v-13zm-8.246 0h5.521v13.026H58.4l.163-13.026zm22.602 32.006a6.455 6.455 0 01-.408 1.375 6.554 6.554 0 01-2.4 2.895 6.47 6.47 0 01-7.168 0 6.555 6.555 0 01-2.4-2.895 6.455 6.455 0 01-.41-1.375c-.08-.4-.12-.809-.118-1.218a.844.844 0 010-.156c0-1.74.685-3.407 1.905-4.637a6.473 6.473 0 014.597-1.921c1.725 0 3.379.69 4.598 1.92a6.588 6.588 0 011.904 4.638.844.844 0 010 .156c.007.4-.027.798-.1 1.19v.028zm6.166-1.374h-3.323c0-2.47-.973-4.84-2.705-6.587a9.195 9.195 0 00-6.53-2.729c-2.45 0-4.799.982-6.53 2.729a9.358 9.358 0 00-2.706 6.587h-7.155V50.338h28.95v14.885z" fill="#fff"/></svg>