<svg width="91" height="90" fill="none" xmlns="http://www.w3.org/2000/svg"><path d="M78.705 35.673a1.52 1.52 0 00-1.21-.61h-1.94v-14.16a9.61 9.61 0 00-17.65-5.26 8.809 8.809 0 00-3.88-1.43 7.709 7.709 0 00-5.85 1.42c-1.66-1.82-4.72-3.57-9.28-2.65a10.35 10.35 0 00-7.5 6.59 7 7 0 00-8.3 3 3.201 3.201 0 00-.91-.28 5 5 0 00-4.19 1.74c-1.59 1.59-2.39 7.38-2.74 11h-2.19a1.51 1.51 0 00-1.44 1.93l4.37 14.63-1.87 25.5a1.51 1.51 0 001.5 1.61h59.33a1.489 1.489 0 001.1-.48 1.46 1.46 0 00.39-1.13l-1.86-25.5 4.36-14.63a1.49 1.49 0 00-.24-1.29zm-12.76-21.35a6.62 6.62 0 016.61 6.61v14.16h-13.22v-14.19c0-.571.078-1.14.23-1.69a5.74 5.74 0 01.63-1.56 6.58 6.58 0 015.75-3.33zm-15.88 13.71a9.84 9.84 0 016.27 1.43v5.6h-15.34c.23-1.11.49-2.47.69-3.82a15.52 15.52 0 018.38-3.21zm-10.57-12.11c5.18-1 7 2.36 7.17 2.74a1.51 1.51 0 002.136.645 1.53 1.53 0 00.574-.605c.1-.19 1.08-1.87 4.32-1.51a6 6 0 013 1.24 9.61 9.61 0 00-.32 2.47v5.15a13.241 13.241 0 00-6.51-1 18.47 18.47 0 00-7.8 2.37c0-2.19-.51-3.71-2.92-4.78a5 5 0 00-4 .24 7.518 7.518 0 00-1.2-1.65 7.72 7.72 0 015.55-5.31zm-19.38 10.26c.73-.73 1.33-.93 1.62-.89.29.04.38.21.55.53a1.48 1.48 0 001.5.78 1.51 1.51 0 001.28-1.11c0-.13.91-3.31 4-3.31.491-.002.979.082 1.44.25a3.66 3.66 0 011.35.92 4.89 4.89 0 011.08 2 1.502 1.502 0 002.33.88c.72-.51 2.07-1.1 2.63-.85 1.16.51 1.33.59 1 3.93 0 .13 0 .27-.05.4-.11 1.07-.31 2.23-.51 3.28v.06c-.14.74-.28 1.43-.42 2h-19.64c.45-4.33 1.23-8.19 1.84-8.87zm51.5 24.83a1.66 1.66 0 00-.06.54l1.78 24.17h-56.11l1.77-24.17a1.64 1.64 0 00-.06-.54l-3.87-13h60.42l-3.87 13z" fill="#fff"/><path d="M53.275 43.183h-15a3.61 3.61 0 00-3.61 3.61v4.44a3.61 3.61 0 003.61 3.61h15a3.61 3.61 0 003.61-3.61v-4.44a3.61 3.61 0 00-3.61-3.61zm.61 8a.61.61 0 01-.61.61h-15a.61.61 0 01-.61-.61v-4.44a.61.61 0 01.61-.61h15a.61.61 0 01.61.61v4.44zm15.692-29.099s-2.355.896-2.355 2.574c0 2.317-2.235 3.529-3.976 4.002l-.24.064c-.176.043-.346.072-.508.1h-.31a1.059 1.059 0 01-.68-.39 1.086 1.086 0 01-.223-.506 1.532 1.532 0 010-.179c0-.185.047-.368.134-.53a1.075 1.075 0 01.748-.524h.169c.318-.073.631-.166.938-.28l.38-.157c.207-.093.407-.198.6-.316.288-.178.53-.424.705-.717a1.07 1.07 0 00.155-.56c0-3.19 3.603-4.546 3.758-4.604.265-.095.556-.079.809.044s.448.343.541.613a1.09 1.09 0 01-.043.822 1.065 1.065 0 01-.602.551v-.007z" fill="#fff"/></svg>