<svg width="90" height="90" fill="none" xmlns="http://www.w3.org/2000/svg"><path d="M81.72 44.11h-15V11.5a1.5 1.5 0 00-1.5-1.5H30.16a1.5 1.5 0 00-1.5 1.5v32.61H11.5a1.5 1.5 0 00-1.5 1.5v34.23a1.5 1.5 0 001.5 1.5h70.22a1.5 1.5 0 001.5-1.5V45.61a1.5 1.5 0 00-1.5-1.5zm-14.39 3v10.34H61V47.11h6.33zM44.55 13h6.33v10.37h-6.33V13zm-12.89 0h9.89v11.84a1.5 1.5 0 001.5 1.5h9.29a1.5 1.5 0 001.5-1.5V13h9.89v31.22H31.66V13zm-5.78 34.11h6.34v10.34h-6.34V47.11zm19.23 31.26H13V47.11h9.88v11.84a1.5 1.5 0 001.5 1.5h9.34a1.5 1.5 0 001.5-1.5V47.11h9.89v31.26zm35.11 0H48.11V47.11H58v11.84a1.5 1.5 0 001.5 1.5h9.33a1.5 1.5 0 001.5-1.5V47.11h9.89v31.26z" fill="#fff"/></svg>