<svg width="734" height="940" viewBox="0 0 734 940" fill="none" xmlns="http://www.w3.org/2000/svg">
<path d="M327.056 194.281C265.503 202.668 208.41 230.184 164.335 272.702C120.259 315.221 91.5751 370.453 82.5818 430.119C73.5885 489.786 84.7704 550.673 114.452 603.654C144.133 656.636 190.714 698.859 247.214 723.993V807.089C168.409 780.679 101.219 729.028 56.7019 660.637C12.1853 592.247 -7.00544 511.191 2.28801 430.809C11.5815 350.428 48.8054 275.511 107.834 218.387C166.862 161.263 244.177 125.337 327.056 116.521V34.7038L406.882 0.523926V266.281C444.393 273.268 479.32 289.794 508.092 314.168L456.703 372.9C435.016 354.112 407.647 342.632 378.683 340.174C349.718 337.717 320.711 344.414 295.992 359.265C271.273 374.116 252.168 396.325 241.53 422.576C230.892 448.827 229.29 477.712 236.965 504.919C244.64 532.125 261.179 556.194 284.114 573.532C307.048 590.869 335.148 600.546 364.217 601.116C393.286 601.687 421.766 593.121 445.405 576.697C469.043 560.274 486.572 536.874 495.375 509.99H321.15L388.025 432.791H581.505C584.461 477.12 579.593 558.15 518.499 617.465C488.099 647.013 449.217 666.976 406.936 674.744V746.646C468.486 738.247 525.573 710.722 569.641 668.198C613.709 625.674 642.385 570.44 651.372 510.773C660.359 451.107 649.172 390.222 619.488 337.243C589.805 284.264 543.222 242.044 486.723 216.911V133.83C565.541 160.226 632.746 211.871 677.276 280.262C721.805 348.653 741.005 429.715 731.714 510.103C722.423 590.492 685.196 665.416 626.16 722.542C567.125 779.668 489.799 815.591 406.913 824.398V939.79L327.087 905.61V824.398V746.608V674.706C278.059 665.677 233.816 640.332 201.99 603.042C170.163 565.753 152.748 518.858 152.748 470.444C152.748 422.031 170.163 375.136 201.99 337.846C233.816 300.557 278.059 275.212 327.087 266.182V194.281H327.056Z" fill="#77A15D" fill-opacity="0.07"/>
</svg>
