<svg width="21" height="14" viewBox="0 0 21 14" fill="none" xmlns="http://www.w3.org/2000/svg">
<path fill-rule="evenodd" clip-rule="evenodd" d="M0 1C0 0.447715 0.447715 0 1 0H20C20.5523 0 21 0.447715 21 1C21 1.55228 20.5523 2 20 2H1C0.447715 2 0 1.55228 0 1ZM0 7C0 6.44772 0.447715 6 1 6H20C20.5523 6 21 6.44772 21 7C21 7.55228 20.5523 8 20 8H1C0.447715 8 0 7.55228 0 7ZM1 12C0.447715 12 0 12.4477 0 13C0 13.5523 0.447715 14 1 14H20C20.5523 14 21 13.5523 21 13C21 12.4477 20.5523 12 20 12H1Z" fill="#464646"/>
</svg>
