<svg width="28" height="25" viewBox="0 0 28 25" fill="none" xmlns="http://www.w3.org/2000/svg">
<path fill-rule="evenodd" clip-rule="evenodd" d="M1 0C0.447715 0 0 0.447715 0 1C0 1.55228 0.447715 2 1 2H2.99463L7.39471 18.2612C7.51269 18.6972 7.90831 19 8.36 19H10C8.34315 19 7 20.3431 7 22C7 23.6569 8.34315 25 10 25C11.6569 25 13 23.6569 13 22C13 20.3431 11.6569 19 10 19H22C20.3431 19 19 20.3431 19 22C19 23.6569 20.3431 25 22 25C23.6569 25 25 23.6569 25 22C25 20.3431 23.6569 19 22 19H24C24.5523 19 25 18.5523 25 18C25 17.4477 24.5523 17 24 17H9.12537L8.5842 15H24.25C24.7002 15 25.0948 14.6992 25.2142 14.2652L27.9642 4.26515C28.1393 3.62854 27.6603 3 27 3H5.33714L4.72529 0.738803C4.60731 0.302792 4.21169 0 3.76 0H1ZM5.87832 5L8.04654 13.013C8.09921 13.0045 8.15325 13 8.20833 13H23.4879L25.6879 5H5.87832ZM10 21C9.44772 21 9 21.4477 9 22C9 22.5523 9.44772 23 10 23C10.5523 23 11 22.5523 11 22C11 21.4477 10.5523 21 10 21ZM21 22C21 21.4477 21.4477 21 22 21C22.5523 21 23 21.4477 23 22C23 22.5523 22.5523 23 22 23C21.4477 23 21 22.5523 21 22Z" fill="white"/>
</svg>
