<svg width="24" height="24" viewBox="0 0 24 24" fill="none" xmlns="http://www.w3.org/2000/svg">
<path d="M23.4193 5.75144C23.047 4.90221 22.51 4.13265 21.8386 3.48583C21.1667 2.83709 20.3745 2.32154 19.505 1.96722C18.6035 1.59836 17.6365 1.40955 16.6602 1.41176C15.2906 1.41176 13.9544 1.78115 12.7931 2.4789C12.5153 2.64581 12.2514 2.82914 12.0014 3.02888C11.7513 2.82914 11.4874 2.64581 11.2096 2.4789C10.0484 1.78115 8.71211 1.41176 7.34251 1.41176C6.35628 1.41176 5.40062 1.59783 4.49774 1.96722C3.62542 2.32293 2.83921 2.83461 2.16414 3.48583C1.49183 4.13192 0.95477 4.90166 0.5834 5.75144C0.197245 6.63525 0 7.57378 0 8.53967C0 9.45084 0.188911 10.4003 0.563954 11.3662C0.877878 12.1734 1.32793 13.0107 1.903 13.8562C2.81421 15.1942 4.06713 16.5897 5.62287 18.0043C8.20094 20.3493 10.754 21.9691 10.8624 22.0348L11.5208 22.4507C11.8125 22.634 12.1875 22.634 12.4792 22.4507L13.1376 22.0348C13.246 21.9664 15.7963 20.3493 18.3771 18.0043C19.9328 16.5897 21.1858 15.1942 22.097 13.8562C22.672 13.0107 23.1249 12.1734 23.436 11.3662C23.8111 10.4003 24 9.45084 24 8.53967C24.0028 7.57378 23.8055 6.63525 23.4193 5.75144Z" fill="#76AB55"/>
</svg>
