<svg width="420" height="165" viewBox="0 0 420 165" fill="none" xmlns="http://www.w3.org/2000/svg">
<path d="M214.58 11.6228C214.21 15.0643 214.436 18.4646 215.116 21.8443C215.219 22.4007 215.486 22.5862 215.981 22.6892C216.928 22.8953 217.875 23.019 218.863 23.019C221.211 22.9983 223.558 23.019 225.905 23.019C228.521 23.019 231.115 22.8541 233.73 22.8747C234.286 22.8747 234.554 22.7304 234.615 22.1534C234.78 20.6284 234.966 19.1241 235.171 17.5991C235.233 17.1663 235.11 16.7954 234.904 16.4244C233.545 13.9927 232.206 11.5198 230.703 9.17046C229.735 7.66609 228.603 6.28536 227.367 4.98706C226.667 4.24518 225.823 3.89485 224.773 3.95667C222.59 4.10093 220.387 4.20397 218.184 4.2864C217.669 4.307 217.401 4.45126 217.175 4.94585C216.475 6.55326 215.713 8.11946 215.116 9.76809C214.889 10.4069 214.642 11.0046 214.58 11.6228Z" fill="white"/>
<path d="M157.812 13.2303C158.491 13.2097 159.15 13.2303 159.829 13.2303C162.774 13.2715 165.718 13.1684 168.642 13.6218C173.028 14.3019 177.435 14.6316 181.841 15.0644C183.097 15.188 184.374 15.2498 185.63 15.3529C185.959 15.3735 186.206 15.3529 186.227 14.9407C186.371 13.2303 186.392 11.5404 186.268 9.85057C185.877 9.70632 185.589 9.82996 185.3 9.85057C184.003 9.97422 182.706 10.1391 181.409 9.95361C179.164 9.64449 177.167 8.82018 175.829 6.86243C175.232 5.9969 174.614 5.17258 174.078 4.26584C173.728 3.68882 173.358 3.42091 172.658 3.46213C170.949 3.56517 169.24 3.54456 167.53 3.66821C165.327 3.83307 163.186 4.26584 161.188 5.27562C160.2 5.77021 159.335 6.38845 158.903 7.46006C158.45 8.59349 157.997 9.74753 157.606 10.9016C157.42 11.458 157.4 12.0762 157.317 12.6532C157.256 13.1066 157.441 13.2303 157.812 13.2303Z" fill="white"/>
<path d="M264.615 16.5893C264.409 16.136 264.059 15.8062 263.709 15.4765C261.135 12.9417 258.582 10.3864 256.008 7.8516C255.432 7.27458 254.917 6.63574 254.629 5.85264C254.485 5.4817 254.546 5.21379 255.02 5.15197C255.761 5.02832 256.461 4.82224 257.141 4.51313C257.656 4.28644 258.129 3.99793 258.397 3.46212C258.891 2.51416 258.932 1.46316 258.994 0.412158C259.015 0.0412157 258.747 0 258.479 0C258.17 0 257.985 0.103039 258.006 0.453373C258.026 0.783099 258.067 1.11283 258.067 1.46316C258.109 3.04997 257.882 3.33848 256.276 3.48273C256.132 3.50334 255.988 3.46212 255.823 3.46212C255.555 2.63781 255.967 1.73106 255.349 0.865531C254.134 2.06079 253.064 3.35908 251.375 3.83307C249.728 4.30705 248.06 4.55434 246.228 4.78103C248.081 7.64552 248.843 10.6337 248.678 13.8485C248.657 14.3637 248.678 14.8995 248.698 15.4147C248.781 18.1349 249.831 20.2163 252.405 21.4116C252.734 21.5765 252.981 21.6383 253.311 21.494C254.237 21.0819 255.164 20.7315 256.091 20.3194C257.017 19.8866 257.923 19.866 258.912 20.1545C260.044 20.5048 261.218 20.7727 262.35 21.0819C262.68 21.1643 262.989 21.2261 263.318 21.02C264.554 20.1957 265.233 17.8876 264.615 16.5893Z" fill="white"/>
<path d="M200.702 33.5497C200.29 32.7666 200.187 31.9423 200.208 31.0561C200.229 30.0876 200.517 29.1602 200.64 28.068C199.693 28.2947 198.87 27.8825 197.984 27.8619C194.443 27.8207 190.901 27.9443 187.38 28.1504C186.124 28.2122 184.847 28.2534 183.591 28.5007C182.953 28.6244 182.417 28.8717 181.985 29.3869C180.688 30.85 179.185 32.0453 177.496 33.0139C175.231 34.3122 173.09 35.7959 170.928 37.2385C170.742 37.3621 170.557 37.5064 170.413 37.6507C170.31 37.7537 170.331 37.9392 170.392 38.0834C170.475 38.2277 170.598 38.2483 170.763 38.1865C172.678 37.4858 174.655 37.6713 176.611 37.8361C177.208 37.8773 177.805 37.8979 178.402 37.9186C178.999 37.9392 179.452 37.7125 179.823 37.1973C180.441 36.3524 180.997 35.4868 181.264 34.4358C181.367 34.0031 181.511 33.5703 181.717 33.1787C182.109 32.375 182.541 32.2308 183.344 32.6017C187.05 34.374 190.983 35.4868 194.937 36.5584C196.831 37.0736 198.767 37.5064 200.702 37.8361C201.011 37.8979 201.361 37.9392 201.32 37.4858C201.155 36.1669 201.34 34.7862 200.702 33.5497Z" fill="white"/>
<path d="M158.144 17.2486C160.717 18.4438 162.674 20.3397 164.012 22.8539C164.362 23.5134 164.753 24.1522 165.124 24.791C165.989 26.2954 166.689 27.841 166.751 29.6133C166.771 30.1697 167.059 30.3758 167.574 30.4376C169.324 30.6437 171.075 30.5613 172.825 30.4994C173.257 30.4788 173.401 30.2727 173.381 29.8606C173.34 29.1599 173.319 28.4386 173.298 27.738C173.237 25.7596 173.175 23.8019 173.607 21.8441C173.834 20.8549 173.834 19.8452 173.607 18.8354C173.34 17.6401 172.99 16.4655 172.701 15.2702C172.598 14.8787 172.434 14.6726 171.981 14.5901C168.913 14.1162 165.865 13.7658 162.756 13.7246C161.52 13.7246 160.306 13.7246 159.07 13.7246C157.258 13.7246 157.32 13.7246 157.176 15.5381C157.052 16.4655 157.361 16.8982 158.144 17.2486Z" fill="white"/>
<path d="M226.998 35.94C228.707 35.0332 230.333 33.9616 231.054 31.8802C231.733 29.8812 232.804 28.0059 233.669 26.0688C234.04 25.2651 234.369 24.4202 234.472 23.3898C233.998 23.3898 233.628 23.3898 233.257 23.3898C228.562 23.4516 223.868 23.4928 219.173 23.5752C218.205 23.5958 217.237 23.4928 216.29 23.3073C216.043 23.2661 215.796 23.0806 215.528 23.3073C215.858 24.7911 216.352 26.213 216.887 27.6556C217.32 28.8508 217.114 28.7272 218.349 28.7272C222.529 28.7478 226.689 28.7478 230.869 28.7684C231.177 28.7684 231.713 28.5829 231.733 28.9539C231.733 29.4897 231.157 29.2424 230.848 29.2424C226.833 29.3454 222.797 29.3042 218.782 29.2218C218.39 29.2218 217.999 29.2218 217.484 29.2218C218.205 30.9941 218.864 32.6633 219.544 34.3119C219.688 34.6623 219.832 34.992 219.997 35.3217C220.347 36.043 220.923 36.4345 221.706 36.62C223.538 37.0116 225.371 36.7849 226.998 35.94Z" fill="white"/>
<path d="M195.843 12.7565C195.823 15.3325 195.843 17.9085 195.843 20.4638C195.843 21.6591 195.678 21.6385 196.955 21.6179C199.385 21.5973 201.794 21.5973 204.224 21.5354C204.883 21.5148 205.706 21.824 206.139 21.3294C206.53 20.8966 206.262 20.1135 206.262 19.4953C206.303 17.2902 206.303 15.0852 205.995 12.9213C205.727 11.1697 205.644 9.43861 205.747 7.68694C205.768 7.27479 205.789 6.86263 205.809 6.45047C205.85 5.2346 206.036 5.25521 204.615 5.31704C203.379 5.35825 202.165 5.42008 200.929 5.46129C199.076 5.54372 197.223 5.62615 195.267 5.72919C195.308 6.14135 195.308 6.42986 195.37 6.71837C195.761 8.73795 195.864 10.7369 195.843 12.7565Z" fill="white"/>
<path d="M174.84 30.2523C177.167 29.7783 179.452 29.0983 181.738 28.4388C181.985 28.377 182.253 28.3152 182.417 28.0885C183.674 26.5223 185.012 24.9973 185.403 22.9365C185.753 21.1024 185.918 19.2477 186.083 17.393C186.227 15.6825 186.371 15.9711 184.806 15.8268C181.45 15.4971 178.073 15.2086 174.696 14.9201C174.202 14.8788 173.687 14.7346 173.11 14.8994C173.337 15.765 173.563 16.5893 173.79 17.4136C174.263 19.0416 174.387 20.6903 174.058 22.3801C173.522 24.9973 173.934 27.6351 173.872 30.2523C174.263 30.376 174.552 30.3141 174.84 30.2523Z" fill="white"/>
<path d="M216.128 29.1602C214.234 29.0984 212.339 28.9541 210.445 28.8305C207.706 28.6656 204.988 28.068 202.229 27.9856C201.261 27.965 201.261 27.9237 201.076 28.8305C200.994 29.222 200.932 29.6342 200.85 30.0257C200.603 31.221 200.623 32.375 201.282 33.4673C201.488 33.8176 201.55 34.2298 201.612 34.6419C201.694 35.4868 201.859 36.3524 201.797 37.1973C201.756 37.8155 202.023 37.9392 202.579 37.9186C204.371 37.8774 206.121 37.5888 207.892 37.3416C210.033 37.0324 212.154 36.6203 214.316 36.6615C216.149 36.7027 217.961 36.5791 219.835 36.2493C218.784 34.1061 218.002 31.9835 217.158 29.8815C216.952 29.3663 216.684 29.1808 216.128 29.1602Z" fill="white"/>
<path d="M239.886 28.5607C239.886 28.5424 239.886 28.5424 239.886 28.5607C239.868 28.5607 239.868 28.5607 239.868 28.5607H239.886Z" fill="white"/>
<path d="M251.46 21.4118C249.751 20.5669 248.865 19.1244 248.433 17.3521C248.227 16.5072 248.124 15.6622 248.124 14.7967C248.124 13.7457 248.186 12.6947 248.103 11.6643C247.939 9.39745 247.239 7.29545 245.962 5.39952C245.735 5.04919 245.488 4.78129 244.994 4.80189C243.059 4.88433 241.123 4.88433 239.229 4.8225C239.105 5.17284 239.249 5.39952 239.332 5.64682C239.702 6.6566 240.052 7.687 240.402 8.69678C241.72 12.6535 242.111 16.7132 241.37 20.8142C240.958 23.0399 240.423 25.2655 239.949 27.4706C239.867 27.8209 239.723 28.1712 239.888 28.5422C241.535 26.7287 243.326 25.08 245.262 23.5757C246.518 22.6071 247.939 22.1537 249.504 22.0713C250.101 22.0301 250.698 22.0507 251.295 22.0095C251.521 21.9889 251.83 22.1125 251.913 21.7416C251.892 21.7003 251.872 21.6591 251.851 21.6385C251.727 21.5561 251.604 21.4737 251.46 21.4118Z" fill="white"/>
<path d="M206.755 20.5668C206.776 21.4942 206.776 21.5148 207.641 21.5148C209.947 21.4942 212.253 21.3911 214.642 22.4215C214.559 21.9063 214.539 21.6591 214.497 21.4118C213.942 18.7327 213.797 16.0331 213.88 13.2923C213.921 11.9733 214.127 10.6957 214.642 9.47979C215.198 8.14028 215.774 6.82138 216.351 5.48187C216.495 5.15214 216.742 4.84302 216.68 4.38965C216.227 4.43086 215.795 4.45147 215.362 4.49269C212.583 4.69877 209.823 5.21396 207.023 5.27579C206.405 5.2964 206.282 5.5643 206.282 6.1001C206.282 8.36697 206.096 10.6338 206.467 12.9007C206.92 15.4149 206.714 18.0115 206.755 20.5668Z" fill="white"/>
<path d="M241.185 18.1759C241.514 13.5803 240.217 9.33511 238.591 5.1311C238.508 4.92503 238.446 4.67773 238.179 4.63652C237.417 4.51287 236.758 4.0801 235.893 3.87402C236.223 4.67773 236.428 5.39901 236.47 6.14089C236.573 7.89256 236.573 9.64423 236.387 11.3959C236.058 14.6107 235.605 17.8256 235.337 21.061C235.111 23.6782 234.39 26.0893 233.196 28.3974C232.64 29.4896 232.125 30.6231 231.631 31.7359C231.528 31.9626 231.322 32.1687 231.446 32.4366C231.651 32.4984 232.166 31.9626 232.31 31.8389C233.628 30.6025 235.152 29.6957 236.779 28.9332C237.623 28.5417 238.611 28.2738 239.208 27.6349C239.847 26.9549 239.744 25.8214 239.95 24.8735C240.444 22.6478 241.02 20.4428 241.185 18.1759Z" fill="white"/>
<path d="M178.239 31.9218C179.413 31.2211 180.421 30.3144 181.472 29.0779C180.195 29.4282 179.145 29.7167 178.115 30.0053C174.759 30.9738 171.341 31.386 167.84 30.9944C166.255 30.809 164.69 30.4998 163.599 29.1809C163.599 29.1603 163.578 29.1603 163.578 29.1603C163.249 29.0367 163.146 28.5627 162.693 28.5215C162.94 29.7992 162.878 31.0563 162.899 32.3133C162.919 33.3231 162.693 34.1887 162.034 34.9924C161.231 36.0021 160.531 37.0944 159.728 38.2484C161.91 38.7636 163.969 39.217 166.07 39.4849C166.523 39.5467 166.955 39.4849 167.408 39.4025C167.82 39.32 168.17 39.1758 168.417 38.7842C168.993 37.8981 169.797 37.2798 170.703 36.7028C173.215 35.116 175.686 33.4468 178.239 31.9218Z" fill="white"/>
<path d="M200.11 27.4084C201.078 27.4084 202.045 27.4496 203.013 27.5114C205.916 27.6763 208.758 28.2739 211.661 28.4182C213.288 28.5006 214.894 28.583 216.665 28.6654C216.027 26.8107 215.388 25.1003 214.976 23.3486C214.894 22.9983 214.626 22.8746 214.338 22.7922C212.897 22.4007 211.476 21.9885 209.973 22.0297C207.708 22.0915 205.443 22.0709 203.178 22.0915C202.21 22.0915 201.242 22.1328 200.274 22.1328C199.739 22.1328 199.451 22.2358 199.471 22.8746C199.513 24.1729 199.492 25.4712 199.471 26.7901C199.451 27.2229 199.616 27.3878 200.11 27.4084Z" fill="white"/>
<path d="M228.645 52.1584C227.904 51.1692 227.533 50.077 227.306 48.8817C226.998 47.2331 226.956 45.5432 227.039 43.874C227.059 43.6267 227.183 43.3382 226.977 43.1321C226.668 42.8024 224.712 42.5345 224.3 42.823C223.291 43.5236 222.262 43.6885 221.15 42.9878C220.656 46.4294 220.944 49.6648 221.665 52.9002C222.138 55.0228 222.076 55.0435 224.135 55.5174C224.465 55.5999 224.794 55.5999 225.124 55.5999C226.73 55.5999 228.336 55.5999 229.922 55.5999C230.189 55.5999 230.498 55.6617 230.745 55.538C230.725 55.0641 230.457 54.7756 230.251 54.4664C229.716 53.6833 229.201 52.9208 228.645 52.1584Z" fill="white"/>
<path d="M194.732 13.2717C193.888 13.3129 193.002 13.2511 192.179 13.3747C190.449 13.622 188.74 13.993 186.866 13.4365C186.701 16.3216 186.496 19.0213 186.146 21.6797C186.269 21.7415 186.331 21.8033 186.393 21.8033C189.172 21.7621 191.973 21.7209 194.753 21.6797C195.185 21.6797 195.329 21.4942 195.329 21.0821C195.308 18.6709 195.308 16.2392 195.329 13.8281C195.329 13.3747 195.144 13.2511 194.732 13.2717Z" fill="white"/>
<path d="M198.337 22.2153C197.328 22.2359 196.319 22.2153 195.331 22.2359C192.551 22.2772 189.751 22.3184 186.971 22.3596C186.085 22.3802 186.065 22.3802 185.859 23.3282C185.612 24.4822 185.035 25.4714 184.376 26.4193C184.047 26.8933 183.697 27.3673 183.306 27.9443C187.259 27.5734 191.068 27.3879 194.898 27.3673C196.052 27.3673 197.205 27.3467 198.358 27.3673C198.77 27.3673 198.975 27.2436 198.955 26.7903C198.934 25.4508 198.934 24.1113 198.955 22.7717C198.934 22.3184 198.749 22.2153 198.337 22.2153Z" fill="white"/>
<path d="M179.702 44.4306C179.641 44.2246 179.496 44.1421 179.29 44.1627C178.632 44.2246 177.931 44.0803 177.314 44.41C176.14 45.0695 174.905 45.0489 173.628 44.8634C173.36 44.8222 173.072 44.6367 172.784 44.8222C172.743 45.1519 172.948 45.3992 173.051 45.6671C173.999 47.9134 175.502 49.8299 176.82 51.8495C177.396 52.7356 178.014 53.3333 179.146 53.1478C179.352 53.1066 179.599 53.1272 179.785 53.2508C179.805 54.0339 179.373 54.7346 179.455 55.5795C181.535 55.7856 183.512 55.2704 185.509 54.8788C185.468 54.6934 185.468 54.5903 185.406 54.4873C183.409 51.1694 180.855 48.2019 179.702 44.4306Z" fill="white"/>
<path d="M186.866 12.4266C186.825 12.8594 187.134 13.0036 187.484 13.0655C188.225 13.1685 188.946 13.2715 189.708 13.1891C191.376 13.0036 193.023 12.6327 194.711 12.7357C195.205 12.7563 195.329 12.5503 195.35 12.0763C195.411 10.1597 195.082 8.28443 194.814 6.40911C194.732 5.8527 194.464 5.68783 193.929 5.70844C192.405 5.77026 190.861 5.77026 189.378 5.41993C188.266 5.15203 187.154 4.8223 186.001 4.51318C185.96 4.63683 185.919 4.67805 185.919 4.69865C186.454 7.25403 187.051 9.7888 186.866 12.4266Z" fill="white"/>
<path d="M165.372 46.2853C165.227 45.8113 164.919 45.9762 164.651 46.0586C163.23 46.4502 161.851 46.3059 160.45 45.9556C160.224 45.8937 159.997 45.6671 159.688 45.935C159.73 47.5424 159.709 49.1704 159.977 50.7984C160.224 52.241 160.883 52.9417 162.345 53.1889C162.571 53.2302 162.798 53.1889 163.004 53.3538C163.127 53.8278 163.004 54.3018 163.004 54.7758C162.983 55.6207 163.024 55.7649 163.807 55.6825C165.495 55.5176 167.184 55.2497 168.934 55.023C168.893 54.7964 168.893 54.7551 168.872 54.7345C167.698 51.9319 166.236 49.2322 165.372 46.2853Z" fill="white"/>
<path d="M235.296 15.889C235.749 12.7566 236.14 9.6448 235.975 6.51241C235.955 6.10025 235.872 5.7087 235.81 5.29654C235.563 3.95703 234.904 3.46244 233.566 3.54487C232.681 3.60669 231.775 3.6273 230.889 3.68912C229.633 3.75095 228.398 3.83338 226.915 3.91581C230.745 7.35733 232.742 11.8086 235.296 15.889Z" fill="white"/>
<path d="M180.855 9.35565C182.523 9.70598 184.191 9.41747 185.838 9.25261C186.312 9.21139 186.188 8.84045 186.147 8.57255C185.941 7.48033 185.653 6.38811 185.488 5.2959C185.364 4.40976 184.911 4.03882 184.047 3.93578C180.834 3.54423 177.622 3.4618 174.204 3.4824C174.76 4.55401 175.378 5.33711 175.913 6.18204C177.087 7.99553 178.816 8.92288 180.855 9.35565Z" fill="white"/>
<path d="M164.258 29.1601C164.834 29.6341 165.431 30.005 166.255 30.108C166.234 28.9128 166.028 27.8618 165.575 26.8932C164.566 24.7294 163.372 22.6686 161.931 20.7727C160.716 19.1653 158.924 18.3203 157.133 17.3105C157.092 17.6197 157.071 17.7639 157.071 17.9082C157.174 21.4115 156.68 24.9355 157.627 28.377C157.648 28.3564 157.71 28.3152 157.73 28.2533C157.936 27.6763 157.977 26.9756 158.842 26.9344C159.13 26.9138 159.027 26.5841 159.027 26.378C159.027 25.327 159.007 24.2966 159.007 23.2456C159.007 22.6274 159.007 22.0298 159.007 21.4939C159.275 21.3497 159.316 21.5146 159.357 21.5764C160.901 23.9463 161.745 26.7077 163.763 28.7891C163.825 28.7891 164.134 29.057 164.258 29.1601Z" fill="white"/>
<path d="M176.508 44.183C177.228 43.8532 177.97 43.6265 178.773 43.6472C179.288 43.6678 179.555 43.4823 179.391 42.9259C179.102 41.8337 179.308 40.7827 179.555 39.7317C179.679 39.1546 179.844 38.5982 180.029 37.877C179.246 38.4746 178.464 38.454 177.702 38.4128C176.961 38.3715 176.22 38.3303 175.478 38.2479C174.16 38.1036 172.863 38.2067 171.587 38.4334C170.66 38.5982 170.475 38.928 170.784 39.8141C171.216 41.0506 171.669 42.2664 172.143 43.4823C172.245 43.7502 172.307 44.1005 172.657 44.1417C173.934 44.3272 175.231 44.76 176.508 44.183Z" fill="white"/>
<path d="M222.242 42.8645C222.777 42.9675 223.292 42.8851 223.725 42.5348C224.342 42.0402 225.022 42.0608 225.743 42.205C226.072 42.2669 226.401 42.3287 226.71 42.4729C227.225 42.7202 227.41 42.4936 227.596 42.0196C228.275 40.3709 228.893 38.6811 229.758 37.1355C230.252 36.2494 230.293 35.4456 230.17 34.271C227.555 36.8264 224.569 37.7331 221.048 37.0118C221.13 38.5574 221.151 40 221.11 41.4425C221.068 42.3493 221.357 42.7202 222.242 42.8645Z" fill="white"/>
<path d="M160.057 45.2962C161.663 45.8114 163.249 45.935 164.896 45.4817C165.123 45.4198 165.287 45.2962 165.329 45.0489C165.473 43.3178 166.42 41.9165 167.264 40.4739C167.347 40.3297 167.491 40.1854 167.367 39.9587C164.732 40.103 162.24 39.2168 159.646 38.8047C159.646 40.8243 159.646 42.7202 159.646 44.6161C159.646 44.9252 159.707 45.1931 160.057 45.2962Z" fill="white"/>
<path d="M158.802 27.4909C158.534 27.4496 158.452 27.6969 158.411 27.9236C158.349 28.2121 158.287 28.5006 158.225 28.7892C158.164 29.0571 158.019 29.3868 157.772 29.3456C156.928 29.2425 157.134 29.7989 157.134 30.2523C157.134 30.6233 157.134 30.9942 157.134 31.3651C157.113 32.004 156.969 32.8077 156.763 33.4878C156.66 33.6732 156.228 34.6006 156.104 34.786C155.837 35.1776 155.425 35.5898 155.631 36.1668C155.672 36.208 155.693 36.2286 155.734 36.2698C155.878 36.1256 155.96 35.7546 155.94 35.7752C155.94 35.7134 155.981 35.6516 156.022 35.6104L155.981 35.6722C156.002 35.631 156.022 35.6104 156.043 35.5691C156.063 35.5279 156.063 35.5073 156.084 35.4661C156.104 35.4249 156.104 35.4043 156.125 35.3631C156.104 35.1982 156.331 34.6418 156.537 34.1678C156.743 33.9617 157.196 33.5084 157.546 33.5702C157.896 33.6114 158.246 33.8381 158.699 33.6938C159.049 31.7979 159.07 29.8814 159.09 27.9442C159.049 27.7382 159.008 27.5115 158.802 27.4909Z" fill="white"/>
<path d="M157.916 34.1885C157.504 34.0854 157.133 33.9824 156.907 34.5182C156.783 34.8273 156.804 35.3837 156.515 35.5074C156.433 35.6516 156.351 35.8165 156.248 35.9608C156.248 35.9814 156.248 35.9814 156.248 36.002V35.9814C156.145 36.1668 156.042 36.3317 155.918 36.476C155.918 36.476 155.939 36.4759 155.939 36.4966C155.795 36.8675 155.301 36.9705 155.28 37.4857C155.218 39.5671 155.053 41.6485 155.239 43.7299C155.301 44.4306 155.63 44.6367 156.289 44.4718C156.927 44.3069 157.215 43.9978 157.318 43.3178C157.442 42.3904 157.545 41.4631 157.668 40.5563C157.936 38.681 158.183 36.8057 158.492 34.9304C158.575 34.3946 158.286 34.2915 157.916 34.1885Z" fill="white"/>
<path d="M238.448 28.6859C236.368 29.6957 234.268 30.623 232.58 32.251C232.436 32.3747 231.818 32.9105 231.653 33.0135C230.644 33.6936 230.644 34.6622 230.768 35.6926C230.809 36.0429 230.932 36.1871 231.344 36.1665C232.147 36.1253 232.847 35.8986 233.486 35.3628C234.927 34.1264 236.286 32.8074 237.604 31.4473C238.098 30.9321 238.469 30.3345 238.839 29.7369C239.066 29.3453 239.21 28.9332 239.107 28.418C238.86 28.521 238.654 28.5828 238.448 28.6859Z" fill="white"/>
<path d="M14.7365 87.5425V152.622H1.39355V87.5425C1.39355 81.5868 7.52967 76.7028 14.7365 76.7028H40.7635V87.5425H14.7365Z" fill="white"/>
<path d="M45.46 152.622V76.7028H71.487C78.6938 76.7028 84.8299 81.5868 84.8299 87.5425V114.662C84.8299 119.32 78.6938 123.132 71.487 123.132H58.8029V152.643H45.46V152.622ZM58.8029 87.5425V114.662H71.487V87.5425H58.8029Z" fill="white"/>
<path d="M118.206 76.7028C125.557 76.7028 131.549 81.7929 131.549 87.5425V141.782C131.549 147.738 125.413 152.622 118.206 152.622H105.522C98.3148 152.622 92.1787 147.738 92.1787 141.782V87.5425C92.1787 81.7929 98.1913 76.7028 105.522 76.7028H118.206ZM118.206 141.782V87.5425H105.522V141.782H118.206Z" fill="white"/>
<path d="M153.604 141.782H167.626V123.441H180.969V141.782C180.969 147.635 174.957 152.622 167.626 152.622H153.604C146.253 152.622 140.261 147.532 140.261 141.782V87.5425C140.261 81.7929 146.273 76.7028 153.604 76.7028H167.626C174.977 76.7028 180.969 81.6899 180.969 87.5425V105.884H167.626V87.5425H153.604V141.782Z" fill="white"/>
<path d="M202.998 141.782H217.021V123.441H230.364V141.782C230.364 147.635 224.351 152.622 217.021 152.622H202.998C195.647 152.622 189.655 147.532 189.655 141.782V87.5425C189.655 81.7929 195.668 76.7028 202.998 76.7028H217.021C224.372 76.7028 230.364 81.6899 230.364 87.5425V105.884H217.021V87.5425H202.998V141.782Z" fill="white"/>
<path d="M285.776 87.5426V76.7028H299.119V87.5426H311.803C319.01 87.5426 325.146 92.4266 325.146 98.3823V133.313C325.146 137.867 319.133 141.783 311.803 141.783H299.119V152.622H285.776V141.783H273.092C265.741 141.783 259.749 137.888 259.749 133.313V98.3823C259.749 92.4266 265.885 87.5426 273.092 87.5426H285.776ZM285.776 133.313V98.3823H273.092V133.313H285.776ZM311.803 98.3823H299.119V133.313H311.803V98.3823Z" fill="white"/>
<path d="M370.549 76.7028V152.622C370.549 158.372 364.536 163.462 357.206 163.462H331.179V152.622H357.206V141.782H344.522C337.315 141.782 331.179 136.795 331.179 130.819V76.7028H344.522V130.819H357.206V76.7028H370.549Z" fill="white"/>
<path d="M418.607 76.7028V152.622C418.607 158.372 412.595 163.462 405.264 163.462H379.237V152.622H405.264V141.783H392.58C385.373 141.783 379.237 136.795 379.237 130.819V87.5426C379.237 81.793 385.25 76.7028 392.58 76.7028H418.607ZM405.264 130.819V87.5426H392.58V130.819H405.264Z" fill="white"/>
</svg>
