<svg width="178" height="70" viewBox="0 0 178 70" fill="none" xmlns="http://www.w3.org/2000/svg">
<path d="M5.69263 37.4886V65.358H0V37.4886C0 34.9382 2.61791 32.8467 5.69263 32.8467H16.7968V37.4886H5.69263Z" fill="#060606"/>
<path d="M18.7998 65.358V32.8467H29.9039C32.9787 32.8467 35.5966 34.9382 35.5966 37.4886V49.1024C35.5966 51.0968 32.9787 52.7294 29.9039 52.7294H24.4924V65.3668H18.7998V65.358ZM24.4924 37.4886V49.1024H29.9039V37.4886H24.4924Z" fill="#060606"/>
<path d="M49.8366 32.8467C52.9728 32.8467 55.5292 35.0265 55.5292 37.4886V60.7161C55.5292 63.2665 52.9113 65.358 49.8366 65.358H44.4251C41.3503 65.358 38.7324 63.2665 38.7324 60.7161V37.4886C38.7324 35.0265 41.2976 32.8467 44.4251 32.8467H49.8366ZM49.8366 60.7161V37.4886H44.4251V60.7161H49.8366Z" fill="#060606"/>
<path d="M64.9377 60.7161H70.9203V52.8618H76.6129V60.7161C76.6129 63.2224 74.0477 65.358 70.9203 65.358H64.9377C61.8015 65.358 59.2451 63.1782 59.2451 60.7161V37.4886C59.2451 35.0265 61.8103 32.8467 64.9377 32.8467H70.9203C74.0565 32.8467 76.6129 34.9823 76.6129 37.4886V45.3429H70.9203V37.4886H64.9377V60.7161Z" fill="#060606"/>
<path d="M86.0129 60.7161H91.9955V52.8618H97.6881V60.7161C97.6881 63.2224 95.1229 65.358 91.9955 65.358H86.0129C82.8767 65.358 80.3203 63.1782 80.3203 60.7161V37.4886C80.3203 35.0265 82.8855 32.8467 86.0129 32.8467H91.9955C95.1317 32.8467 97.6881 34.9823 97.6881 37.4886V45.3429H91.9955V37.4886H86.0129V60.7161Z" fill="#060606"/>
<path d="M121.329 37.4886V32.8467H127.021V37.4886H132.433C135.508 37.4886 138.126 39.5802 138.126 42.1306V57.089C138.126 59.0393 135.56 60.7161 132.433 60.7161H127.021V65.358H121.329V60.7161H115.917C112.781 60.7161 110.225 59.0481 110.225 57.089V42.1306C110.225 39.5802 112.843 37.4886 115.917 37.4886H121.329ZM121.329 57.089V42.1306H115.917V57.089H121.329ZM132.433 42.1306H127.021V57.089H132.433V42.1306Z" fill="#060606"/>
<path d="M157.496 32.8467V65.358C157.496 67.8202 154.931 70 151.803 70H140.699V65.358H151.803V60.7161H146.392C143.317 60.7161 140.699 58.5804 140.699 56.0212V32.8467H146.392V56.0212H151.803V32.8467H157.496Z" fill="#060606"/>
<path d="M178 32.8467V65.358C178 67.8202 175.435 70 172.307 70H161.203V65.358H172.307V60.7161H166.896C163.821 60.7161 161.203 58.5804 161.203 56.0212V37.4886C161.203 35.0265 163.768 32.8467 166.896 32.8467H178ZM172.307 56.0212V37.4886H166.896V56.0212H172.307Z" fill="#060606"/>
<path d="M90.8451 4.97729C90.687 6.45107 90.7836 7.90719 91.0735 9.3545C91.1174 9.59277 91.2316 9.6722 91.4425 9.71632C91.8466 9.80457 92.2507 9.85752 92.6724 9.85752C93.6738 9.8487 94.6753 9.85752 95.6768 9.85752C96.7925 9.85752 97.8994 9.78692 99.0151 9.79575C99.2523 9.79575 99.3665 9.73397 99.3928 9.48687C99.4631 8.83382 99.5422 8.1896 99.63 7.53654C99.6564 7.35122 99.6037 7.19237 99.5158 7.03352C98.936 5.99217 98.365 4.93317 97.7237 3.92712C97.3108 3.28289 96.8276 2.69161 96.3005 2.13564C96.0018 1.81794 95.6417 1.66791 95.1936 1.69439C94.2624 1.75616 93.3224 1.80029 92.3825 1.83559C92.1628 1.84441 92.0486 1.90619 91.952 2.11799C91.6533 2.80634 91.3283 3.47704 91.0735 4.18304C90.9769 4.45662 90.8714 4.71254 90.8451 4.97729Z" fill="#060606"/>
<path d="M66.625 5.66578C66.9149 5.65695 67.196 5.66578 67.4859 5.66578C68.7422 5.68343 69.9984 5.6393 71.2459 5.83345C73.1171 6.12468 74.997 6.26588 76.877 6.4512C77.4129 6.50415 77.9575 6.53063 78.4934 6.57475C78.634 6.58358 78.7394 6.57475 78.7482 6.39825C78.8097 5.66578 78.8185 4.94213 78.7658 4.21847C78.5988 4.1567 78.4759 4.20965 78.3529 4.21847C77.7994 4.27142 77.246 4.34202 76.6925 4.2626C75.735 4.13022 74.8828 3.77722 74.3118 2.93885C74.057 2.5682 73.7935 2.2152 73.5651 1.8269C73.4157 1.5798 73.2576 1.46507 72.9589 1.48272C72.2298 1.52685 71.5006 1.51802 70.7715 1.57097C69.8315 1.64157 68.9179 1.8269 68.0657 2.25932C67.6441 2.47112 67.2751 2.73587 67.0906 3.19477C66.8973 3.68015 66.7041 4.17435 66.5372 4.66855C66.4581 4.90683 66.4493 5.17158 66.4142 5.41868C66.3878 5.61283 66.4669 5.66578 66.625 5.66578Z" fill="#060606"/>
<path d="M112.193 7.10413C112.105 6.90998 111.955 6.76878 111.806 6.62758C110.708 5.54211 109.619 4.44781 108.521 3.36233C108.275 3.11523 108.055 2.84165 107.932 2.5063C107.87 2.34745 107.897 2.23273 108.099 2.20625C108.415 2.1533 108.714 2.06505 109.004 1.93268C109.223 1.8356 109.425 1.71205 109.54 1.4826C109.75 1.07665 109.768 0.626576 109.794 0.1765C109.803 0.01765 109.689 0 109.575 0C109.443 0 109.364 0.0441251 109.373 0.19415C109.381 0.33535 109.399 0.476551 109.399 0.626576C109.417 1.3061 109.32 1.42965 108.635 1.49143C108.573 1.50025 108.512 1.4826 108.441 1.4826C108.327 1.1296 108.503 0.741301 108.239 0.37065C107.721 0.882501 107.264 1.43848 106.544 1.64145C105.841 1.84443 105.13 1.95033 104.348 2.0474C105.138 3.27408 105.463 4.55371 105.393 5.93041C105.384 6.15103 105.393 6.38048 105.402 6.60111C105.437 7.76601 105.885 8.65734 106.983 9.16919C107.124 9.23979 107.229 9.26626 107.37 9.20449C107.765 9.02799 108.16 8.87796 108.556 8.70146C108.951 8.51614 109.338 8.50731 109.759 8.63086C110.242 8.78089 110.743 8.89561 111.226 9.02799C111.367 9.06329 111.499 9.08976 111.639 9.00151C112.166 8.64851 112.456 7.66011 112.193 7.10413Z" fill="#060606"/>
<path d="M84.924 14.3673C84.7484 14.032 84.7044 13.679 84.7132 13.2995C84.722 12.8847 84.845 12.4876 84.8977 12.0199C84.4936 12.1169 84.1422 11.9404 83.7644 11.9316C82.2534 11.914 80.7424 11.9669 79.2402 12.0552C78.7043 12.0816 78.1597 12.0993 77.6238 12.2052C77.3515 12.2581 77.123 12.364 76.9386 12.5847C76.3851 13.2112 75.7438 13.7231 75.0235 14.1379C74.0571 14.6938 73.1435 15.3292 72.2211 15.947C72.142 15.9999 72.0629 16.0617 72.0014 16.1235C71.9575 16.1676 71.9663 16.247 71.9927 16.3088C72.0278 16.3706 72.0805 16.3794 72.1508 16.3529C72.9678 16.0529 73.8111 16.1323 74.6457 16.2029C74.9005 16.2206 75.1552 16.2294 75.41 16.2382C75.6648 16.247 75.858 16.15 76.0162 15.9293C76.2797 15.5675 76.5169 15.1969 76.6311 14.7468C76.675 14.5615 76.7365 14.3761 76.8244 14.2085C76.9913 13.8643 77.1758 13.8025 77.5184 13.9614C79.0997 14.7203 80.7776 15.1969 82.4643 15.6558C83.2725 15.8764 84.0983 16.0617 84.924 16.2029C85.0558 16.2294 85.2052 16.247 85.1876 16.0529C85.1173 15.4881 85.1964 14.8968 84.924 14.3673Z" fill="#060606"/>
<path d="M66.765 7.38652C67.8631 7.89837 68.6976 8.71027 69.2687 9.78692C69.418 10.0693 69.5849 10.3429 69.743 10.6165C70.112 11.2607 70.4107 11.9226 70.437 12.6815C70.4458 12.9198 70.5688 13.0081 70.7884 13.0345C71.5352 13.1228 72.2819 13.0875 73.0286 13.061C73.2131 13.0522 73.2746 12.9639 73.2658 12.7874C73.2482 12.4874 73.2394 12.1785 73.2306 11.8784C73.2043 11.0312 73.1779 10.1929 73.3624 9.3545C73.4591 8.9309 73.4591 8.49847 73.3624 8.06604C73.2482 7.55419 73.0989 7.05117 72.9759 6.53932C72.932 6.37164 72.8617 6.28339 72.6684 6.24809C71.3595 6.04512 70.0593 5.89509 68.7328 5.87744C68.2057 5.87744 67.6874 5.87744 67.1603 5.87744C66.3872 5.87744 66.4136 5.87744 66.3521 6.65404C66.2994 7.05117 66.4311 7.23649 66.765 7.38652Z" fill="#060606"/>
<path d="M96.1422 15.3907C96.8714 15.0024 97.5654 14.5435 97.8729 13.6521C98.1628 12.7961 98.6196 11.993 98.9885 11.1635C99.1467 10.8193 99.2872 10.4575 99.3311 10.0162C99.1291 10.0162 98.971 10.0162 98.8128 10.0162C96.8099 10.0427 94.8069 10.0604 92.804 10.0957C92.3911 10.1045 91.9782 10.0604 91.5741 9.98093C91.4687 9.96328 91.3632 9.88386 91.249 9.98093C91.3896 10.6163 91.6004 11.2253 91.8288 11.843C92.0133 12.3549 91.9255 12.3019 92.4526 12.3019C94.2359 12.3107 96.0104 12.3107 97.7938 12.3196C97.9256 12.3196 98.154 12.2401 98.1628 12.399C98.1628 12.6284 97.9168 12.5225 97.785 12.5225C96.0719 12.5667 94.3501 12.549 92.637 12.5137C92.4701 12.5137 92.3032 12.5137 92.0836 12.5137C92.3911 13.2727 92.6722 13.9875 92.9621 14.6935C93.0236 14.8435 93.0851 14.9847 93.1554 15.1259C93.3047 15.4348 93.5507 15.6025 93.8845 15.6819C94.6664 15.8496 95.4482 15.7525 96.1422 15.3907Z" fill="#060606"/>
<path d="M82.8505 5.4626C82.8417 6.56573 82.8505 7.66885 82.8505 8.76315C82.8505 9.275 82.7802 9.26618 83.3249 9.25735C84.3615 9.24853 85.3893 9.24853 86.4259 9.22205C86.707 9.21323 87.0584 9.3456 87.2429 9.1338C87.4098 8.94848 87.2956 8.61313 87.2956 8.34838C87.3132 7.4041 87.3132 6.45983 87.1814 5.5332C87.0672 4.78307 87.0321 4.04177 87.076 3.29165C87.0848 3.11515 87.0936 2.93865 87.1024 2.76214C87.1199 2.24147 87.199 2.25029 86.5928 2.27677C86.0658 2.29442 85.5474 2.32089 85.0203 2.33854C84.2297 2.37384 83.4391 2.40914 82.6045 2.45327C82.6221 2.62977 82.6221 2.75332 82.6484 2.87687C82.8153 3.74172 82.8593 4.59775 82.8505 5.4626Z" fill="#060606"/>
<path d="M73.8903 12.9553C74.883 12.7524 75.8581 12.4611 76.8332 12.1787C76.9386 12.1523 77.0529 12.1258 77.1231 12.0287C77.659 11.358 78.23 10.705 78.3969 9.82246C78.5463 9.03704 78.6166 8.24279 78.6868 7.44853C78.7483 6.71606 78.8098 6.83961 78.1422 6.77783C76.7102 6.63663 75.2695 6.51308 73.8288 6.38953C73.6179 6.37188 73.3983 6.31011 73.1523 6.38071C73.249 6.75136 73.3456 7.10436 73.4422 7.45736C73.6443 8.15454 73.697 8.86054 73.5564 9.58419C73.328 10.705 73.5037 11.8346 73.4774 12.9553C73.6443 13.0083 73.7673 12.9818 73.8903 12.9553Z" fill="#060606"/>
<path d="M91.5034 12.4872C90.6951 12.4607 89.8869 12.399 89.0787 12.346C87.9103 12.2754 86.7507 12.0195 85.5735 11.9842C85.1607 11.9754 85.1607 11.9577 85.0816 12.346C85.0464 12.5137 85.0201 12.6902 84.985 12.8579C84.8795 13.3697 84.8883 13.8639 85.1694 14.3316C85.2573 14.4817 85.2836 14.6582 85.31 14.8347C85.3451 15.1965 85.4154 15.5671 85.3891 15.929C85.3715 16.1937 85.4857 16.2467 85.7229 16.2378C86.4872 16.2202 87.2339 16.0966 87.9894 15.9907C88.903 15.8584 89.8079 15.6819 90.7303 15.6995C91.5121 15.7172 92.2852 15.6642 93.0846 15.523C92.6366 14.6052 92.3028 13.6962 91.9426 12.7961C91.8547 12.5755 91.7405 12.496 91.5034 12.4872Z" fill="#060606"/>
<path d="M101.641 12.2309C101.641 12.2225 101.641 12.2225 101.641 12.2309C101.633 12.2309 101.633 12.2309 101.633 12.2309H101.641Z" fill="#060606"/>
<path d="M106.579 9.1691C105.849 8.80727 105.472 8.18952 105.287 7.43057C105.199 7.06874 105.155 6.70692 105.155 6.33627C105.155 5.88619 105.182 5.43612 105.147 4.99487C105.076 4.02412 104.778 3.12397 104.233 2.31207C104.136 2.16204 104.031 2.04732 103.82 2.05614C102.994 2.09144 102.169 2.09144 101.36 2.06497C101.308 2.21499 101.369 2.31207 101.404 2.41797C101.562 2.85039 101.712 3.29164 101.861 3.72407C102.423 5.41847 102.59 7.15699 102.274 8.91317C102.098 9.86627 101.87 10.8194 101.668 11.7636C101.633 11.9137 101.571 12.0637 101.641 12.2225C102.344 11.4459 103.109 10.7399 103.934 10.0957C104.47 9.68095 105.076 9.4868 105.744 9.4515C105.999 9.43385 106.254 9.44267 106.508 9.42502C106.605 9.4162 106.737 9.46915 106.772 9.3103C106.763 9.29265 106.754 9.275 106.745 9.26617C106.693 9.23087 106.64 9.19557 106.579 9.1691Z" fill="#060606"/>
<path d="M87.507 8.80752C87.5158 9.20464 87.5158 9.21347 87.8847 9.21347C88.8686 9.20464 89.8526 9.16052 90.8716 9.60177C90.8365 9.38114 90.8277 9.27524 90.8101 9.16934C90.5729 8.02209 90.5114 6.86601 90.5466 5.69229C90.5641 5.12749 90.652 4.58034 90.8716 4.05966C91.1088 3.48603 91.3548 2.92123 91.6008 2.34761C91.6622 2.20641 91.7677 2.07403 91.7413 1.87988C91.5481 1.89753 91.3636 1.90636 91.1791 1.92401C89.9931 2.01226 88.8159 2.23288 87.6212 2.25936C87.3576 2.26818 87.3049 2.38291 87.3049 2.61236C87.3049 3.58311 87.2259 4.55386 87.384 5.52461C87.5773 6.60126 87.4894 7.71321 87.507 8.80752Z" fill="#060606"/>
<path d="M102.195 7.78374C102.336 5.81576 101.782 3.99781 101.088 2.19751C101.053 2.10926 101.027 2.00336 100.912 1.98571C100.587 1.93276 100.306 1.74743 99.9373 1.65918C100.078 2.00336 100.166 2.31223 100.183 2.62993C100.227 3.38006 100.227 4.13018 100.148 4.88031C100.008 6.25701 99.8143 7.63371 99.7001 9.01924C99.6035 10.14 99.296 11.1725 98.7865 12.1609C98.5493 12.6287 98.3297 13.114 98.1188 13.5906C98.0749 13.6877 97.9871 13.7759 98.0398 13.8906C98.1276 13.9171 98.3472 13.6877 98.4087 13.6347C98.971 13.1052 99.621 12.7169 100.315 12.3904C100.675 12.2227 101.097 12.108 101.352 11.8344C101.624 11.5432 101.58 11.0578 101.668 10.6519C101.879 9.69877 102.125 8.75449 102.195 7.78374Z" fill="#060606"/>
<path d="M75.339 13.67C75.8398 13.3699 76.2702 12.9816 76.7183 12.4521C76.1736 12.6022 75.7256 12.7257 75.2863 12.8493C73.8544 13.264 72.3961 13.4405 70.9027 13.2729C70.2262 13.1934 69.5586 13.0611 69.093 12.4963C69.093 12.4874 69.0842 12.4874 69.0842 12.4874C68.9436 12.4345 68.8997 12.2315 68.7064 12.2139C68.8119 12.761 68.7855 13.2993 68.7943 13.8377C68.8031 14.2701 68.7064 14.6407 68.4253 14.9849C68.0827 15.4173 67.784 15.8851 67.4414 16.3793C68.3726 16.5999 69.2511 16.7941 70.1472 16.9088C70.3404 16.9353 70.5249 16.9088 70.7182 16.8735C70.8939 16.8382 71.0432 16.7764 71.1486 16.6087C71.3946 16.2292 71.7372 15.9645 72.1238 15.7174C73.1955 15.0379 74.2497 14.323 75.339 13.67Z" fill="#060606"/>
<path d="M84.6686 11.7372C85.0815 11.7372 85.4943 11.7548 85.9072 11.7813C87.1459 11.8519 88.3582 12.1078 89.5969 12.1696C90.2909 12.2049 90.9761 12.2402 91.7316 12.2755C91.4593 11.4812 91.187 10.7488 91.0113 9.99864C90.9761 9.84862 90.8619 9.79567 90.7389 9.76037C90.124 9.59269 89.5178 9.41619 88.8765 9.43384C87.9102 9.46032 86.9439 9.45149 85.9775 9.46032C85.5646 9.46032 85.1517 9.47797 84.7388 9.47797C84.5104 9.47797 84.3874 9.52209 84.3962 9.79567C84.4138 10.3516 84.405 10.9076 84.3962 11.4724C84.3874 11.6577 84.4577 11.7283 84.6686 11.7372Z" fill="#060606"/>
<path d="M96.8449 22.336C96.5286 21.9124 96.3705 21.4446 96.2738 20.9328C96.1421 20.2268 96.1245 19.5031 96.1596 18.7883C96.1684 18.6824 96.2211 18.5588 96.1333 18.4706C96.0015 18.3294 95.1669 18.2147 94.9912 18.3382C94.5608 18.6383 94.1215 18.7089 93.6471 18.4088C93.4363 19.8826 93.5593 21.2681 93.8668 22.6537C94.0688 23.5626 94.0425 23.5715 94.921 23.7744C95.0615 23.8097 95.2021 23.8097 95.3426 23.8097C96.0279 23.8097 96.7131 23.8097 97.3895 23.8097C97.5037 23.8097 97.6355 23.8362 97.7409 23.7833C97.7321 23.5803 97.6179 23.4567 97.5301 23.3244C97.3017 22.989 97.082 22.6625 96.8449 22.336Z" fill="#060606"/>
<path d="M82.3762 5.68354C82.016 5.70119 81.6383 5.67471 81.2869 5.72766C80.5489 5.83356 79.8198 5.99241 79.0204 5.75414C78.9501 6.98964 78.8622 8.14571 78.7129 9.28414C78.7656 9.31061 78.792 9.33709 78.8183 9.33709C80.0043 9.31944 81.199 9.30179 82.385 9.28414C82.5695 9.28414 82.631 9.20471 82.631 9.02821C82.6222 7.99569 82.6222 6.95434 82.631 5.92181C82.631 5.72766 82.5519 5.67471 82.3762 5.68354Z" fill="#060606"/>
<path d="M83.914 9.51318C83.4835 9.52201 83.0531 9.51318 82.6314 9.52201C81.4454 9.53966 80.2507 9.55731 79.0647 9.57496C78.6869 9.58378 78.6782 9.58378 78.5903 9.98973C78.4849 10.4839 78.2389 10.9075 77.9578 11.3135C77.8172 11.5165 77.6679 11.7194 77.501 11.9665C79.1877 11.8077 80.8129 11.7283 82.4469 11.7194C82.9389 11.7194 83.4308 11.7106 83.9228 11.7194C84.0985 11.7194 84.1863 11.6665 84.1775 11.4723C84.1688 10.8987 84.1688 10.3251 84.1775 9.75146C84.1688 9.55731 84.0897 9.51318 83.914 9.51318Z" fill="#060606"/>
<path d="M75.9628 19.0267C75.9365 18.9384 75.875 18.9031 75.7871 18.912C75.506 18.9384 75.2073 18.8767 74.9438 19.0179C74.443 19.3003 73.9159 19.2914 73.3713 19.212C73.2571 19.1944 73.1341 19.1149 73.0111 19.1944C72.9935 19.3356 73.0814 19.4415 73.1253 19.5562C73.5294 20.5181 74.1707 21.3388 74.7329 22.2037C74.9789 22.5832 75.2425 22.8391 75.7256 22.7597C75.8135 22.742 75.9189 22.7508 75.998 22.8038C76.0067 23.1391 75.8223 23.4392 75.8574 23.801C76.7447 23.8893 77.588 23.6686 78.4402 23.501C78.4226 23.4215 78.4226 23.3774 78.3962 23.3333C77.5441 21.9125 76.4548 20.6417 75.9628 19.0267Z" fill="#060606"/>
<path d="M79.0203 5.32142C79.0027 5.50675 79.1345 5.56852 79.2839 5.595C79.6001 5.63912 79.9076 5.68325 80.2326 5.64795C80.9442 5.56852 81.647 5.40967 82.3674 5.4538C82.5782 5.46262 82.6309 5.37437 82.6397 5.1714C82.6661 4.35067 82.5255 3.54759 82.4113 2.74452C82.3762 2.50624 82.262 2.43564 82.0336 2.44447C81.3835 2.47094 80.7246 2.47094 80.0921 2.32092C79.6177 2.20619 79.1433 2.06499 78.6513 1.93262C78.6338 1.98557 78.6162 2.00322 78.6162 2.01204C78.8446 3.10634 79.0994 4.19182 79.0203 5.32142Z" fill="#060606"/>
<path d="M69.8485 19.821C69.787 19.618 69.6552 19.6886 69.541 19.7239C68.9348 19.8916 68.3462 19.8298 67.7489 19.6798C67.6522 19.6533 67.5556 19.5562 67.4238 19.671C67.4414 20.3593 67.4326 21.0565 67.5468 21.7537C67.6522 22.3714 67.9334 22.6715 68.5571 22.7774C68.6537 22.795 68.7503 22.7774 68.8382 22.848C68.8909 23.0509 68.8382 23.2539 68.8382 23.4569C68.8294 23.8187 68.847 23.8805 69.1808 23.8452C69.9012 23.7746 70.6215 23.6599 71.3683 23.5628C71.3507 23.4657 71.3507 23.4481 71.3419 23.4392C70.8412 22.239 70.2174 21.083 69.8485 19.821Z" fill="#060606"/>
<path d="M99.6829 6.80408C99.8762 5.46268 100.043 4.13011 99.9728 2.7887C99.964 2.6122 99.9289 2.44453 99.9025 2.26803C99.7971 1.6944 99.516 1.4826 98.945 1.5179C98.5672 1.54438 98.1807 1.5532 97.8029 1.57968C97.267 1.60615 96.7399 1.64145 96.1074 1.67675C97.7414 3.15053 98.5936 5.05673 99.6829 6.80408Z" fill="#060606"/>
<path d="M76.4547 4.00661C77.1663 4.15663 77.8779 4.03308 78.5807 3.96248C78.7827 3.94483 78.73 3.78598 78.7124 3.67126C78.6246 3.20353 78.5016 2.73581 78.4313 2.26808C78.3786 1.88861 78.1854 1.72976 77.8164 1.68563C76.4459 1.51796 75.0755 1.48266 73.6172 1.49148C73.8544 1.95038 74.1179 2.28573 74.3463 2.64756C74.8471 3.42416 75.585 3.82128 76.4547 4.00661Z" fill="#060606"/>
<path d="M69.3746 12.4875C69.6206 12.6904 69.8754 12.8493 70.2268 12.8934C70.218 12.3816 70.1301 11.9315 69.9368 11.5167C69.5064 10.5901 68.9969 9.70759 68.3819 8.89569C67.8636 8.20734 67.0993 7.84551 66.335 7.41309C66.3174 7.54546 66.3087 7.60724 66.3087 7.66901C66.3526 9.16926 66.1417 10.6783 66.5458 12.1521C66.5546 12.1433 66.581 12.1256 66.5898 12.0992C66.6776 11.8521 66.6952 11.552 67.0642 11.5344C67.1872 11.5255 67.1432 11.3843 67.1432 11.2961C67.1432 10.846 67.1344 10.4048 67.1344 9.95469C67.1344 9.68994 67.1344 9.43401 67.1344 9.20456C67.2486 9.14279 67.2662 9.21339 67.2838 9.23986C67.9427 10.2547 68.3028 11.4373 69.1638 12.3286C69.1901 12.3286 69.3219 12.4433 69.3746 12.4875Z" fill="#060606"/>
<path d="M74.6017 18.9207C74.9091 18.7795 75.2254 18.6824 75.568 18.6912C75.7876 18.7 75.9018 18.6206 75.8316 18.3823C75.7086 17.9146 75.7964 17.4645 75.9018 17.0145C75.9545 16.7674 76.0248 16.5291 76.1039 16.2202C75.7701 16.4761 75.4362 16.4673 75.1112 16.4497C74.7949 16.432 74.4787 16.4144 74.1624 16.3791C73.6002 16.3173 73.0467 16.3614 72.5021 16.4585C72.1068 16.5291 72.0277 16.6703 72.1595 17.0498C72.3439 17.5793 72.5372 18.0999 72.7393 18.6206C72.7832 18.7353 72.8095 18.8854 72.9589 18.903C73.5036 18.9824 74.057 19.1678 74.6017 18.9207Z" fill="#060606"/>
<path d="M94.113 18.3558C94.3415 18.3999 94.5611 18.3646 94.7456 18.2146C95.0091 18.0028 95.299 18.0116 95.6065 18.0734C95.747 18.0999 95.8876 18.1264 96.0194 18.1881C96.239 18.294 96.3181 18.197 96.3971 17.994C96.687 17.288 96.9506 16.5643 97.3195 15.9025C97.5304 15.523 97.5479 15.1788 97.4952 14.6758C96.3796 15.7701 95.1057 16.1584 93.6035 15.8495C93.6387 16.5114 93.6474 17.1291 93.6299 17.7469C93.6123 18.1352 93.7353 18.294 94.113 18.3558Z" fill="#060606"/>
<path d="M67.5819 19.3976C68.2672 19.6182 68.9436 19.6711 69.6464 19.477C69.7431 19.4505 69.8133 19.3976 69.8309 19.2917C69.8924 18.5504 70.2965 17.9503 70.6567 17.3325C70.6918 17.2707 70.7533 17.209 70.7006 17.1119C69.5761 17.1737 68.5132 16.7942 67.4062 16.6177C67.4062 17.4825 67.4062 18.2944 67.4062 19.1063C67.4062 19.2387 67.4326 19.3534 67.5819 19.3976Z" fill="#060606"/>
<path d="M67.0466 11.7725C66.9324 11.7548 66.8972 11.8607 66.8796 11.9578C66.8533 12.0813 66.8269 12.2049 66.8006 12.3284C66.7742 12.4432 66.7127 12.5843 66.6073 12.5667C66.2471 12.5226 66.335 12.7608 66.335 12.955C66.335 13.1138 66.335 13.2727 66.335 13.4316C66.3262 13.7051 66.2647 14.0493 66.1769 14.3405C66.1329 14.42 65.9484 14.8171 65.8957 14.8965C65.7815 15.0642 65.6058 15.2407 65.6937 15.4878C65.7113 15.5054 65.72 15.5143 65.7376 15.5319C65.7991 15.4701 65.8342 15.3113 65.8255 15.3201C65.8255 15.2936 65.843 15.2671 65.8606 15.2495L65.843 15.276C65.8518 15.2583 65.8606 15.2495 65.8694 15.2318C65.8782 15.2142 65.8782 15.2054 65.887 15.1877C65.8957 15.1701 65.8957 15.1612 65.9045 15.1436C65.8957 15.073 65.9924 14.8347 66.0802 14.6317C66.1681 14.5435 66.3613 14.3493 66.5107 14.3758C66.66 14.3935 66.8094 14.4906 67.0026 14.4288C67.152 13.6169 67.1608 12.7961 67.1695 11.9666C67.152 11.8783 67.1344 11.7813 67.0466 11.7725Z" fill="#060606"/>
<path d="M66.6687 14.6409C66.493 14.5968 66.3349 14.5527 66.2383 14.7821C66.1856 14.9145 66.1943 15.1528 66.0713 15.2057C66.0362 15.2675 66.0011 15.3381 65.9571 15.3999C65.9571 15.4087 65.9571 15.4087 65.9571 15.4175V15.4087C65.9132 15.4881 65.8693 15.5587 65.8166 15.6205C65.8166 15.6205 65.8254 15.6205 65.8254 15.6293C65.7639 15.7882 65.553 15.8323 65.5443 16.0529C65.5179 16.9442 65.4476 17.8356 65.5267 18.7269C65.553 19.0269 65.6936 19.1152 65.9747 19.0446C66.2471 18.974 66.37 18.8416 66.414 18.5504C66.4667 18.1533 66.5106 17.7561 66.5633 17.3678C66.6775 16.5648 66.7829 15.7617 66.9147 14.9586C66.9498 14.7292 66.8269 14.685 66.6687 14.6409Z" fill="#060606"/>
<path d="M101.026 12.2846C100.139 12.7171 99.2428 13.1142 98.5225 13.8114C98.461 13.8643 98.1974 14.0938 98.1271 14.1379C97.6967 14.4291 97.6967 14.8439 97.7494 15.2852C97.7669 15.4352 97.8197 15.497 97.9954 15.4881C98.338 15.4705 98.6367 15.3734 98.909 15.144C99.5239 14.6145 100.104 14.0496 100.666 13.4672C100.877 13.2466 101.035 12.9906 101.193 12.7347C101.29 12.567 101.351 12.3905 101.307 12.1699C101.202 12.214 101.114 12.2405 101.026 12.2846Z" fill="#060606"/>
</svg>
