<svg width="891" height="338" viewBox="0 0 891 338" fill="none" xmlns="http://www.w3.org/2000/svg">
<mask id="mask0_152_1111" style="mask-type:alpha" maskUnits="userSpaceOnUse" x="0" y="0" width="891" height="338">
<rect x="0.285156" width="890" height="338" fill="#D9D9D9"/>
</mask>
<g mask="url(#mask0_152_1111)">
<path d="M525.304 116.459C461.79 89.3973 391.207 83.661 324.133 100.11C257.059 116.559 197.108 154.307 153.264 207.697C109.421 261.087 84.0479 327.242 80.9475 396.247C77.847 465.252 97.1865 533.39 136.067 590.448L86.9221 671.984C27.5773 600.885 -5.79003 511.68 -7.68862 419.049C-9.58719 326.418 20.0962 235.88 76.4764 162.337C132.857 88.7929 212.574 36.6251 302.51 14.4187C392.445 -7.7877 487.24 1.29038 571.293 40.159L619.682 -40.1216L715.831 -27.8904L558.656 232.877C590.206 261.241 613.658 297.482 626.611 337.895L542.991 366.06C533.473 335.19 514.228 308.234 488.129 289.215C462.029 270.196 430.475 260.136 398.178 260.535C365.88 260.935 334.572 271.773 308.926 291.431C283.281 311.09 264.674 338.514 255.884 369.61C247.094 400.707 248.593 433.807 260.155 463.968C271.718 494.13 292.725 519.736 320.04 536.963C347.355 554.19 379.513 562.115 411.712 559.553C443.912 556.991 474.426 544.081 498.7 522.75L332.966 422.855L442.24 385.449L626.289 496.383C602.884 541.576 550.33 618.293 457.133 641.465C410.739 653.028 361.946 650.322 317.131 633.703L274.607 704.254C338.124 731.303 408.707 737.028 475.777 720.569C542.848 704.11 602.793 666.355 646.63 612.961C690.467 559.568 715.834 493.412 718.931 424.408C722.027 355.404 702.685 287.268 663.805 230.212L712.941 148.691C772.306 219.783 805.691 308.991 807.602 401.63C809.512 494.268 779.834 584.816 723.452 658.369C667.07 731.921 587.345 784.094 497.401 806.298C407.457 828.503 312.655 819.416 228.599 780.534L160.354 893.758L104.634 814.451L152.664 734.764L198.672 658.435L241.196 587.883C199.899 550.912 172.802 500.675 164.581 445.838C156.359 391 167.528 335 196.161 287.496C224.794 239.992 269.095 203.962 321.425 185.621C373.754 167.28 430.83 167.778 482.808 187.029L525.333 116.477L525.304 116.459Z" fill="#76AB55" fill-opacity="0.2"/>
</g>
</svg>
