<svg width="698" height="487" viewBox="0 0 698 487" fill="none" xmlns="http://www.w3.org/2000/svg">
<mask id="mask0_152_1104" style="mask-type:alpha" maskUnits="userSpaceOnUse" x="-232" y="0" width="930" height="487">
<rect x="697.149" y="331.258" width="883.891" height="336.097" transform="rotate(169.895 697.149 331.258)" fill="#D7E3CF"/>
</mask>
<g mask="url(#mask0_152_1104)">
<mask id="mask1_152_1104" style="mask-type:alpha" maskUnits="userSpaceOnUse" x="281" y="65" width="443" height="335">
<rect x="281.967" y="65.8479" width="441.946" height="333.915" rx="8" fill="#D9D9D9"/>
</mask>
<g mask="url(#mask1_152_1104)">
<path d="M186.348 314.217C251.569 329.243 319.911 322.712 381.13 295.604C442.349 268.496 493.147 222.271 525.911 163.857C558.675 105.443 571.64 37.9875 562.861 -28.3997C554.083 -94.7871 524.036 -156.53 477.222 -204.374L510.259 -290.553C578.992 -232.789 626.012 -153.324 643.579 -65.2383C661.147 22.848 648.216 114.308 606.915 194.089C565.614 273.871 498.403 337.22 416.343 373.712C334.284 410.203 242.266 417.662 155.433 394.862L122.904 479.714L29.0565 484.395L134.714 208.778C99.7769 187.073 71.2307 156.473 51.9937 120.106L127.012 79.0013C141.346 106.845 164.299 129.3 192.444 143.012C220.589 156.725 252.416 160.96 283.173 155.085C313.931 149.21 341.969 133.541 363.102 110.416C384.235 87.2917 397.328 57.9522 400.429 26.7782C403.529 -4.3958 396.469 -35.7323 380.303 -62.5526C364.137 -89.3731 339.732 -110.239 310.732 -122.035C281.732 -133.831 249.692 -135.924 219.395 -128.002C189.099 -120.08 162.172 -102.568 142.633 -78.0807L317.803 -10.9289L219.873 43.3593L25.3437 -31.2136C39.995 -78.3273 77.1048 -160.487 162.113 -198.455C204.425 -217.382 251.454 -223.099 297.053 -214.86L325.64 -289.429C260.416 -304.441 192.077 -297.899 130.863 -270.782C69.6495 -243.665 18.8581 -197.435 -13.8991 -139.019C-46.6562 -80.6027 -59.6149 -13.1473 -50.8332 53.2383C-42.0514 119.624 -12.0021 181.364 34.8114 229.207L1.78078 315.37C-66.9705 257.615 -114.008 178.152 -131.588 90.0608C-149.169 1.96941 -136.245 -89.4998 -94.9432 -169.29C-53.6418 -249.08 13.5752 -312.435 95.6429 -348.926C177.711 -385.418 269.738 -392.87 356.575 -370.057L402.452 -489.729L469.122 -423.514L436.834 -339.29L405.907 -258.613L377.321 -184.044C423.025 -155.783 457.431 -112.445 474.605 -61.5049C491.779 -10.5653 490.645 44.7824 471.397 94.9917C452.149 145.201 415.995 187.124 369.17 213.53C322.346 239.935 267.786 249.168 214.903 239.636L186.316 314.205L186.348 314.217Z" fill="#BEBEBE" fill-opacity="0.17"/>
</g>
</g>
</svg>
