<svg width="40" height="25" viewBox="0 0 40 25" fill="none" xmlns="http://www.w3.org/2000/svg">
<path d="M27.9023 12.0249V17.4249H30.9793V14.2249H34.4664C35.9331 14.2149 37.1793 13.2999 37.6511 12.0249H27.9023Z" fill="#37A72E"/>
<path d="M27.4922 7.57471C27.6717 9.77971 29.8153 11.5247 32.4307 11.5247C32.4409 11.5247 37.7794 11.5247 37.7794 11.5247C37.8204 11.3247 37.8409 11.1147 37.8409 10.8997C37.8409 9.06971 36.3281 7.58971 34.4563 7.57471H27.4922Z" fill="url(#paint0_linear_152_1239)"/>
<path d="M22.9384 11.4697V11.4647V11.4697C22.9743 11.4097 23.0307 11.3747 23.1025 11.3747C23.205 11.3747 23.282 11.4547 23.2871 11.5497V17.3747H26.364V7.57471H23.2871C22.8973 7.58971 22.4563 7.86471 22.2922 8.20971L19.8461 13.3297C19.8409 13.3497 19.8307 13.3697 19.8204 13.3897C19.7845 13.4397 19.723 13.4747 19.6512 13.4747C19.5384 13.4747 19.4461 13.3847 19.4461 13.2747V7.57471H16.3691V17.3747H19.4461C19.8307 17.3547 20.2614 17.0797 20.4256 16.7397L22.9384 11.4847C22.9332 11.4797 22.9384 11.4747 22.9384 11.4697Z" fill="#37A72E"/>
<path d="M11.4512 11.6398L9.65124 17.3748H7.43586L5.64099 11.6348C5.6256 11.5448 5.54355 11.4748 5.44099 11.4748C5.32816 11.4748 5.24099 11.5648 5.24099 11.6698V17.3698H2.16406V7.56982H4.80509H5.5897C6.15381 7.56982 6.74868 7.99982 6.91278 8.52482L8.41022 13.2998C8.48714 13.5398 8.60509 13.5348 8.68201 13.2998L10.1794 8.52482C10.3435 7.99482 10.9384 7.56982 11.5025 7.56982H12.2871H14.9282V17.3698H11.8512V11.6698C11.8512 11.6698 11.8512 11.6698 11.8512 11.6648C11.8512 11.5548 11.7589 11.4698 11.6512 11.4698C11.5487 11.4748 11.4666 11.5448 11.4512 11.6398Z" fill="#37A72E"/>
<defs>
<linearGradient id="paint0_linear_152_1239" x1="27.4934" y1="9.54971" x2="37.8403" y2="9.54971" gradientUnits="userSpaceOnUse">
<stop stop-color="#00A0E5"/>
<stop offset="1" stop-color="#0077C3"/>
</linearGradient>
</defs>
</svg>
