<svg width="40" height="25" viewBox="0 0 40 25" fill="none" xmlns="http://www.w3.org/2000/svg">
<path d="M36.7331 12.5007C36.7331 17.9006 32.2513 22.2783 26.722 22.2783C21.1933 22.2783 16.7109 17.9009 16.7109 12.5007C16.7109 7.10038 21.1932 2.72266 26.722 2.72266C32.2515 2.72266 36.7331 7.10033 36.7331 12.5007Z" fill="#D9222A"/>
<path d="M18.9885 18.709C18.7113 18.3806 18.4565 18.0347 18.2257 17.6735H21.7738C21.9874 17.3401 22.18 16.9942 22.3508 16.6379H17.6491C17.4877 16.3011 17.3462 15.9556 17.2254 15.6029H22.774C23.1079 14.6277 23.2888 13.5848 23.2888 12.5001C23.2888 11.7895 23.2111 11.0968 23.0641 10.4295H16.9363C17.0136 10.0795 17.1105 9.73379 17.2269 9.39416H22.7735C22.6524 9.04162 22.511 8.696 22.35 8.35899H17.6504C17.8213 8.00291 18.0139 7.65719 18.227 7.32355H21.7729C21.5418 6.96306 21.2871 6.6175 21.0104 6.28909H18.9898C19.3005 5.92071 19.6382 5.57482 20.0001 5.25414C18.2233 3.6808 15.8648 2.72217 13.2777 2.72217C7.74861 2.72222 3.2666 7.0999 3.2666 12.5003C3.2666 17.9001 7.74884 22.2778 13.2783 22.2778C15.8657 22.2778 18.224 21.3193 20.0007 19.7463C20.3632 19.4251 20.7012 19.0785 21.0121 18.7093H18.9892" fill="#0097D0"/>
<path d="M35.3983 17.9492C35.3983 17.7749 35.5431 17.6335 35.7219 17.6335C35.9003 17.6336 36.045 17.7749 36.0449 17.9492C36.0449 18.1238 35.9003 18.2652 35.7219 18.2652C35.5433 18.2652 35.3983 18.1238 35.3983 17.9492ZM35.7219 18.1893C35.8575 18.1894 35.9674 18.0822 35.9675 17.9498V17.9492C35.9675 17.817 35.8578 17.7098 35.7224 17.7098H35.7219C35.5863 17.7095 35.4762 17.8166 35.4759 17.949V17.9492C35.4759 18.0818 35.5859 18.1893 35.7216 18.1893H35.7219ZM35.678 18.0879H35.6119V17.8106H35.7318C35.7567 17.8106 35.7822 17.8108 35.8043 17.8246C35.8276 17.84 35.8403 17.8668 35.8403 17.8938C35.8403 17.9255 35.8215 17.9544 35.7912 17.9655L35.8433 18.0878H35.77L35.7268 17.9784H35.678V18.0879ZM35.678 17.9311H35.7147C35.7284 17.9311 35.7428 17.932 35.7552 17.9255C35.7658 17.9181 35.7721 17.9061 35.7719 17.8933C35.7714 17.882 35.7655 17.8717 35.7559 17.8654C35.7441 17.8585 35.7257 17.8599 35.7133 17.8599H35.678V17.9311ZM19.857 15.1419C19.4291 15.2527 19.0154 15.3067 18.578 15.3059C17.1826 15.3046 16.4559 14.6839 16.4559 13.4974C16.4559 12.1107 17.3811 11.0907 18.6368 11.0907C19.6641 11.0907 20.32 11.6626 20.32 12.5585C20.32 12.8558 20.2756 13.1452 20.1668 13.5551H17.6854C17.5971 14.1343 18.0305 14.3888 18.7682 14.3888C19.2102 14.3888 19.61 14.3111 20.0524 14.1375L19.857 15.1419ZM19.1897 12.737C19.1897 12.6494 19.3278 12.027 18.6097 12.0134C18.2132 12.0134 17.9287 12.2708 17.8137 12.737H19.1897ZM20.6976 12.4652C20.6976 12.9774 20.993 13.3312 21.6642 13.5947C22.1773 13.8001 22.2582 13.8593 22.2582 14.0425C22.2582 14.2965 22.0314 14.4132 21.528 14.4099C21.1499 14.4073 20.805 14.3625 20.3977 14.2522L20.2176 15.1866C20.5794 15.2685 21.0871 15.2955 21.5367 15.3058C22.8767 15.3058 23.4954 14.8772 23.4954 13.9512C23.4954 13.3947 23.2374 13.067 22.6011 12.823C22.0692 12.6155 22.0067 12.5703 22.0067 12.3827C22.0067 12.1621 22.2174 12.0504 22.6285 12.0504C22.8775 12.0504 23.2186 12.0729 23.5422 12.1108L23.7239 11.1716C23.3942 11.1266 22.8937 11.0908 22.6042 11.0908C21.1847 11.0909 20.6935 11.715 20.6976 12.4652ZM15.7756 15.2388H14.7347L14.7595 14.8129C14.4421 15.1489 14.0193 15.3053 13.4455 15.3053C12.7664 15.3053 12.3011 14.8519 12.3011 14.1998C12.3011 13.2087 13.1099 12.637 14.5004 12.637C14.6433 12.637 14.8251 12.6474 15.0117 12.6676C15.0502 12.535 15.0607 12.4781 15.0607 12.4057C15.0607 12.1345 14.842 12.0346 14.2569 12.0346C13.68 12.0369 13.2907 12.1202 12.9296 12.2151L13.1074 11.3054C13.7318 11.1504 14.1409 11.0907 14.6036 11.0907C15.6804 11.0907 16.249 11.5029 16.249 12.278C16.2583 12.4847 16.1844 12.8997 16.1475 13.0812C16.1052 13.3455 15.8068 14.8773 15.7756 15.2388ZM14.8621 13.4309C14.7301 13.4177 14.6726 13.4139 14.5824 13.4139C13.8724 13.4139 13.5124 13.6202 13.5124 14.0276C13.5124 14.2832 13.6881 14.4434 13.9619 14.4434C14.4721 14.4434 14.8404 14.0266 14.8621 13.4309ZM25.6892 15.1745C25.3475 15.2661 25.0814 15.3057 24.7934 15.3057C24.1556 15.3057 23.8075 14.9875 23.8075 14.4206C23.7876 14.2649 23.9433 13.5458 23.9785 13.3455C24.0139 13.1445 24.5663 10.2139 24.5663 10.2139H25.8053L25.6177 11.1835H26.2532L26.0805 12.1732H25.4424C25.4424 12.1732 25.0921 13.8907 25.0921 14.0217C25.0921 14.23 25.2213 14.3205 25.5179 14.3205C25.6599 14.3205 25.7694 14.3076 25.8542 14.2829L25.6892 15.1745ZM31.225 11.0906C30.3169 11.0906 29.6074 11.4556 29.1953 12.0652L29.5529 11.1612C28.8939 10.925 28.4689 11.262 28.0846 11.7413C28.0846 11.7413 28.0202 11.821 27.9563 11.8939V11.183H26.7929C26.6353 12.4374 26.3567 13.7093 26.1386 14.9658L26.0862 15.2393H27.3377C27.4562 14.6016 27.5538 14.0838 27.651 13.6712C27.917 12.5389 28.3643 12.1928 29.0359 12.3458C28.8809 12.6714 28.7958 13.048 28.7958 13.4654C28.7958 14.4774 29.3587 15.3059 30.7564 15.3059C32.1668 15.3059 33.1881 14.57 33.1881 12.8923C33.1881 11.8802 32.5076 11.0906 31.225 11.0906ZM30.8608 14.3216C30.4187 14.3284 30.1508 13.9663 30.1508 13.4244C30.1508 12.7822 30.5419 12.0566 31.1701 12.0566C31.6769 12.0566 31.8505 12.449 31.8505 12.867C31.8506 13.7811 31.4671 14.3216 30.8608 14.3216ZM11.7182 15.2393H10.472L11.2127 11.4288L9.5075 15.2393H8.37152L8.16369 11.4508L7.42072 15.2393H6.29004L7.25316 10.2827H9.20055L9.36298 13.0458L10.5966 10.2827H12.7006L11.7182 15.2393Z" fill="black"/>
<path d="M33.284 14.6177C33.2841 14.4434 33.4288 14.3021 33.6072 14.302C33.786 14.302 33.9305 14.4436 33.9305 14.6177C33.9339 14.792 33.7918 14.936 33.6133 14.9393C33.4347 14.9426 33.2873 14.8038 33.284 14.6294C33.2838 14.6255 33.2838 14.6216 33.284 14.6177ZM33.6072 14.858C33.7431 14.8579 33.8531 14.7503 33.8531 14.6177C33.8531 14.4851 33.7429 14.3779 33.6072 14.3779C33.4715 14.3779 33.3614 14.4852 33.3614 14.6177C33.3614 14.7503 33.4714 14.8579 33.6072 14.858ZM33.5635 14.7564H33.4973V14.4795H33.6172C33.6422 14.4795 33.6678 14.4795 33.6899 14.4931C33.7127 14.5083 33.7259 14.535 33.7259 14.5623C33.7259 14.5938 33.7071 14.6231 33.6767 14.634L33.7288 14.7563H33.6554L33.6124 14.6469H33.5636V14.7564H33.5635ZM33.5635 14.5991H33.6002C33.6137 14.5991 33.6283 14.6 33.6407 14.5938C33.6513 14.5864 33.6574 14.5745 33.6572 14.5618C33.6569 14.5506 33.651 14.5401 33.6414 14.5339C33.6296 14.5268 33.6112 14.5286 33.5988 14.5286H33.5635V14.5991ZM20.1706 14.8363C19.7429 14.947 19.329 15.0012 18.8919 15.0003C17.4965 14.999 16.7697 14.3783 16.7697 13.1914C16.7697 11.8052 17.6945 10.785 18.9504 10.785C19.9779 10.785 20.6335 11.3567 20.6335 12.2525C20.6335 12.5503 20.5889 12.8392 20.4807 13.2494H17.9993C17.911 13.8284 18.344 14.0832 19.0818 14.0832C19.5239 14.0832 19.9234 14.0056 20.3663 13.8318L20.1706 14.8363ZM19.5033 12.4314C19.5033 12.344 19.6412 11.7214 18.9233 11.708C18.5269 11.708 18.2426 11.9656 18.1273 12.4314H19.5033ZM21.0114 12.1592C21.0114 12.6717 21.3063 13.0253 21.9778 13.2893C22.4912 13.4945 22.5717 13.5538 22.5717 13.7366C22.5717 13.9908 22.345 14.1075 21.8418 14.1043C21.4634 14.1018 21.1185 14.0569 20.7115 13.9466L20.531 14.8805C20.893 14.9631 21.4009 14.9901 21.8503 15.0003C23.1904 15.0003 23.8093 14.5716 23.8093 13.6456C23.8093 13.089 23.5511 12.7612 22.9145 12.5174C22.3825 12.3099 22.3203 12.2647 22.3203 12.0771C22.3203 11.8565 22.5313 11.7448 22.942 11.7448C23.1914 11.7448 23.5323 11.7675 23.8561 11.8054L24.0374 10.866C23.7075 10.8211 23.2074 10.7852 22.9182 10.7852C21.4981 10.7852 21.007 11.4091 21.0114 12.1592ZM16.0895 14.9334H15.0483L15.0734 14.5075C14.7557 14.8429 14.3329 14.9995 13.7593 14.9995C13.0802 14.9995 12.6147 14.546 12.6147 13.8944C12.6147 12.9028 13.4232 12.3313 14.814 12.3313C14.9569 12.3313 15.1384 12.3418 15.3255 12.362C15.3641 12.2295 15.3743 12.1727 15.3743 12.1001C15.3743 11.8287 15.1558 11.729 14.5707 11.729C13.9938 11.7313 13.6045 11.8148 13.2434 11.9095L13.421 11C14.0456 10.8448 14.4545 10.7851 14.9174 10.7851C15.9942 10.7851 16.5626 11.1973 16.5626 11.9721C16.5719 12.1791 16.498 12.5938 16.4613 12.7758C16.4188 13.0399 16.1204 14.5716 16.0895 14.9334ZM15.1754 13.1251C15.0439 13.1118 14.9862 13.1081 14.8958 13.1081C14.1862 13.1081 13.826 13.3144 13.826 13.7219C13.826 13.9776 14.0019 14.1377 14.2753 14.1377C14.7859 14.1376 15.1542 13.7207 15.1754 13.1251ZM26.0025 14.8692C25.6612 14.9604 25.3948 15.0003 25.107 15.0003C24.4693 15.0003 24.1214 14.6819 24.1214 14.1149C24.1012 13.9595 24.2572 13.2402 24.2922 13.0399C24.3276 12.8387 24.8799 9.9082 24.8799 9.9082H26.1187L25.9317 10.8778H26.5671L26.3944 11.8676H25.7563C25.7563 11.8676 25.4058 13.5851 25.4058 13.7159C25.4058 13.9243 25.5352 14.0144 25.8316 14.0144C25.9734 14.0144 26.0831 14.0019 26.1679 13.9768L26.0025 14.8692ZM32.1644 12.5614C32.1644 13.4751 31.7806 14.0162 31.174 14.0162C30.7322 14.0223 30.4642 13.6608 30.4642 13.1188C30.4642 12.4765 30.8551 11.7509 31.4833 11.7509C31.9905 11.7509 32.1644 12.1438 32.1644 12.5614ZM33.5019 12.5868C33.5019 11.5748 32.8209 10.785 31.5388 10.785C30.0635 10.785 29.1096 11.745 29.1096 13.1597C29.1096 14.1717 29.6721 15.0003 31.0702 15.0003C32.4807 15.0003 33.5019 14.2643 33.5019 12.5868ZM27.1063 10.8774C26.949 12.1318 26.6704 13.4034 26.4525 14.6604L26.3997 14.9339H27.6511C28.1023 12.5067 28.2535 11.8152 29.1985 12.0588L29.653 10.9101C28.994 10.6739 28.5695 11.0111 28.1855 11.4907C28.2202 11.2749 28.2855 11.0667 28.2697 10.8775L27.1063 10.8774ZM12.0317 14.9338H10.7857L11.5262 11.1231L9.82075 14.9338H8.68499L8.47716 11.1451L7.7342 14.9338H6.60352L7.56642 9.97695H9.51425L9.61722 13.0455L10.988 9.97695H13.0141L12.0317 14.9338Z" fill="white"/>
</svg>
