<svg width="40" height="25" viewBox="0 0 40 25" fill="none" xmlns="http://www.w3.org/2000/svg">
<path d="M23.3313 12.7037C23.3313 17.9689 18.9606 22.2365 13.5692 22.2365C8.17782 22.2365 3.80762 17.9687 3.80762 12.7037C3.80762 7.43899 8.17787 3.1709 13.5692 3.1709C18.9605 3.1709 23.3313 7.4392 23.3313 12.7037Z" fill="#D9222A"/>
<path d="M26.675 3.1709C24.1528 3.1709 21.8544 4.10538 20.122 5.63864C19.769 5.95139 19.4396 6.28852 19.1363 6.64747H21.1086C21.3786 6.96808 21.6272 7.30532 21.8528 7.65715H18.3922C18.1841 7.98228 17.9962 8.31935 17.8298 8.66662H22.4149C22.5723 8.99509 22.7102 9.33206 22.8282 9.67588H17.4165C17.3029 10.0069 17.2081 10.344 17.1328 10.6853H23.1116C23.2578 11.3487 23.3316 12.0253 23.3314 12.7039C23.3314 13.7626 23.1544 14.781 22.8281 15.7321H17.4164C17.5341 16.0761 17.672 16.4131 17.8295 16.7416H22.4148C22.2482 17.0889 22.0603 17.4261 21.8521 17.7513H18.392C18.6176 18.1029 18.8662 18.4399 19.1363 18.7601H21.1081C20.8052 19.1198 20.4756 19.4573 20.1221 19.7699C21.8546 21.3029 24.1528 22.2369 26.6752 22.2369C32.0666 22.2369 36.4373 17.9691 36.4373 12.7041C36.4373 7.43963 32.0666 3.17132 26.6752 3.17132" fill="#EE9F2D"/>
<path d="M34.7359 14.8928C34.7359 14.7229 34.8768 14.5847 35.0511 14.5847C35.2253 14.5847 35.3663 14.7229 35.3663 14.8928C35.3663 15.0627 35.2253 15.2008 35.0511 15.2008C34.8768 15.2008 34.7359 15.0627 34.7359 14.8928ZM35.0511 15.1269C35.1834 15.1268 35.2907 15.022 35.2908 14.8928C35.2908 14.7636 35.1836 14.659 35.0514 14.6589C34.9193 14.6587 34.8118 14.7631 34.8116 14.8921V14.8928C34.8115 15.022 34.9188 15.1268 35.0511 15.1269ZM35.0085 15.0281H34.9439V14.7575H35.0608C35.0853 14.7575 35.1102 14.7575 35.1318 14.7709C35.1542 14.7858 35.1669 14.8119 35.1669 14.8389C35.1669 14.8692 35.1485 14.8975 35.1188 14.9085L35.1698 15.028H35.0983L35.056 14.9209H35.0086L35.0085 15.0281ZM35.0085 14.8746H35.0443C35.0577 14.8746 35.0717 14.8757 35.0838 14.8693C35.0944 14.8627 35.0999 14.8502 35.0999 14.8383C35.0996 14.8272 35.0938 14.8169 35.0842 14.8108C35.0729 14.8039 35.055 14.8054 35.043 14.8054H35.0085V14.8746ZM11.29 13.7477C11.1788 13.735 11.1299 13.7317 11.0535 13.7317C10.4528 13.7317 10.1487 13.9328 10.1487 14.3301C10.1487 14.575 10.2971 14.7308 10.5286 14.7308C10.9604 14.7308 11.2714 14.3293 11.29 13.7477ZM12.0607 15.5H11.1826L11.2028 15.0923C10.9349 15.4144 10.5776 15.5676 10.092 15.5676C9.51756 15.5676 9.12378 15.1295 9.12378 14.4933C9.12378 13.5361 9.80878 12.9775 10.9846 12.9775C11.1047 12.9775 11.2588 12.9881 11.4164 13.0078C11.4493 12.8782 11.4579 12.8226 11.4579 12.7529C11.4579 12.4922 11.2732 12.3951 10.7781 12.3951C10.2597 12.3893 9.83211 12.5157 9.65651 12.5721C9.66761 12.5068 9.80334 11.6874 9.80334 11.6874C10.3315 11.5362 10.6798 11.4793 11.0718 11.4793C11.9817 11.4793 12.4638 11.8783 12.4628 12.6324C12.4646 12.8345 12.4304 13.0838 12.377 13.4115C12.285 13.9816 12.0877 15.2024 12.0607 15.5ZM8.68041 15.5H7.62066L8.22768 11.7826L6.8722 15.5H6.15006L6.06077 11.8039L5.4227 15.5H4.43066L5.25928 10.6642H6.78312L6.87557 13.371L7.80507 10.6642H9.5L8.68041 15.5ZM27.9844 13.7477C27.8736 13.735 27.8245 13.7317 27.7483 13.7317C27.1479 13.7317 26.8437 13.9328 26.8437 14.3301C26.8437 14.575 26.9919 14.7308 27.2234 14.7308C27.6552 14.7308 27.9665 14.3293 27.9844 13.7477ZM28.7558 15.5H27.8777L27.8976 15.0923C27.6297 15.4144 27.2722 15.5676 26.787 15.5676C26.2125 15.5676 25.819 15.1295 25.819 14.4933C25.819 13.5361 26.5036 12.9775 27.6796 12.9775C27.7997 12.9775 27.9535 12.9881 28.1111 13.0078C28.1439 12.8782 28.1526 12.8226 28.1526 12.7529C28.1526 12.4922 27.9681 12.3951 27.473 12.3951C26.9546 12.3893 26.5275 12.5157 26.3512 12.5721C26.3623 12.5068 26.4985 11.6874 26.4985 11.6874C27.0266 11.5362 27.3747 11.4793 27.7663 11.4793C28.6766 11.4793 29.1587 11.8783 29.1578 12.6324C29.1595 12.8345 29.1253 13.0838 29.0719 13.4115C28.9803 13.9816 28.7825 15.2024 28.7558 15.5ZM16.7705 15.4402C16.4805 15.5294 16.2544 15.5676 16.0092 15.5676C15.4674 15.5676 15.1717 15.2636 15.1717 14.7037C15.164 14.53 15.2497 14.0728 15.317 13.6555C15.3782 13.2882 15.7765 10.972 15.7765 10.972H16.8299L16.7068 11.5673H17.343L17.1994 12.5124H16.5608C16.4384 13.2603 16.2642 14.1919 16.2622 14.3154C16.2622 14.518 16.373 14.6066 16.625 14.6066C16.7458 14.6066 16.8392 14.5945 16.9107 14.5694L16.7705 15.4402ZM20.0004 15.4084C19.6385 15.5164 19.2893 15.5686 18.9193 15.5677C17.7401 15.5666 17.1254 14.9651 17.1254 13.8135C17.1254 12.4692 17.9074 11.4795 18.9689 11.4795C19.8374 11.4795 20.3921 12.0336 20.3921 12.9026C20.3921 13.1909 20.3541 13.4724 20.2623 13.8698H18.1645C18.0936 14.4402 18.4674 14.6779 19.0802 14.6779C19.4573 14.6779 19.7974 14.6021 20.1755 14.4303L20.0004 15.4084ZM19.4083 13.077C19.4141 12.995 19.52 12.375 18.9181 12.375C18.5825 12.375 18.3426 12.6249 18.2449 13.077H19.4083ZM12.6964 12.8105C12.6964 13.308 12.9434 13.651 13.5036 13.9086C13.9327 14.1056 13.9991 14.164 13.9991 14.3425C13.9991 14.5877 13.8099 14.6983 13.3905 14.6983C13.0744 14.6983 12.7803 14.6501 12.4411 14.5432C12.4411 14.5432 12.3017 15.4099 12.2953 15.4514C12.5363 15.5028 12.7511 15.5502 13.3982 15.5677C14.5164 15.5677 15.0328 15.1519 15.0328 14.2533C15.0328 13.7129 14.8166 13.3958 14.2858 13.1575C13.8414 12.9583 13.7905 12.9139 13.7905 12.7302C13.7905 12.5176 13.9665 12.4091 14.3091 12.4091C14.5171 12.4091 14.8013 12.4308 15.0705 12.4682L15.2214 11.5561C14.947 11.5136 14.5309 11.4795 14.2887 11.4795C13.1031 11.4795 12.6928 12.0843 12.6964 12.8105ZM25.1548 11.5829C25.4491 11.5829 25.7235 11.6584 26.1017 11.8442L26.2751 10.7947C26.1199 10.7351 25.5733 10.3857 25.1104 10.3857C24.4012 10.3857 23.8017 10.7294 23.3799 11.2965C22.7649 11.0976 22.5121 11.4997 22.2022 11.9002L21.9269 11.9628C21.9477 11.831 21.9665 11.6999 21.9601 11.5674H20.9869C20.8539 12.7844 20.6183 14.0171 20.4338 15.2358L20.3857 15.5H21.446C21.6229 14.3772 21.7199 13.6583 21.7788 13.1717L22.178 12.9548C22.2377 12.7382 22.4243 12.665 22.7989 12.6738C22.7486 12.9398 22.7234 13.2097 22.7237 13.4802C22.7237 14.7667 23.4345 15.5678 24.5754 15.5678C24.8693 15.5678 25.1215 15.5299 25.5119 15.4266L25.6985 14.3241C25.3473 14.4931 25.059 14.5725 24.798 14.5725C24.1819 14.5725 23.8091 14.1284 23.8091 13.3943C23.8091 12.3295 24.3635 11.5829 25.1548 11.5829Z" fill="black"/>
<path d="M8.98602 15.2125H7.92605L8.53356 11.4956L7.17803 15.2125H6.45567L6.36638 11.5168L5.72831 15.2125H4.73633L5.56495 10.3774H7.08879L7.13164 13.3707L8.15968 10.3774H9.80566L8.98602 15.2125Z" fill="white"/>
<path d="M34.1269 10.6646L33.8919 12.0618C33.6021 11.6893 33.2908 11.4198 32.8797 11.4198C32.345 11.4198 31.8583 11.8157 31.5397 12.3983C31.096 12.3084 30.6371 12.156 30.6371 12.156L30.6369 12.1595C30.6726 11.8338 30.6869 11.6351 30.6837 11.5676H29.7103C29.5777 12.7847 29.3421 14.0173 29.1579 15.236L29.1094 15.5003H30.1694C30.3126 14.5923 30.4222 13.8385 30.5029 13.2405C30.865 12.921 31.0463 12.6422 31.4122 12.6608C31.2502 13.0434 31.1553 13.4841 31.1553 13.9362C31.1553 14.9194 31.6646 15.568 32.4351 15.568C32.8235 15.568 33.1214 15.4372 33.4121 15.134L33.3625 15.4996H34.365L35.1722 10.6646L34.1269 10.6646ZM32.8015 14.5914C32.4408 14.5914 32.2586 14.3307 32.2586 13.8162C32.2586 13.0432 32.5997 12.4952 33.0805 12.4952C33.4446 12.4952 33.6417 12.7662 33.6417 13.2657C33.6417 14.0453 33.2953 14.5914 32.8015 14.5914Z" fill="black"/>
<path d="M11.1422 13.3969C11.031 13.3843 10.9818 13.381 10.9055 13.381C10.3038 13.381 9.99935 13.5825 9.99935 13.9803C9.99935 14.2253 10.148 14.3818 10.3795 14.3818C10.8124 14.3818 11.1241 13.9797 11.1422 13.3969ZM11.9146 15.1516H11.035L11.055 14.7439C10.787 15.066 10.4286 15.2201 9.94259 15.2201C9.36695 15.2201 8.97266 14.7812 8.97266 14.1439C8.97266 13.1846 9.65861 12.6255 10.8366 12.6255C10.9569 12.6255 11.1113 12.6362 11.2691 12.6559C11.302 12.526 11.3106 12.4704 11.3106 12.4001C11.3106 12.139 11.1258 12.0421 10.6299 12.0421C10.1104 12.0364 9.68225 12.163 9.50613 12.2188C9.51724 12.1537 9.65321 11.3338 9.65321 11.3338C10.1821 11.1817 10.5314 11.1247 10.9236 11.1247C11.8353 11.1247 12.3184 11.5246 12.3175 12.2794C12.3191 12.4826 12.2846 12.7322 12.2312 13.06C12.1393 13.6305 11.9414 14.8541 11.9146 15.1516ZM26.1533 10.4386L25.9795 11.4902C25.6009 11.3042 25.3258 11.2285 25.0312 11.2285C24.2386 11.2285 23.683 11.9763 23.683 13.0429C23.683 13.7781 24.0565 14.2229 24.6736 14.2229C24.935 14.2229 25.2235 14.1435 25.5753 13.9742L25.389 15.078C24.9976 15.1821 24.7453 15.2201 24.4506 15.2201C23.3079 15.2201 22.5957 14.4176 22.5957 13.1289C22.5957 11.3973 23.5795 10.187 24.9865 10.187C25.4499 10.1871 25.9976 10.379 26.1533 10.4386ZM27.8662 13.3969C27.755 13.3843 27.706 13.381 27.6294 13.381C27.0279 13.381 26.7233 13.5825 26.7233 13.9803C26.7233 14.2253 26.872 14.3818 27.1037 14.3818C27.5361 14.3818 27.848 13.9797 27.8662 13.3969ZM28.6385 15.1516H27.7588L27.779 14.7439C27.5107 15.066 27.1525 15.2201 26.6665 15.2201C26.0911 15.2201 25.6967 14.7812 25.6967 14.1439C25.6967 13.1846 26.3828 12.6255 27.5604 12.6255C27.6809 12.6255 27.835 12.6362 27.9929 12.6559C28.0257 12.526 28.0345 12.4704 28.0345 12.4001C28.0345 12.139 27.8497 12.0421 27.3538 12.0421C26.8345 12.0364 26.4062 12.163 26.23 12.2188C26.2411 12.1537 26.3773 11.3338 26.3773 11.3338C26.9062 11.1817 27.2552 11.1247 27.6475 11.1247C28.5594 11.1247 29.0422 11.5246 29.0411 12.2794C29.0429 12.4826 29.0086 12.7322 28.9551 13.06C28.8635 13.6305 28.6651 14.8541 28.6385 15.1516ZM16.6327 15.092C16.342 15.1813 16.1154 15.2201 15.8701 15.2201C15.3274 15.2201 15.0312 14.9154 15.0312 14.3546C15.0237 14.1802 15.1096 13.7226 15.1769 13.3047C15.238 12.9363 15.637 10.6164 15.637 10.6164H16.6921L16.569 11.2128H17.1105L16.9663 12.1591H16.423C16.3004 12.9088 16.1254 13.8413 16.1236 13.9652C16.1236 14.169 16.2347 14.2569 16.487 14.2569C16.608 14.2569 16.7015 14.2454 16.7732 14.2201L16.6327 15.092ZM19.8681 15.0605C19.5058 15.1686 19.1556 15.2207 18.7852 15.2201C17.6039 15.2189 16.9882 14.6165 16.9882 13.4628C16.9882 12.1157 17.7715 11.1247 18.8348 11.1247C19.7049 11.1247 20.2605 11.6795 20.2605 12.5504C20.2605 12.8395 20.2224 13.1214 20.1306 13.5193H18.0293C17.9582 14.0907 18.3327 14.329 18.9465 14.329C19.324 14.329 19.6649 14.2527 20.0435 14.0802L19.8681 15.0605ZM19.2748 12.7244C19.2811 12.6426 19.387 12.0213 18.7838 12.0213C18.4479 12.0213 18.2075 12.2722 18.1097 12.7244H19.2748ZM12.5515 12.4582C12.5515 12.9565 12.7989 13.2997 13.36 13.558C13.7899 13.7554 13.8564 13.814 13.8564 13.9928C13.8564 14.2383 13.6666 14.3492 13.2469 14.3492C12.9301 14.3492 12.6354 14.3008 12.2954 14.1938C12.2954 14.1938 12.1562 15.062 12.1499 15.1035C12.3907 15.1549 12.6061 15.2019 13.2544 15.2201C14.3747 15.2201 14.8918 14.8036 14.8918 13.9036C14.8918 13.3621 14.6755 13.0445 14.1435 12.8058C13.6986 12.6058 13.6471 12.5619 13.6471 12.3777C13.6471 12.1649 13.8239 12.0554 14.1669 12.0554C14.375 12.0554 14.6597 12.0778 14.9297 12.1152L15.0807 11.2013C14.806 11.1588 14.3893 11.1247 14.1467 11.1247C12.9589 11.1247 12.548 11.73 12.5515 12.4582ZM34.2571 15.1516H33.2527L33.3026 14.7849C33.0114 15.089 32.713 15.2201 32.3238 15.2201C31.5521 15.2201 31.0421 14.5704 31.0421 13.5855C31.0421 12.2752 31.8332 11.1707 32.7694 11.1707C33.1812 11.1707 33.4928 11.3349 33.7829 11.7078L34.0185 10.3083H35.0656L34.2571 15.1516ZM32.6912 14.2414C33.1855 14.2414 33.5328 13.6944 33.5328 12.914C33.5328 12.4136 33.3351 12.1421 32.9703 12.1421C32.4889 12.1421 32.147 12.6908 32.147 13.4654C32.1469 13.9807 32.3298 14.2414 32.6912 14.2414ZM29.5947 11.2129C29.4617 12.432 29.2257 13.6669 29.0411 14.8869L28.9925 15.1516H30.0543C30.4341 12.7431 30.5259 12.2727 31.1213 12.3317C31.2162 11.8387 31.3927 11.4069 31.5244 11.189C31.0797 11.0986 30.8314 11.344 30.5064 11.8101C30.532 11.6086 30.579 11.4129 30.5697 11.2129L29.5947 11.2129ZM20.8558 11.2129C20.7225 12.432 20.4865 13.6669 20.3019 14.8869L20.2535 15.1516H21.3158C21.6951 12.7431 21.7868 12.2727 22.3819 12.3317C22.4772 11.8387 22.6538 11.4069 22.785 11.189C22.3408 11.0986 22.0922 11.344 21.7674 11.8101C21.7931 11.6086 21.8395 11.4129 21.8307 11.2129L20.8558 11.2129ZM34.7235 14.8432C34.7233 14.673 34.8644 14.5349 35.0386 14.5347H35.0393C35.2134 14.5345 35.3548 14.6723 35.355 14.8424V14.8432C35.3549 15.0135 35.2136 15.1515 35.0393 15.1516C34.8649 15.1515 34.7236 15.0135 34.7235 14.8432ZM35.0393 15.0775C35.1717 15.0777 35.2791 14.9728 35.2791 14.8435V14.8433C35.2793 14.7139 35.1719 14.6089 35.0395 14.6088H35.0393C34.9066 14.6089 34.7992 14.7138 34.7991 14.8433C34.7992 14.9727 34.9067 15.0775 35.0393 15.0775ZM34.9966 14.978H34.9318V14.7077H35.0491C35.0734 14.7077 35.0986 14.7081 35.1197 14.7212C35.1424 14.7362 35.1553 14.762 35.1553 14.7889C35.1553 14.8195 35.137 14.8481 35.107 14.859L35.1582 14.978H35.0863L35.0439 14.8711H34.9965L34.9966 14.978ZM34.9966 14.8249H35.0321C35.0455 14.8249 35.0601 14.8259 35.0718 14.8195C35.0825 14.8129 35.088 14.8003 35.088 14.7883C35.0875 14.7771 35.0818 14.7668 35.0723 14.7604C35.0612 14.7542 35.0428 14.756 35.0308 14.756H34.9965L34.9966 14.8249Z" fill="white"/>
</svg>
