<svg width="22" height="20" viewBox="0 0 22 20" fill="none" xmlns="http://www.w3.org/2000/svg">
<path d="M21.0403 3.1671L18.1116 0.507437C17.7541 0.182477 17.2756 0 16.7696 0C16.2636 0 15.7851 0.179978 15.4276 0.507437L12.2733 3.36958C11.9158 3.69454 11.7151 4.13198 11.7151 4.59193C11.7151 5.05437 11.9131 5.48681 12.2733 5.81427L14.7373 8.05649C14.176 9.24531 13.3695 10.3255 12.3613 11.2386C11.352 12.161 10.1723 12.8884 8.86329 13.4033L6.39928 11.1611C6.04178 10.8361 5.56327 10.6537 5.05727 10.6537C4.80769 10.6528 4.56043 10.6973 4.32999 10.7844C4.09955 10.8715 3.89056 10.9996 3.71527 11.1611L0.558253 14.0232C0.200751 14.3482 0 14.7857 0 15.2456C0 15.708 0.198001 16.1405 0.558253 16.4679L3.48427 19.1276C4.09477 19.6825 4.93627 20 5.79978 20C5.97853 20 6.15178 19.9875 6.32778 19.96C9.96879 19.4151 13.5823 17.6528 16.5001 15.0031C19.4151 12.3485 21.3511 9.06387 21.9561 5.75178C22.1293 4.8119 21.7828 3.84452 21.0403 3.1671ZM20.0063 5.45432C19.4701 8.40145 17.7266 11.3411 15.1003 13.7283C12.4741 16.1155 9.24279 17.7003 6.00053 18.1877C5.59352 18.2502 5.17552 18.1252 4.87852 17.8578L2.00476 15.2456L5.05177 12.4734L8.34629 15.4731L8.37104 15.4956L8.96504 15.2956C10.7661 14.6937 12.4016 13.743 13.7583 12.5094C15.1149 11.2758 16.1603 9.78881 16.8218 8.15148L17.0418 7.61155L13.7198 4.59443L16.7668 1.82227L19.6406 4.43445C19.9376 4.70441 20.0751 5.08436 20.0063 5.45432Z" fill="#464646"/>
</svg>
