<svg width="90" height="90" viewBox="0 0 90 90" fill="none" xmlns="http://www.w3.org/2000/svg">
<path d="M88.6924 47.5897H81.2643C80.1836 45.1714 77.2233 38.6218 75.5433 35.7454C74.9442 34.5896 74.0502 33.6161 72.9535 32.9253C71.8568 32.2344 70.5973 31.8514 69.3048 31.8156H58.4078V21.6843C58.3935 19.9932 57.7174 18.3763 56.5269 17.1857C55.3363 15.995 53.7277 15.3269 52.0513 15.327H6.36567C4.6892 15.3269 3.08058 15.995 1.89005 17.1857C0.699515 18.3763 0.023464 19.9932 0.00909424 21.6843V66.5699C0.00909424 66.9343 0.152609 67.2838 0.408057 67.5415C0.663504 67.7992 1.00996 67.944 1.37122 67.944H7.23742C7.79599 69.8804 8.9624 71.5817 10.5614 72.7922C12.1604 74.0028 14.1056 74.6572 16.1048 74.6572C18.1041 74.6572 20.0493 74.0028 21.6483 72.7922C23.2473 71.5817 24.4137 69.8804 24.9723 67.944H65.8359C66.3919 69.8841 67.5578 71.5894 69.1579 72.8031C70.7581 74.0167 72.7059 74.673 74.7079 74.673C76.7099 74.673 78.6577 74.0167 80.2579 72.8031C81.858 71.5894 83.0239 69.8841 83.5799 67.944H88.6288C88.9901 67.944 89.3365 67.7992 89.592 67.5415C89.8474 67.2838 89.9909 66.9343 89.9909 66.5699V48.9638C89.9913 48.6102 89.8566 48.2701 89.6147 48.0141C89.3728 47.7582 89.0425 47.6062 88.6924 47.5897ZM22.5386 66.5699C22.4538 67.0419 22.3167 67.5028 22.13 67.944C21.6285 69.1232 20.795 70.1281 19.733 70.8343C18.6709 71.5405 17.4268 71.9168 16.1548 71.9168C14.8828 71.9168 13.6387 71.5405 12.5766 70.8343C11.5145 70.1281 10.6811 69.1232 10.1796 67.944C9.83079 67.1247 9.64861 66.2432 9.64385 65.3516C9.63903 65.2998 9.63903 65.2477 9.64385 65.1959C9.70671 63.5 10.4187 61.8947 11.6304 60.7173C12.842 59.54 14.4588 58.8821 16.1412 58.8821C17.8235 58.8821 19.4404 59.54 20.652 60.7173C21.8636 61.8947 22.5756 63.5 22.6385 65.1959C22.6433 65.2477 22.6433 65.2998 22.6385 65.3516C22.6466 65.7601 22.6131 66.1683 22.5386 66.5699ZM55.6564 65.1959H25.3809C25.3057 62.7769 24.3002 60.4824 22.5773 58.7981C20.8545 57.1138 18.5494 56.1719 16.1502 56.1719C13.7511 56.1719 11.446 57.1138 9.72318 58.7981C8.00031 60.4824 6.99483 62.7769 6.9196 65.1959H2.77875V50.4386H55.6564V65.1959ZM55.6564 47.6905H2.77875V21.6843C2.79306 20.722 3.18205 19.8042 3.8617 19.1288C4.54135 18.4535 5.45709 18.075 6.41108 18.0751H52.0694C53.0234 18.075 53.9392 18.4535 54.6188 19.1288C55.2985 19.8042 55.6875 20.722 55.7018 21.6843L55.6564 47.6905ZM66.8076 34.5912H69.3956L70.0676 34.6737C70.5939 34.7961 71.0928 35.0166 71.5387 35.324C72.2153 35.806 72.7794 36.4312 73.1914 37.1561C73.7363 38.0721 74.4536 39.4828 75.1892 40.9943L76.5241 43.7424C77.2233 45.2264 77.7772 46.4905 78.2676 47.5897H66.8076V34.5912ZM58.5622 34.5912H64.0834V47.6172H58.3988L58.5622 34.5912ZM81.1644 66.5974C81.0795 67.0694 80.9425 67.5303 80.7557 67.9715C80.2537 69.1528 79.4192 70.1595 78.3554 70.867C77.2917 71.5745 76.0456 71.9516 74.7715 71.9516C73.4974 71.9516 72.2512 71.5745 71.1875 70.867C70.1238 70.1595 69.2892 69.1528 68.7872 67.9715C68.6005 67.5303 68.4634 67.0694 68.3786 66.5974C68.298 66.1965 68.2584 65.7882 68.2605 65.3791C68.2557 65.3273 68.2557 65.2752 68.2605 65.2234C68.2605 63.4839 68.9455 61.8156 70.1649 60.5856C71.3842 59.3556 73.038 58.6646 74.7624 58.6646C76.4868 58.6646 78.1406 59.3556 79.3599 60.5856C80.5792 61.8156 81.2643 63.4839 81.2643 65.2234C81.2691 65.2752 81.2691 65.3273 81.2643 65.3791C81.2705 65.7784 81.237 66.1773 81.1644 66.5699V66.5974ZM87.3302 65.2234H84.0067C84.0067 62.7526 83.0337 60.383 81.3017 58.6359C79.5698 56.8888 77.2208 55.9073 74.7715 55.9073C72.3222 55.9073 69.9731 56.8888 68.2412 58.6359C66.5093 60.383 65.5363 62.7526 65.5363 65.2234H58.3806V50.3378H87.3302V65.2234Z" fill="white"/>
</svg>
