<svg width="90" height="90" viewBox="0 0 90 90" fill="none" xmlns="http://www.w3.org/2000/svg">
<path d="M77.9439 44.3803V18.4403C77.9439 16.422 77.1422 14.4863 75.715 13.0592C74.2879 11.632 72.3523 10.8303 70.334 10.8303H13.224C11.2065 10.8329 9.27237 11.6355 7.84579 13.0621C6.41921 14.4887 5.6166 16.4228 5.61395 18.4403V56.4403C5.6166 58.4578 6.41921 60.3919 7.84579 61.8185C9.27237 63.245 11.2065 64.0476 13.224 64.0503H44.8839C45.6527 67.0752 47.1166 69.8792 49.1594 72.2389C51.2021 74.5987 53.7674 76.4492 56.651 77.6434C59.5346 78.8376 62.6571 79.3423 65.7702 79.1176C68.8832 78.893 71.9008 77.945 74.5831 76.3491C77.2654 74.7532 79.5382 72.5534 81.2209 69.9248C82.9036 67.2961 83.9498 64.311 84.2761 61.207C84.6024 58.103 84.1999 54.9657 83.1007 52.0445C82.0014 49.1234 80.2357 46.4991 77.9439 44.3803ZM44.364 61.0503H13.224C12.0021 61.0476 10.8311 60.5611 9.96711 59.6971C9.10314 58.8331 8.6166 57.6621 8.61396 56.4403V18.4403C8.6166 17.2184 9.10314 16.0474 9.96711 15.1834C10.8311 14.3195 12.0021 13.8329 13.224 13.8303H70.334C71.5566 13.8303 72.7292 14.316 73.5937 15.1805C74.4583 16.0451 74.9439 17.2176 74.9439 18.4403V42.0803C71.7648 40.076 68.0822 39.0149 64.324 39.0203C59.0071 39.0256 53.9093 41.1394 50.1488 44.898C46.3882 48.6567 44.2719 53.7534 44.264 59.0703C44.2619 59.7316 44.2952 60.3925 44.364 61.0503ZM64.364 76.1303C60.7045 76.1326 57.1409 74.9602 54.1976 72.7856C51.2543 70.6109 49.0868 67.549 48.014 64.0503C47.8616 63.5571 47.7347 63.0565 47.6339 62.5503C47.5232 62.0557 47.4431 61.5547 47.394 61.0503C47.3127 60.3867 47.2726 59.7188 47.2739 59.0503C47.2792 54.5282 49.0787 50.1931 52.2772 46.9964C55.4757 43.7998 59.8119 42.0029 64.334 42.0003C68.1952 42.0015 71.9395 43.3249 74.9439 45.7503C75.4741 46.162 75.9752 46.6098 76.4439 47.0903C76.986 47.6327 77.4874 48.2142 77.9439 48.8303C79.8682 51.3569 81.0463 54.372 81.3446 57.5338C81.6429 60.6957 81.0495 63.8779 79.6317 66.7198C78.2139 69.5617 76.0283 71.9496 73.3228 73.6128C70.6172 75.2761 67.4998 76.1482 64.324 76.1303H64.364Z" fill="white"/>
<path d="M73.484 56.5802L69.014 61.0502L67.504 62.5502L65.984 64.0502L62.754 67.2502C62.4719 67.5257 62.0932 67.6799 61.699 67.6799C61.3047 67.6799 60.926 67.5257 60.644 67.2502L54.864 61.4702C54.7399 61.3513 54.6412 61.2084 54.574 61.0502C54.4371 60.7724 54.3914 60.4585 54.4435 60.1532C54.4956 59.848 54.6427 59.5669 54.864 59.3502C55.0026 59.2099 55.1676 59.0985 55.3496 59.0225C55.5315 58.9465 55.7268 58.9074 55.924 58.9074C56.1212 58.9074 56.3164 58.9465 56.4984 59.0225C56.6803 59.0985 56.8454 59.2099 56.984 59.3502L61.704 64.0702L63.224 62.5702L64.734 61.0702L71.404 54.4702C71.6895 54.2064 72.0664 54.0639 72.455 54.0725C72.8437 54.0811 73.2138 54.2403 73.4874 54.5165C73.7609 54.7926 73.9166 55.1642 73.9216 55.553C73.9265 55.9417 73.7804 56.3171 73.514 56.6002L73.484 56.5802Z" fill="white"/>
<path d="M31.224 41.2202C31.224 41.618 31.0659 41.9995 30.7846 42.2809C30.5033 42.5622 30.1218 42.7202 29.724 42.7202H15.064C14.6661 42.7202 14.2846 42.5622 14.0033 42.2809C13.722 41.9995 13.564 41.618 13.564 41.2202C13.564 40.8224 13.722 40.4409 14.0033 40.1596C14.2846 39.8783 14.6661 39.7202 15.064 39.7202H29.724C30.1218 39.7202 30.5033 39.8783 30.7846 40.1596C31.0659 40.4409 31.224 40.8224 31.224 41.2202Z" fill="white"/>
<path d="M39.894 50.2202C39.894 50.618 39.736 50.9995 39.4547 51.2809C39.1733 51.5622 38.7918 51.7202 38.394 51.7202H14.724C14.3262 51.7202 13.9446 51.5622 13.6633 51.2809C13.382 50.9995 13.224 50.618 13.224 50.2202C13.224 49.8224 13.382 49.4409 13.6633 49.1596C13.9446 48.8783 14.3262 48.7202 14.724 48.7202H38.394C38.7918 48.7202 39.1733 48.8783 39.4547 49.1596C39.736 49.4409 39.894 49.8224 39.894 50.2202Z" fill="white"/>
</svg>
