<svg width="90" height="90" viewBox="0 0 90 90" fill="none" xmlns="http://www.w3.org/2000/svg">
<path d="M81.72 44.11H66.72V11.5C66.72 11.1022 66.562 10.7206 66.2807 10.4393C65.9994 10.158 65.6178 10 65.22 10H30.16C29.7622 10 29.3806 10.158 29.0993 10.4393C28.818 10.7206 28.66 11.1022 28.66 11.5V44.11H11.5C11.1021 44.11 10.7206 44.268 10.4393 44.5493C10.158 44.8306 10 45.2122 10 45.61V79.84C10 80.2378 10.158 80.6193 10.4393 80.9006C10.7206 81.1819 11.1021 81.34 11.5 81.34H81.72C82.1178 81.34 82.4994 81.1819 82.7807 80.9006C83.062 80.6193 83.22 80.2378 83.22 79.84V45.61C83.22 45.2122 83.062 44.8306 82.7807 44.5493C82.4994 44.268 82.1178 44.11 81.72 44.11ZM67.33 47.11V57.45H61V47.11H67.33ZM44.55 13H50.88V23.37H44.55V13ZM31.66 13H41.55V24.84C41.55 25.2378 41.708 25.6193 41.9893 25.9006C42.2707 26.1819 42.6522 26.34 43.05 26.34H52.34C52.7378 26.34 53.1194 26.1819 53.4007 25.9006C53.682 25.6193 53.84 25.2378 53.84 24.84V13H63.73V44.22H31.66V13ZM25.88 47.11H32.22V57.45H25.88V47.11ZM45.11 78.37H13V47.11H22.88V58.95C22.88 59.3478 23.0381 59.7294 23.3194 60.0107C23.6007 60.292 23.9822 60.45 24.38 60.45H33.72C34.1178 60.45 34.4994 60.292 34.7807 60.0107C35.062 59.7294 35.22 59.3478 35.22 58.95V47.11H45.11V78.37ZM80.22 78.37H48.11V47.11H58V58.95C58 59.3478 58.1581 59.7294 58.4394 60.0107C58.7207 60.292 59.1021 60.45 59.5 60.45H68.83C69.2278 60.45 69.6094 60.292 69.8907 60.0107C70.172 59.7294 70.33 59.3478 70.33 58.95V47.11H80.22V78.37Z" fill="white"/>
</svg>
