<svg width="90" height="90" viewBox="0 0 90 90" fill="none" xmlns="http://www.w3.org/2000/svg">
<path d="M46.03 13.8376C41.9088 13.8335 37.8658 14.9625 34.3429 17.101C30.82 19.2396 27.9528 22.3055 26.0546 25.9635C24.1564 29.6216 23.3003 33.731 23.5799 37.8427C23.8596 41.9545 25.2641 45.9102 27.64 49.2776C27.95 49.7276 28.28 50.1575 28.64 50.5775C29 50.9975 29.32 51.3875 29.69 51.7675C32.7015 54.9608 36.5863 57.197 40.86 58.1975C41.37 58.3275 41.86 58.4275 42.41 58.5075C42.9458 58.6049 43.4867 58.6717 44.03 58.7076C44.6744 58.776 45.322 58.8094 45.97 58.8075H46.03C46.58 58.8075 47.12 58.8075 47.66 58.7375C48.2 58.6675 48.75 58.6475 49.28 58.5675C53.6502 57.939 57.7358 56.0284 61.02 53.0775C61.4 52.7275 61.78 52.3675 62.13 51.9975C62.48 51.6275 62.86 51.2275 63.19 50.8275C65.9589 47.5549 67.7343 43.5588 68.307 39.3103C68.8796 35.0619 68.2255 30.7383 66.4219 26.8494C64.6183 22.9604 61.7403 19.6683 58.1272 17.3611C54.5142 15.0539 50.3169 13.8278 46.03 13.8275V13.8376ZM61.59 48.0675C61.27 48.4975 60.93 48.9075 60.59 49.3075C60.2471 49.7002 59.8833 50.0741 59.5 50.4275C56.2867 53.513 52.1095 55.3986 47.67 55.7675C47.14 55.7675 46.6 55.8376 46.05 55.8376H45.7C45.1957 55.8361 44.6917 55.8094 44.19 55.7575H44.02C43.48 55.6975 42.95 55.6175 42.43 55.5175C38.0895 54.6903 34.1623 52.4038 31.3 49.0376C30.9442 48.6324 30.6104 48.2085 30.3 47.7675C29.9626 47.3197 29.652 46.8522 29.37 46.3675C27.5452 43.3343 26.5805 39.8617 26.5793 36.3219C26.5782 32.7821 27.5405 29.3087 29.3632 26.2743C31.186 23.2398 33.8003 20.7588 36.9258 19.0971C40.0514 17.4355 43.5703 16.656 47.1052 16.8423C50.6401 17.0285 54.0576 18.1734 56.9913 20.1542C59.925 22.135 62.2641 24.8771 63.7579 28.0862C65.2517 31.2954 65.8438 34.8506 65.4707 38.3706C65.0976 41.8907 63.7734 45.2428 61.64 48.0675H61.59Z" fill="white"/>
<path d="M75.68 72.6075L66.74 57.0376C70.7486 52.9965 73.49 47.873 74.6279 42.2959C75.7658 36.7188 75.2506 30.9308 73.1455 25.6424C71.0405 20.3539 67.4372 15.7952 62.7779 12.5257C58.1186 9.25615 52.6061 7.41812 46.9169 7.23721C41.2278 7.05631 35.6097 8.5404 30.7521 11.5073C25.8945 14.4742 22.0088 18.7948 19.572 23.9388C17.1352 29.0828 16.2533 34.8264 17.0346 40.4645C17.8159 46.1026 20.2263 51.3899 23.97 55.6775L14.3 72.6075C14.1496 72.8722 14.0834 73.1765 14.1101 73.4798C14.1368 73.7831 14.2551 74.071 14.4494 74.3055C14.6436 74.5399 14.9046 74.7097 15.1977 74.7922C15.4907 74.8747 15.802 74.8661 16.09 74.7675L25.6 71.4776L27.94 81.6175C28.0101 81.9092 28.1654 82.1735 28.3863 82.3765C28.6071 82.5795 28.8835 82.7122 29.18 82.7575H29.41C29.6731 82.7557 29.9312 82.6856 30.159 82.5542C30.3869 82.4227 30.5767 82.2344 30.71 82.0075L40.3 65.1975C42.1566 65.5723 44.046 65.7599 45.94 65.7575C47.2076 65.7606 48.4738 65.6771 49.73 65.5075L59.3 82.0276C59.4333 82.2544 59.6231 82.4427 59.851 82.5742C60.0789 82.7057 60.3369 82.7757 60.6 82.7776H60.82C61.1176 82.7348 61.3952 82.603 61.6166 82.3996C61.8379 82.1961 61.9925 81.9305 62.06 81.6375L64.4 71.4975L73.91 74.7876C74.1981 74.8861 74.5093 74.8947 74.8023 74.8122C75.0954 74.7296 75.3564 74.5599 75.5507 74.3255C75.7449 74.091 75.8633 73.8031 75.8899 73.4998C75.9166 73.1965 75.8504 72.8923 75.7 72.6275L75.68 72.6075ZM29.96 77.1975L28.1 69.1975C28.0548 68.9879 27.9654 68.7902 27.8378 68.6178C27.7102 68.4453 27.5473 68.3021 27.36 68.1975C27.1383 68.0696 26.886 68.0039 26.63 68.0075C26.4636 68.0096 26.2984 68.0366 26.14 68.0876L18.85 70.6175L26.15 57.9175C29.3361 60.8854 33.1458 63.1029 37.3 64.4076L29.96 77.1975ZM49.77 62.4175C49.2304 62.5077 48.6863 62.5678 48.14 62.5976C47.43 62.6676 46.71 62.6975 45.98 62.6975C44.6208 62.6961 43.2637 62.5924 41.92 62.3875C41.4 62.2975 40.87 62.2076 40.36 62.0876C39.85 61.9676 39.36 61.8576 38.86 61.7076C34.6491 60.5188 30.8046 58.2906 27.68 55.2276C27.3 54.8676 26.94 54.4975 26.59 54.1075C26.24 53.7175 25.88 53.3075 25.59 52.8875C22.4387 48.9727 20.4788 44.2348 19.9438 39.2378C19.4087 34.2407 20.321 29.1952 22.572 24.7019C24.823 20.2087 28.3179 16.4569 32.6406 13.8935C36.9632 11.3301 41.9315 10.0629 46.9539 10.243C51.9762 10.423 56.841 12.0425 60.9691 14.9088C65.0971 17.7751 68.3145 21.7674 70.2381 26.4103C72.1616 31.0532 72.7104 36.1511 71.819 41.097C70.9275 46.0428 68.6335 50.6284 65.21 54.3075C64.86 54.6875 64.5 55.0576 64.12 55.4076C63.74 55.7576 63.37 56.1176 62.98 56.4076C59.6377 59.2923 55.6196 61.2841 51.3 62.1975C50.8 62.2909 50.29 62.3709 49.77 62.4375V62.4175ZM63.77 68.0775C63.5705 68.0084 63.3585 67.9824 63.1482 68.0014C62.9379 68.0203 62.734 68.0838 62.55 68.1875C62.3629 68.2911 62.2007 68.4342 62.0746 68.607C61.9485 68.7797 61.8616 68.9778 61.82 69.1875L59.96 77.1875L52.87 64.8575C57.1126 63.8264 61.0676 61.8506 64.44 59.0775L71.06 70.5976L63.77 68.0775Z" fill="white"/>
<path d="M61.1899 31.4375C61.0856 31.1425 60.8917 30.8875 60.6353 30.7082C60.3789 30.5289 60.0728 30.4342 59.7599 30.4375H50.5699L47.7299 21.6975C47.6313 21.3974 47.4404 21.1361 47.1845 20.9509C46.9287 20.7657 46.6208 20.6659 46.3049 20.6659C45.989 20.6659 45.6812 20.7657 45.4253 20.9509C45.1694 21.1361 44.9786 21.3974 44.8799 21.6975L42.0399 30.4375H32.8499C32.531 30.4322 32.2188 30.5294 31.9592 30.7147C31.6996 30.9 31.5064 31.1638 31.4079 31.4671C31.3094 31.7705 31.3108 32.0975 31.412 32.4C31.5131 32.7025 31.7087 32.9645 31.9699 33.1476L39.3999 38.5475L36.5599 47.2876C36.5289 47.3674 36.512 47.452 36.5099 47.5376C36.4655 47.8082 36.4983 48.0859 36.6044 48.3388C36.7105 48.5917 36.8857 48.8096 37.1099 48.9676C37.3647 49.1559 37.6731 49.2576 37.9899 49.2576C38.3067 49.2576 38.6152 49.1559 38.8699 48.9676H38.9299L46.2999 43.5376L53.7399 48.9375L53.8399 48.9975C54.0694 49.1373 54.3323 49.2129 54.601 49.2163C54.8698 49.2198 55.1345 49.1509 55.3675 49.0171C55.6005 48.8832 55.7933 48.6892 55.9256 48.4553C56.058 48.2214 56.1251 47.9562 56.1199 47.6875C56.1211 47.5413 56.0975 47.3959 56.0499 47.2575L55.7099 46.1975L53.2099 38.5175L60.6399 33.1175C60.8977 32.9318 61.0899 32.6691 61.1887 32.3672C61.2875 32.0652 61.288 31.7397 61.1899 31.4375ZM50.5599 36.7375C50.3059 36.9239 50.1171 37.1856 50.0202 37.4853C49.9232 37.7851 49.9232 38.1078 50.0199 38.4076L51.7699 43.7975L47.1899 40.4676C46.9318 40.2827 46.6224 40.1833 46.3049 40.1833C45.9875 40.1833 45.678 40.2827 45.4199 40.4676L40.8399 43.7975L42.5899 38.4076C42.6867 38.1078 42.6866 37.7851 42.5897 37.4853C42.4927 37.1856 42.3039 36.9239 42.0499 36.7375L37.4599 33.4076H43.1299C43.4415 33.4103 43.746 33.3152 44.0007 33.1358C44.2554 32.9565 44.4475 32.7018 44.5499 32.4076L46.2999 26.9776L48.0499 32.3675C48.1555 32.6617 48.3497 32.9159 48.6059 33.095C48.862 33.2741 49.1674 33.3693 49.4799 33.3675H55.1499L50.5599 36.7375Z" fill="white"/>
</svg>
