<svg width="91" height="90" viewBox="0 0 91 90" fill="none" xmlns="http://www.w3.org/2000/svg">
<path d="M78.7053 35.6729C78.5645 35.4846 78.382 35.3315 78.172 35.2257C77.962 35.1198 77.7304 35.0641 77.4952 35.0629H75.5552V20.903C75.5544 18.834 74.8858 16.8205 73.6488 15.1619C72.4119 13.5033 70.6727 12.2882 68.6899 11.6973C66.7071 11.1064 64.5865 11.1712 62.6434 11.8821C60.7003 12.593 59.0386 13.912 57.9052 15.643C56.7437 14.8652 55.4137 14.3751 54.0253 14.213C53.0048 14.0452 51.9609 14.0844 50.9559 14.3284C49.9509 14.5723 49.0053 15.016 48.1752 15.633C46.5152 13.813 43.4552 12.0629 38.8952 12.9829C37.1908 13.3598 35.6094 14.1617 34.2981 15.3139C32.9868 16.4661 31.9882 17.9312 31.3952 19.573C29.8776 19.0443 28.2243 19.0538 26.7129 19.6001C25.2015 20.1464 23.9241 21.1961 23.0952 22.573C22.8076 22.4348 22.5008 22.3404 22.1852 22.2929C21.3991 22.232 20.6097 22.358 19.8815 22.6604C19.1533 22.9628 18.507 23.4331 17.9952 24.033C16.4052 25.623 15.6052 31.413 15.2552 35.033H13.0652C12.832 35.0346 12.6022 35.0902 12.394 35.1955C12.1859 35.3008 12.0049 35.4529 11.8654 35.6399C11.7259 35.8269 11.6316 36.0437 11.5899 36.2732C11.5483 36.5028 11.5603 36.7389 11.6252 36.963L15.9952 51.593L14.1252 77.093C14.1116 77.2987 14.1402 77.505 14.2093 77.6992C14.2784 77.8935 14.3866 78.0715 14.5271 78.2223C14.6677 78.3731 14.8376 78.4936 15.0264 78.5762C15.2153 78.6589 15.4191 78.702 15.6252 78.703H74.9553C75.1619 78.7036 75.3664 78.6613 75.5557 78.5786C75.7451 78.496 75.9152 78.3749 76.0552 78.223C76.1963 78.0728 76.304 77.8945 76.3712 77.6997C76.4384 77.505 76.4637 77.2982 76.4453 77.093L74.5852 51.593L78.9453 36.963C79.0064 36.7439 79.0165 36.5137 78.9749 36.2901C78.9333 36.0665 78.8411 35.8554 78.7053 35.6729ZM65.9453 14.323C67.6975 14.3256 69.3773 15.0229 70.6163 16.2619C71.8553 17.501 72.5526 19.1807 72.5552 20.9329V35.093H59.3352V20.903C59.3352 20.3318 59.4126 19.7633 59.5652 19.213C59.6975 18.6648 59.9098 18.1392 60.1953 17.653C60.772 16.6376 61.6086 15.794 62.619 15.2088C63.6295 14.6236 64.7775 14.3179 65.9453 14.323ZM50.0652 28.033C52.2564 27.7939 54.4644 28.2975 56.3352 29.463V35.0629H40.9952C41.2252 33.9529 41.4852 32.5929 41.6852 31.2429C44.1015 29.3711 47.0168 28.2545 50.0652 28.033ZM39.4952 15.9229C44.6752 14.9229 46.4953 18.283 46.6653 18.663C46.7856 18.9154 46.9736 19.1295 47.2085 19.2813C47.4433 19.4332 47.7157 19.5168 47.9952 19.523C48.2786 19.5275 48.5578 19.4533 48.8014 19.3085C49.0451 19.1637 49.2437 18.9541 49.3752 18.703C49.4752 18.513 50.4552 16.833 53.6953 17.193C54.7902 17.3228 55.8282 17.7518 56.6953 18.4329C56.4819 19.2389 56.3743 20.0692 56.3752 20.903V26.0529C54.3241 25.1766 52.0848 24.8326 49.8652 25.0529C47.1212 25.2521 44.4563 26.0618 42.0652 27.4229C42.0652 25.2329 41.5552 23.713 39.1452 22.643C38.498 22.405 37.8085 22.3034 37.1201 22.3447C36.4318 22.386 35.7594 22.5693 35.1452 22.883C34.8221 22.281 34.4184 21.7259 33.9453 21.2329C34.3265 19.9404 35.0393 18.7703 36.013 17.8387C36.9866 16.9071 38.1872 16.2467 39.4952 15.9229ZM20.1152 26.1829C20.8452 25.4529 21.4452 25.2529 21.7352 25.2929C22.0252 25.3329 22.1152 25.503 22.2852 25.823C22.4257 26.0906 22.6447 26.3088 22.9129 26.4482C23.1811 26.5876 23.4855 26.6417 23.7852 26.603C24.0851 26.5672 24.3674 26.4423 24.5956 26.2444C24.8238 26.0465 24.9874 25.7847 25.0652 25.4929C25.0652 25.3629 25.9752 22.1829 29.0652 22.1829C29.5562 22.1806 30.0438 22.2653 30.5052 22.4329C31.0188 22.634 31.4803 22.9485 31.8552 23.353C32.3673 23.9256 32.7373 24.6107 32.9352 25.353C32.9774 25.5317 33.0519 25.7012 33.1552 25.853C33.3291 26.1078 33.5769 26.3032 33.8652 26.413C34.0953 26.501 34.3436 26.5306 34.5879 26.4992C34.8322 26.4678 35.0649 26.3763 35.2652 26.2329C35.9852 25.7229 37.3352 25.133 37.8952 25.383C39.0552 25.893 39.2252 25.9729 38.8952 29.3129C38.8952 29.4429 38.8952 29.583 38.8452 29.713C38.7352 30.783 38.5353 31.9429 38.3353 32.9929V33.0529C38.1953 33.7929 38.0553 34.4829 37.9153 35.0529H18.2753C18.7253 30.7229 19.5052 26.8629 20.1152 26.1829ZM71.6152 51.013C71.5657 51.1884 71.5454 51.3709 71.5552 51.5529L73.3352 75.723H17.2252L18.9952 51.5529C19.005 51.3709 18.9848 51.1884 18.9352 51.013L15.0652 38.013H75.4853L71.6152 51.013Z" fill="white"/>
<path d="M53.2753 43.183H38.2753C37.3178 43.183 36.3996 43.5634 35.7226 44.2404C35.0456 44.9174 34.6653 45.8356 34.6653 46.793V51.233C34.6653 51.7071 34.7586 52.1765 34.94 52.6145C35.1215 53.0525 35.3874 53.4505 35.7226 53.7857C36.0578 54.1209 36.4558 54.3868 36.8938 54.5682C37.3317 54.7496 37.8012 54.843 38.2753 54.843H53.2753C53.7493 54.843 54.2188 54.7496 54.6567 54.5682C55.0947 54.3868 55.4927 54.1209 55.8279 53.7857C56.1631 53.4505 56.429 53.0525 56.6104 52.6145C56.7919 52.1765 56.8853 51.7071 56.8853 51.233V46.793C56.8853 45.8356 56.5049 44.9174 55.8279 44.2404C55.1509 43.5634 54.2327 43.183 53.2753 43.183ZM53.8853 51.183C53.8853 51.3448 53.821 51.5 53.7066 51.6143C53.5922 51.7287 53.437 51.793 53.2753 51.793H38.2753C38.1135 51.793 37.9583 51.7287 37.8439 51.6143C37.7295 51.5 37.6653 51.3448 37.6653 51.183V46.743C37.6653 46.5812 37.7295 46.4261 37.8439 46.3117C37.9583 46.1973 38.1135 46.133 38.2753 46.133H53.2753C53.437 46.133 53.5922 46.1973 53.7066 46.3117C53.821 46.4261 53.8853 46.5812 53.8853 46.743V51.183Z" fill="white"/>
<path d="M69.5772 22.0838C69.5772 22.0838 67.2222 22.9802 67.2222 24.6583C67.2222 26.9747 64.9871 28.1866 63.2456 28.6599L63.0058 28.7245C62.8296 28.7675 62.6603 28.7962 62.4982 28.8249H62.1879C62.1062 28.811 62.026 28.7894 61.9482 28.7603C61.7759 28.6926 61.6241 28.5802 61.5078 28.4343C61.3915 28.2883 61.3149 28.1139 61.2854 27.9285C61.2819 27.8688 61.2819 27.8089 61.2854 27.7492C61.2855 27.5637 61.3316 27.3811 61.4194 27.2185C61.4983 27.0806 61.6063 26.9622 61.7355 26.8717C61.8647 26.7812 62.012 26.7209 62.1668 26.695H62.336C62.6542 26.6225 62.9674 26.529 63.2737 26.4153L63.6545 26.2576C63.8606 26.1654 64.0608 26.06 64.2538 25.942C64.5417 25.7635 64.7834 25.5177 64.9589 25.2249C65.0608 25.0567 65.1145 24.863 65.114 24.6655C65.114 21.4743 68.717 20.1189 68.8721 20.0615C69.1367 19.9664 69.4276 19.9821 69.6808 20.1052C69.9341 20.2283 70.1289 20.4485 70.2224 20.7177C70.3158 20.9868 70.3004 21.2827 70.1794 21.5403C70.0584 21.7978 69.8418 21.9959 69.5772 22.091V22.0838Z" fill="white"/>
</svg>
