<svg width="90" height="90" viewBox="0 0 90 90" fill="none" xmlns="http://www.w3.org/2000/svg">
<path d="M50.7391 37.1903C50.512 36.7007 50.1928 36.2594 49.7991 35.8903C49.4107 35.5064 48.9569 35.1948 48.4591 34.9703C48.0042 34.7744 47.5144 34.6724 47.0191 34.6703C46.5366 34.6716 46.0597 34.7738 45.6191 34.9703C45.1471 35.1849 44.7223 35.4908 44.3691 35.8703L43.7591 36.4903C43.3952 36.8635 43.1036 37.3009 42.8991 37.7803C42.7132 38.2264 42.6245 38.7072 42.6391 39.1903C42.6556 39.6817 42.7713 40.1647 42.9791 40.6103C43.2289 41.1048 43.568 41.5489 43.9791 41.9203C44.3616 42.3042 44.8127 42.6129 45.3091 42.8303C45.7563 43.0215 46.2377 43.1201 46.7241 43.1201C47.2105 43.1201 47.6918 43.0215 48.1391 42.8303C48.6148 42.6165 49.0458 42.3145 49.4091 41.9403L50.0091 41.3103C50.3805 40.9432 50.6731 40.5043 50.8691 40.0203C51.0455 39.5717 51.1305 39.0922 51.1191 38.6103C51.0975 38.1149 50.9678 37.6303 50.7391 37.1903ZM48.5591 39.9403L47.9491 40.5603C47.7748 40.7651 47.561 40.9326 47.3204 41.0529C47.0799 41.1732 46.8175 41.2438 46.5491 41.2603C46.0386 41.2025 45.5628 40.9732 45.1995 40.6099C44.8362 40.2466 44.6069 39.7708 44.5491 39.2603C44.5579 38.9914 44.6209 38.727 44.7343 38.483C44.8478 38.239 45.0092 38.0204 45.2091 37.8403L45.8191 37.2103C45.9908 37.0058 46.2029 36.839 46.4421 36.7203C46.6813 36.6015 46.9424 36.5335 47.2091 36.5203C47.729 36.5409 48.2204 36.7633 48.5791 37.1403C48.7738 37.3098 48.9325 37.5165 49.0459 37.7484C49.1592 37.9803 49.2249 38.2326 49.2391 38.4903C49.2318 38.7658 49.1676 39.0368 49.0506 39.2863C48.9336 39.5358 48.7662 39.7585 48.5591 39.9403ZM53.0491 50.6403C52.8195 50.1522 52.5006 49.7113 52.1091 49.3403C51.7223 48.957 51.268 48.6485 50.7691 48.4303C50.3235 48.2262 49.8392 48.1205 49.3491 48.1205C48.859 48.1205 48.3747 48.2262 47.9291 48.4303C47.4595 48.6446 47.0352 48.9467 46.6791 49.3203L46.0691 49.9503C45.7055 50.32 45.4139 50.754 45.2091 51.2303C45.0249 51.677 44.9364 52.1573 44.9491 52.6403C44.9643 53.1362 45.0835 53.6234 45.2991 54.0703C45.5322 54.5618 45.8543 55.006 46.2491 55.3803C46.6345 55.7581 47.085 56.063 47.5791 56.2803C48.0302 56.477 48.5169 56.5791 49.0091 56.5803C49.4948 56.5792 49.975 56.477 50.4191 56.2803C50.8928 56.0682 51.3208 55.7659 51.6791 55.3903L52.2891 54.7703C52.6501 54.3969 52.9383 53.9594 53.1391 53.4803C53.3147 53.0279 53.3997 52.5454 53.3891 52.0603C53.3774 51.5683 53.2615 51.0843 53.0491 50.6403ZM50.8691 53.3903L50.2591 54.0203C50.0839 54.2233 49.8697 54.389 49.6292 54.5075C49.3887 54.626 49.1268 54.695 48.8591 54.7103C48.4585 54.7309 48.0614 54.6262 47.7231 54.4107C47.3847 54.1952 47.1219 53.8796 46.9713 53.5078C46.8206 53.136 46.7895 52.7266 46.8823 52.3363C46.9751 51.946 47.1872 51.5945 47.4891 51.3303L48.0991 50.7003C48.2731 50.4985 48.4857 50.3335 48.7244 50.215C48.9631 50.0965 49.2231 50.0269 49.4891 50.0103C50.003 50.0592 50.4838 50.2856 50.8488 50.6506C51.2138 51.0156 51.4402 51.4964 51.4891 52.0103C51.4711 52.5338 51.2485 53.0292 50.8691 53.3903ZM56.1691 42.3203L38.3091 47.4003L39.8891 48.9403L57.7591 43.8603L56.1691 42.3203ZM50.7391 37.1903C50.512 36.7007 50.1928 36.2594 49.7991 35.8903C49.4107 35.5064 48.9569 35.1948 48.4591 34.9703C48.0042 34.7744 47.5144 34.6724 47.0191 34.6703C46.5366 34.6716 46.0597 34.7738 45.6191 34.9703C45.1471 35.1849 44.7223 35.4908 44.3691 35.8703L43.7591 36.4903C43.3952 36.8635 43.1036 37.3009 42.8991 37.7803C42.7132 38.2264 42.6245 38.7072 42.6391 39.1903C42.6556 39.6817 42.7713 40.1647 42.9791 40.6103C43.2289 41.1048 43.568 41.5489 43.9791 41.9203C44.3616 42.3042 44.8127 42.6129 45.3091 42.8303C45.7563 43.0215 46.2377 43.1201 46.7241 43.1201C47.2105 43.1201 47.6918 43.0215 48.1391 42.8303C48.6148 42.6165 49.0458 42.3145 49.4091 41.9403L50.0091 41.3103C50.3805 40.9432 50.6731 40.5043 50.8691 40.0203C51.0455 39.5717 51.1305 39.0922 51.1191 38.6103C51.0975 38.1149 50.9678 37.6303 50.7391 37.1903ZM48.5591 39.9403L47.9491 40.5603C47.7748 40.7651 47.561 40.9326 47.3204 41.0529C47.0799 41.1732 46.8175 41.2438 46.5491 41.2603C46.0386 41.2025 45.5628 40.9732 45.1995 40.6099C44.8362 40.2466 44.6069 39.7708 44.5491 39.2603C44.5579 38.9914 44.6209 38.727 44.7343 38.483C44.8478 38.239 45.0092 38.0204 45.2091 37.8403L45.8191 37.2103C45.9908 37.0058 46.2029 36.839 46.4421 36.7203C46.6813 36.6015 46.9424 36.5335 47.2091 36.5203C47.729 36.5409 48.2204 36.7633 48.5791 37.1403C48.7738 37.3098 48.9325 37.5165 49.0459 37.7484C49.1592 37.9803 49.2249 38.2326 49.2391 38.4903C49.2318 38.7658 49.1676 39.0368 49.0506 39.2863C48.9336 39.5358 48.7662 39.7585 48.5591 39.9403ZM53.0491 50.6403C52.8195 50.1522 52.5006 49.7113 52.1091 49.3403C51.7223 48.957 51.268 48.6485 50.7691 48.4303C50.3235 48.2262 49.8392 48.1205 49.3491 48.1205C48.859 48.1205 48.3747 48.2262 47.9291 48.4303C47.4595 48.6446 47.0352 48.9467 46.6791 49.3203L46.0691 49.9503C45.7055 50.32 45.4139 50.754 45.2091 51.2303C45.0249 51.677 44.9364 52.1573 44.9491 52.6403C44.9643 53.1362 45.0835 53.6234 45.2991 54.0703C45.5322 54.5618 45.8543 55.006 46.2491 55.3803C46.6345 55.7581 47.085 56.063 47.5791 56.2803C48.0302 56.477 48.5169 56.5791 49.0091 56.5803C49.4948 56.5792 49.975 56.477 50.4191 56.2803C50.8928 56.0682 51.3208 55.7659 51.6791 55.3903L52.2891 54.7703C52.6501 54.3969 52.9383 53.9594 53.1391 53.4803C53.3147 53.0279 53.3997 52.5454 53.3891 52.0603C53.3774 51.5683 53.2615 51.0843 53.0491 50.6403ZM50.8691 53.3903L50.2591 54.0203C50.0839 54.2233 49.8697 54.389 49.6292 54.5075C49.3887 54.626 49.1268 54.695 48.8591 54.7103C48.4585 54.7309 48.0614 54.6262 47.7231 54.4107C47.3847 54.1952 47.1219 53.8796 46.9713 53.5078C46.8206 53.136 46.7895 52.7266 46.8823 52.3363C46.9751 51.946 47.1872 51.5945 47.4891 51.3303L48.0991 50.7003C48.2731 50.4985 48.4857 50.3335 48.7244 50.215C48.9631 50.0965 49.2231 50.0269 49.4891 50.0103C50.003 50.0592 50.4838 50.2856 50.8488 50.6506C51.2138 51.0156 51.4402 51.4964 51.4891 52.0103C51.4711 52.5338 51.2485 53.0292 50.8691 53.3903ZM56.1691 42.3203L38.3091 47.4003L39.8891 48.9403L57.7591 43.8603L56.1691 42.3203ZM50.7391 37.1903C50.512 36.7007 50.1928 36.2594 49.7991 35.8903C49.4107 35.5064 48.9569 35.1948 48.4591 34.9703C48.0042 34.7744 47.5144 34.6724 47.0191 34.6703C46.5366 34.6716 46.0597 34.7738 45.6191 34.9703C45.1471 35.1849 44.7223 35.4908 44.3691 35.8703L43.7591 36.4903C43.3952 36.8635 43.1036 37.3009 42.8991 37.7803C42.7132 38.2264 42.6245 38.7072 42.6391 39.1903C42.6556 39.6817 42.7713 40.1647 42.9791 40.6103C43.2289 41.1048 43.568 41.5489 43.9791 41.9203C44.3616 42.3042 44.8127 42.6129 45.3091 42.8303C45.7563 43.0215 46.2377 43.1201 46.7241 43.1201C47.2105 43.1201 47.6918 43.0215 48.1391 42.8303C48.6148 42.6165 49.0458 42.3145 49.4091 41.9403L50.0091 41.3103C50.3805 40.9432 50.6731 40.5043 50.8691 40.0203C51.0455 39.5717 51.1305 39.0922 51.1191 38.6103C51.0975 38.1149 50.9678 37.6303 50.7391 37.1903ZM48.5591 39.9403L47.9491 40.5603C47.7748 40.7651 47.561 40.9326 47.3204 41.0529C47.0799 41.1732 46.8175 41.2438 46.5491 41.2603C46.0386 41.2025 45.5628 40.9732 45.1995 40.6099C44.8362 40.2466 44.6069 39.7708 44.5491 39.2603C44.5579 38.9914 44.6209 38.727 44.7343 38.483C44.8478 38.239 45.0092 38.0204 45.2091 37.8403L45.8191 37.2103C45.9908 37.0058 46.2029 36.839 46.4421 36.7203C46.6813 36.6015 46.9424 36.5335 47.2091 36.5203C47.729 36.5409 48.2204 36.7633 48.5791 37.1403C48.7738 37.3098 48.9325 37.5165 49.0459 37.7484C49.1592 37.9803 49.2249 38.2326 49.2391 38.4903C49.2318 38.7658 49.1676 39.0368 49.0506 39.2863C48.9336 39.5358 48.7662 39.7585 48.5591 39.9403ZM53.0491 50.6403C52.8195 50.1522 52.5006 49.7113 52.1091 49.3403C51.7223 48.957 51.268 48.6485 50.7691 48.4303C50.3235 48.2262 49.8392 48.1205 49.3491 48.1205C48.859 48.1205 48.3747 48.2262 47.9291 48.4303C47.4595 48.6446 47.0352 48.9467 46.6791 49.3203L46.0691 49.9503C45.7055 50.32 45.4139 50.754 45.2091 51.2303C45.0249 51.677 44.9364 52.1573 44.9491 52.6403C44.9643 53.1362 45.0835 53.6234 45.2991 54.0703C45.5322 54.5618 45.8543 55.006 46.2491 55.3803C46.6345 55.7581 47.085 56.063 47.5791 56.2803C48.0302 56.477 48.5169 56.5791 49.0091 56.5803C49.4948 56.5792 49.975 56.477 50.4191 56.2803C50.8928 56.0682 51.3208 55.7659 51.6791 55.3903L52.2891 54.7703C52.6501 54.3969 52.9383 53.9594 53.1391 53.4803C53.3147 53.0279 53.3997 52.5454 53.3891 52.0603C53.3774 51.5683 53.2615 51.0843 53.0491 50.6403ZM50.8691 53.3903L50.2591 54.0203C50.0839 54.2233 49.8697 54.389 49.6292 54.5075C49.3887 54.626 49.1268 54.695 48.8591 54.7103C48.4585 54.7309 48.0614 54.6262 47.7231 54.4107C47.3847 54.1952 47.1219 53.8796 46.9713 53.5078C46.8206 53.136 46.7895 52.7266 46.8823 52.3363C46.9751 51.946 47.1872 51.5945 47.4891 51.3303L48.0991 50.7003C48.2731 50.4985 48.4857 50.3335 48.7244 50.215C48.9631 50.0965 49.2231 50.0269 49.4891 50.0103C50.003 50.0592 50.4838 50.2856 50.8488 50.6506C51.2138 51.0156 51.4402 51.4964 51.4891 52.0103C51.4711 52.5338 51.2485 53.0292 50.8691 53.3903ZM56.1691 42.3203L38.3091 47.4003L39.8891 48.9403L57.7591 43.8603L56.1691 42.3203Z" fill="white"/>
<path d="M83.309 17.4902C83.2722 15.4806 82.4439 13.5666 81.004 12.1642C79.5641 10.7617 77.629 9.9841 75.619 10.0002L53.169 10.2402C51.1406 10.2674 49.2057 11.0982 47.7891 12.5502L12.149 49.2603C10.7436 50.7084 9.97084 52.6555 10.0008 54.6733C10.0308 56.6912 10.8611 58.6145 12.309 60.0203L35.079 82.1302C36.4929 83.5118 38.3922 84.2837 40.369 84.2802H40.489C41.4892 84.2677 42.4769 84.0571 43.3952 83.6606C44.3135 83.2642 45.1441 82.6896 45.839 81.9702L81.489 45.2402C82.1894 44.527 82.7404 43.681 83.1096 42.752C83.4788 41.823 83.6588 40.8297 83.639 39.8303L83.309 17.4902ZM79.309 43.1502L43.649 79.8802C43.2299 80.3156 42.7287 80.6634 42.1742 80.9037C41.6198 81.1441 41.0232 81.272 40.419 81.2802H40.349C39.1501 81.2837 37.9976 80.817 37.139 79.9802L14.369 57.8702C13.9343 57.4488 13.5868 56.9458 13.3465 56.39C13.1061 55.8342 12.9776 55.2364 12.9683 54.6309C12.9591 54.0255 13.0691 53.4241 13.2923 52.8612C13.5155 52.2983 13.8474 51.7848 14.269 51.3502L49.919 14.6403C50.3412 14.2035 50.8458 13.8548 51.4037 13.6144C51.9616 13.3741 52.5616 13.2469 53.169 13.2402L75.629 13.0002H75.679C76.8871 13.0053 78.0452 13.4833 78.905 14.332C79.7649 15.1806 80.2581 16.3323 80.279 17.5402L80.609 39.8803C80.6275 40.4809 80.5265 41.0792 80.3119 41.6406C80.0973 42.2019 79.7734 42.715 79.359 43.1502H79.309Z" fill="white"/>
<path d="M50.7391 37.1903C50.512 36.7007 50.1928 36.2594 49.7991 35.8903C49.4107 35.5064 48.9569 35.1948 48.4591 34.9703C48.0042 34.7744 47.5144 34.6724 47.0191 34.6703C46.5366 34.6716 46.0597 34.7738 45.6191 34.9703C45.1471 35.1849 44.7223 35.4908 44.3691 35.8703L43.7591 36.4903C43.3952 36.8635 43.1036 37.3009 42.8991 37.7803C42.7132 38.2264 42.6245 38.7072 42.6391 39.1903C42.6556 39.6817 42.7713 40.1647 42.9791 40.6103C43.2289 41.1048 43.568 41.5489 43.9791 41.9203C44.3616 42.3042 44.8127 42.6129 45.3091 42.8303C45.7563 43.0215 46.2377 43.1201 46.7241 43.1201C47.2105 43.1201 47.6918 43.0215 48.1391 42.8303C48.6148 42.6165 49.0458 42.3145 49.4091 41.9403L50.0091 41.3103C50.3805 40.9432 50.6731 40.5043 50.8691 40.0203C51.0455 39.5717 51.1305 39.0922 51.1191 38.6103C51.0975 38.1149 50.9678 37.6303 50.7391 37.1903ZM48.5591 39.9403L47.9491 40.5603C47.7748 40.7651 47.561 40.9326 47.3204 41.0529C47.0799 41.1732 46.8175 41.2438 46.5491 41.2603C46.0386 41.2025 45.5628 40.9732 45.1995 40.6099C44.8362 40.2466 44.6069 39.7708 44.5491 39.2603C44.5579 38.9914 44.6209 38.727 44.7343 38.483C44.8478 38.239 45.0092 38.0204 45.2091 37.8403L45.8191 37.2103C45.9908 37.0058 46.2029 36.839 46.4421 36.7203C46.6813 36.6015 46.9424 36.5335 47.2091 36.5203C47.729 36.5409 48.2204 36.7633 48.5791 37.1403C48.7738 37.3098 48.9325 37.5165 49.0459 37.7484C49.1592 37.9803 49.2249 38.2326 49.2391 38.4903C49.2318 38.7658 49.1676 39.0368 49.0506 39.2863C48.9336 39.5358 48.7662 39.7585 48.5591 39.9403Z" fill="white"/>
<path d="M53.0491 50.6403C52.8195 50.1522 52.5006 49.7113 52.1091 49.3403C51.7223 48.957 51.268 48.6485 50.7691 48.4303C50.3235 48.2262 49.8392 48.1205 49.3491 48.1205C48.859 48.1205 48.3747 48.2262 47.9291 48.4303C47.4595 48.6446 47.0352 48.9467 46.6791 49.3203L46.0691 49.9503C45.7055 50.32 45.4139 50.754 45.2091 51.2303C45.0249 51.677 44.9364 52.1573 44.9491 52.6403C44.9643 53.1362 45.0835 53.6234 45.2991 54.0703C45.5322 54.5618 45.8543 55.006 46.2491 55.3803C46.6345 55.7581 47.085 56.063 47.5791 56.2803C48.0302 56.477 48.5169 56.5791 49.0091 56.5803C49.4948 56.5792 49.975 56.477 50.4191 56.2803C50.8928 56.0682 51.3208 55.7659 51.6791 55.3903L52.2891 54.7703C52.6501 54.3969 52.9383 53.9594 53.1391 53.4803C53.3147 53.0279 53.3997 52.5454 53.3891 52.0603C53.3774 51.5683 53.2615 51.0843 53.0491 50.6403ZM50.8691 53.3903L50.2591 54.0203C50.0839 54.2233 49.8697 54.389 49.6292 54.5075C49.3887 54.626 49.1268 54.695 48.8591 54.7103C48.4585 54.7309 48.0614 54.6262 47.7231 54.4107C47.3847 54.1952 47.1219 53.8796 46.9713 53.5078C46.8206 53.136 46.7895 52.7266 46.8823 52.3363C46.9751 51.946 47.1872 51.5945 47.4891 51.3303L48.0991 50.7003C48.2731 50.4985 48.4857 50.3335 48.7244 50.215C48.9631 50.0965 49.2231 50.0269 49.4891 50.0103C50.003 50.0592 50.4838 50.2856 50.8488 50.6506C51.2138 51.0156 51.4402 51.4964 51.4891 52.0103C51.4711 52.5338 51.2485 53.0292 50.8691 53.3903Z" fill="white"/>
<path d="M57.7491 43.8602L39.8791 48.9402L38.2991 47.4002L56.1691 42.3203L57.7491 43.8602Z" fill="white"/>
<path d="M74.1691 38.0903L55.1691 19.6703C55.0305 19.53 54.8655 19.4186 54.6835 19.3426C54.5015 19.2666 54.3063 19.2274 54.1091 19.2274C53.9119 19.2274 53.7167 19.2666 53.5347 19.3426C53.3528 19.4186 53.1877 19.53 53.0491 19.6703L21.3091 52.4103C21.0306 52.6928 20.8745 53.0736 20.8745 53.4703C20.8745 53.867 21.0306 54.2477 21.3091 54.5303L40.3091 72.9603C40.5926 73.2292 40.9683 73.3795 41.3591 73.3803C41.5609 73.3808 41.7607 73.3402 41.9463 73.2611C42.132 73.182 42.2996 73.0661 42.4391 72.9203L74.1991 40.2103C74.4776 39.9277 74.6337 39.547 74.6337 39.1503C74.6337 38.7536 74.4776 38.3728 74.1991 38.0903H74.1691ZM41.3091 69.7603L24.5091 53.4303L54.1791 22.8603L70.9991 39.2003L41.3091 69.7603Z" fill="white"/>
<path d="M75.7891 16.7802C74.9944 16.0074 73.9563 15.5341 72.8517 15.4411C71.7471 15.3481 70.6444 15.641 69.7317 16.27C68.8189 16.899 68.1526 17.8251 67.8462 18.8904C67.5399 19.9558 67.6125 21.0944 68.0517 22.1122C68.4909 23.13 69.2696 23.9639 70.2548 24.4718C71.2401 24.9797 72.3711 25.1302 73.4549 24.8976C74.5387 24.665 75.5083 24.0636 76.1984 23.1961C76.8884 22.3286 77.2562 21.2486 77.2391 20.1403C77.2184 18.8727 76.6972 17.6648 75.7891 16.7802ZM74.2391 20.2302C74.234 20.6963 74.0472 21.1421 73.7185 21.4726C73.3899 21.8031 72.9452 21.9925 72.4791 22.0002C72.133 21.9971 71.7953 21.8932 71.5074 21.7011C71.2195 21.509 70.9938 21.2372 70.858 20.9188C70.7222 20.6005 70.6821 20.2495 70.7427 19.9087C70.8033 19.5679 70.9619 19.2523 71.1991 19.0002C71.3643 18.8276 71.5631 18.6906 71.7832 18.5978C72.0034 18.5049 72.2402 18.4581 72.4791 18.4602C72.947 18.4628 73.3952 18.6484 73.7279 18.9774C74.0606 19.3063 74.2513 19.7524 74.2591 20.2202L74.2391 20.2302Z" fill="white"/>
<path d="M56.1691 42.3203L38.3091 47.4003L39.8891 48.9403L57.7591 43.8603L56.1691 42.3203ZM50.7391 37.1903C50.512 36.7007 50.1928 36.2594 49.7991 35.8903C49.4107 35.5064 48.9569 35.1948 48.4591 34.9703C48.0042 34.7744 47.5144 34.6724 47.0191 34.6703C46.5366 34.6716 46.0597 34.7738 45.6191 34.9703C45.1471 35.1849 44.7223 35.4908 44.3691 35.8703L43.7591 36.4903C43.3952 36.8635 43.1036 37.3009 42.8991 37.7803C42.7132 38.2264 42.6245 38.7072 42.6391 39.1903C42.6556 39.6817 42.7713 40.1647 42.9791 40.6103C43.2289 41.1048 43.568 41.5489 43.9791 41.9203C44.3616 42.3042 44.8127 42.6129 45.3091 42.8303C45.7563 43.0215 46.2377 43.1201 46.7241 43.1201C47.2105 43.1201 47.6918 43.0215 48.1391 42.8303C48.6148 42.6165 49.0458 42.3145 49.4091 41.9403L50.0091 41.3103C50.3805 40.9432 50.6731 40.5043 50.8691 40.0203C51.0455 39.5717 51.1305 39.0922 51.1191 38.6103C51.0975 38.1149 50.9678 37.6303 50.7391 37.1903ZM48.5591 39.9403L47.9491 40.5603C47.7748 40.7651 47.561 40.9326 47.3204 41.0529C47.0799 41.1732 46.8175 41.2438 46.5491 41.2603C46.0386 41.2025 45.5628 40.9732 45.1995 40.6099C44.8362 40.2466 44.6069 39.7708 44.5491 39.2603C44.5579 38.9914 44.6209 38.727 44.7343 38.483C44.8478 38.239 45.0092 38.0204 45.2091 37.8403L45.8191 37.2103C45.9908 37.0058 46.2029 36.839 46.4421 36.7203C46.6813 36.6015 46.9424 36.5335 47.2091 36.5203C47.729 36.5409 48.2204 36.7633 48.5791 37.1403C48.7738 37.3098 48.9325 37.5165 49.0459 37.7484C49.1592 37.9803 49.2249 38.2326 49.2391 38.4903C49.2318 38.7658 49.1676 39.0368 49.0506 39.2863C48.9336 39.5358 48.7662 39.7585 48.5591 39.9403ZM53.0491 50.6403C52.8195 50.1522 52.5006 49.7113 52.1091 49.3403C51.7223 48.957 51.268 48.6485 50.7691 48.4303C50.3235 48.2262 49.8392 48.1205 49.3491 48.1205C48.859 48.1205 48.3747 48.2262 47.9291 48.4303C47.4595 48.6446 47.0352 48.9467 46.6791 49.3203L46.0691 49.9503C45.7055 50.32 45.4139 50.754 45.2091 51.2303C45.0249 51.677 44.9364 52.1573 44.9491 52.6403C44.9643 53.1362 45.0835 53.6234 45.2991 54.0703C45.5322 54.5618 45.8543 55.006 46.2491 55.3803C46.6345 55.7581 47.085 56.063 47.5791 56.2803C48.0302 56.477 48.5169 56.5791 49.0091 56.5803C49.4948 56.5792 49.975 56.477 50.4191 56.2803C50.8928 56.0682 51.3208 55.7659 51.6791 55.3903L52.2891 54.7703C52.6501 54.3969 52.9383 53.9594 53.1391 53.4803C53.3147 53.0279 53.3997 52.5454 53.3891 52.0603C53.3774 51.5683 53.2615 51.0843 53.0491 50.6403ZM50.8691 53.3903L50.2591 54.0203C50.0839 54.2233 49.8697 54.389 49.6292 54.5075C49.3887 54.626 49.1268 54.695 48.8591 54.7103C48.4585 54.7309 48.0614 54.6262 47.7231 54.4107C47.3847 54.1952 47.1219 53.8796 46.9713 53.5078C46.8206 53.136 46.7895 52.7266 46.8823 52.3363C46.9751 51.946 47.1872 51.5945 47.4891 51.3303L48.0991 50.7003C48.2731 50.4985 48.4857 50.3335 48.7244 50.215C48.9631 50.0965 49.2231 50.0269 49.4891 50.0103C50.003 50.0592 50.4838 50.2856 50.8488 50.6506C51.2138 51.0156 51.4402 51.4964 51.4891 52.0103C51.4711 52.5338 51.2485 53.0292 50.8691 53.3903Z" fill="white"/>
</svg>
